STARTFONT 2.3
FONT -FontForge-STIX Two Math-Book-R-Normal--14-140-72-72-P-95-ISO10646-1
SIZE 14 72 72  4
FONTBOUNDINGBOX 57 60 -14 -23
COMMENT "Generated by fontforge, http://fontforge.sourceforge.net"
COMMENT "Copyright 2001-2021 The STIX Fonts Project Authors (https://github.com/stipub/stixfonts)"
STARTPROPERTIES 41
FOUNDRY "FontForge"
FAMILY_NAME "STIX Two Math"
WEIGHT_NAME "Book"
SLANT "R"
SETWIDTH_NAME "Normal"
ADD_STYLE_NAME ""
PIXEL_SIZE 14
POINT_SIZE 140
RESOLUTION_X 72
RESOLUTION_Y 72
SPACING "P"
AVERAGE_WIDTH 95
CHARSET_REGISTRY "ISO10646"
CHARSET_ENCODING "1"
FONTNAME_REGISTRY ""
CHARSET_COLLECTIONS "ASCII ISOLatin1Encoding ISO8859-2 ISO8859-5 ISO8859-7 ISO8859-9 ISO8859-4 ISO10646-1"
BITS_PER_PIXEL 4
FONT_NAME "STIXTwoMath-Regular"
FACE_NAME "STIX Two Math Regular"
COPYRIGHT "Copyright 2001-2021 The STIX Fonts Project Authors (https://github.com/stipub/stixfonts)"
FONT_VERSION "2.12 b168a"
FONT_ASCENT 11
FONT_DESCENT 3
UNDERLINE_POSITION -1
UNDERLINE_THICKNESS 1
X_HEIGHT 6
CAP_HEIGHT 8
RAW_ASCENT 762
RAW_DESCENT 238
NORM_SPACE 3
RELATIVE_WEIGHT 40
RELATIVE_SETWIDTH 50
SUPERSCRIPT_X 0
SUPERSCRIPT_Y 7
SUPERSCRIPT_SIZE 7
SUBSCRIPT_X 0
SUBSCRIPT_Y 3
SUBSCRIPT_SIZE 7
FIGURE_WIDTH 7
AVG_LOWERCASE_WIDTH 69
AVG_UPPERCASE_WIDTH 94
ENDPROPERTIES
CHARS 6611
STARTCHAR space
ENCODING 32
SWIDTH 235 0
DWIDTH 3 0
BBX 1 1 0 0
BITMAP
00
ENDCHAR
STARTCHAR exclam
ENCODING 33
SWIDTH 283 0
DWIDTH 4 0
BBX 2 9 1 0
BITMAP
98
BA
A9
88
76
65
22
66
A9
ENDCHAR
STARTCHAR quotedbl
ENCODING 34
SWIDTH 334 0
DWIDTH 5 0
BBX 4 3 0 7
BITMAP
4D3E
4A3A
4636
ENDCHAR
STARTCHAR numbersign
ENCODING 35
SWIDTH 702 0
DWIDTH 10 0
BBX 10 9 0 0
BITMAP
0008403900
000B106500
09AEAADBA1
001B00C000
004800C000
2ACCAAEA70
0084039000
00B1057000
00C0075000
ENDCHAR
STARTCHAR dollar
ENCODING 36
SWIDTH 495 0
DWIDTH 7 0
BBX 7 11 0 -1
BITMAP
00090000
079CA800
5B090C10
5D190300
1CDB0000
018FD300
000AAE20
60090D60
86090D40
4B9C9600
00090000
ENDCHAR
STARTCHAR percent
ENCODING 37
SWIDTH 692 0
DWIDTH 10 0
BBX 9 9 0 0
BITMAP
0598867C00
2D0170C400
5A02569000
4A061D1000
0762856740
0002B5A070
000A2B5080
00470B3080
00A005A820
ENDCHAR
STARTCHAR ampersand
ENCODING 38
SWIDTH 736 0
DWIDTH 10 0
BBX 10 9 0 0
BITMAP
0039790000
00B5084000
00981B1000
003E824BA3
039BA00C20
2D11E53700
8B005E9000
7E203CE305
1AEE917ED4
ENDCHAR
STARTCHAR quotesingle
ENCODING 39
SWIDTH 187 0
DWIDTH 3 0
BBX 2 3 0 7
BITMAP
4D
4A
46
ENDCHAR
STARTCHAR parenleft
ENCODING 40
SWIDTH 357 0
DWIDTH 5 0
BBX 5 14 0 -3
BITMAP
000010
001930
00B200
077000
0E2000
3E0000
5D0000
5C0000
4D0000
1F1000
0B5000
03B000
005800
000340
ENDCHAR
STARTCHAR parenright
ENCODING 41
SWIDTH 357 0
DWIDTH 5 0
BBX 5 14 0 -3
BITMAP
100000
391000
02B000
008700
002E00
000E30
000D50
000C50
000D40
001F10
005B00
00B300
085000
430000
ENDCHAR
STARTCHAR asterisk
ENCODING 42
SWIDTH 410 0
DWIDTH 6 0
BBX 6 6 0 4
BITMAP
008500
5B75D1
04CA20
4C87D1
119520
003100
ENDCHAR
STARTCHAR plus
ENCODING 43
SWIDTH 720 0
DWIDTH 10 0
BBX 10 9 0 -1
BITMAP
0000780000
0000780000
0000780000
0000780000
2FFFFFFFF3
0000780000
0000780000
0000780000
0000780000
ENDCHAR
STARTCHAR comma
ENCODING 44
SWIDTH 245 0
DWIDTH 3 0
BBX 3 4 0 -2
BITMAP
0830
2EA0
0280
1810
ENDCHAR
STARTCHAR hyphen
ENCODING 45
SWIDTH 315 0
DWIDTH 4 0
BBX 4 1 0 3
BITMAP
5EEB
ENDCHAR
STARTCHAR period
ENCODING 46
SWIDTH 245 0
DWIDTH 3 0
BBX 3 2 0 0
BITMAP
0A30
1D60
ENDCHAR
STARTCHAR slash
ENCODING 47
SWIDTH 386 0
DWIDTH 5 0
BBX 5 12 0 -2
BITMAP
0001B0
000560
000A20
000B00
004700
009300
00C000
048000
093000
0C0000
390000
330000
ENDCHAR
STARTCHAR zero
ENCODING 48
SWIDTH 495 0
DWIDTH 7 0
BBX 7 9 0 0
BITMAP
03A8A200
1E304D00
5D000E40
8B000D70
9B000C80
8C000D70
5E000E40
0E305C00
03B8A200
ENDCHAR
STARTCHAR one
ENCODING 49
SWIDTH 495 0
DWIDTH 7 0
BBX 5 9 1 0
BITMAP
5AE200
23F200
01F200
01F200
01F200
01F200
01F200
01F300
5AFB60
ENDCHAR
STARTCHAR two
ENCODING 50
SWIDTH 495 0
DWIDTH 7 0
BBX 7 9 0 0
BITMAP
04CEC300
2801AD00
10004F00
00006C00
0000C400
00085000
00760020
07722650
5FFFFF20
ENDCHAR
STARTCHAR three
ENCODING 51
SWIDTH 495 0
DWIDTH 7 0
BBX 7 9 0 0
BITMAP
03CEB200
0811C900
00009800
0002A100
007EC300
00008E10
00000F30
04003C00
1DD98100
ENDCHAR
STARTCHAR four
ENCODING 52
SWIDTH 495 0
DWIDTH 7 0
BBX 7 9 0 0
BITMAP
0001D500
0008F500
0056E500
0190E500
0910E500
6500E500
CFFFFFB0
0000E500
0000E500
ENDCHAR
STARTCHAR five
ENCODING 53
SWIDTH 495 0
DWIDTH 7 0
BBX 7 9 0 0
BITMAP
00DFFE00
02833200
05400000
08FE9100
0135CC00
00001F20
00000D20
05003B00
1DDA8100
ENDCHAR
STARTCHAR six
ENCODING 54
SWIDTH 495 0
DWIDTH 7 0
BBX 7 9 0 0
BITMAP
0017A600
01D60000
0A800000
2F7CC400
4F406E10
5E000E50
3F000D50
0D401E10
02A89500
ENDCHAR
STARTCHAR seven
ENCODING 55
SWIDTH 495 0
DWIDTH 7 0
BBX 7 9 0 0
BITMAP
0EFFFF70
38333C20
10002B00
00009500
0001D000
00068000
000D3000
004C0000
00A60000
ENDCHAR
STARTCHAR eight
ENCODING 56
SWIDTH 495 0
DWIDTH 7 0
BBX 7 9 0 0
BITMAP
04979300
1E003D00
1F203C00
09E59200
00AEA100
0A31BC00
4C001F30
3D000E20
07969500
ENDCHAR
STARTCHAR nine
ENCODING 57
SWIDTH 495 0
DWIDTH 7 0
BBX 7 9 0 0
BITMAP
05A8A200
2E105C00
6C001F20
6D000F40
2F505F30
05CC7F10
00008B00
0005D200
05981000
ENDCHAR
STARTCHAR colon
ENCODING 58
SWIDTH 245 0
DWIDTH 3 0
BBX 3 7 0 0
BITMAP
0A30
1D60
0000
0000
0000
0A30
1D60
ENDCHAR
STARTCHAR semicolon
ENCODING 59
SWIDTH 245 0
DWIDTH 3 0
BBX 3 9 0 -2
BITMAP
0A30
1D60
0000
0000
0000
0830
2EA0
0280
1810
ENDCHAR
STARTCHAR less
ENCODING 60
SWIDTH 720 0
DWIDTH 10 0
BBX 9 9 1 -1
BITMAP
0000000510
000006D900
0006D92000
17D9200000
9F70000000
03AC500000
00029C6000
0000029D10
0000000100
ENDCHAR
STARTCHAR equal
ENCODING 61
SWIDTH 720 0
DWIDTH 10 0
BBX 10 4 0 2
BITMAP
2FFFFFFFF3
0000000000
0000000000
2FFFFFFFF3
ENDCHAR
STARTCHAR greater
ENCODING 62
SWIDTH 720 0
DWIDTH 10 0
BBX 8 9 1 -1
BITMAP
60000000
8D610000
018D7100
00018D71
000006FA
0005CA30
05CA3000
C9200000
20000000
ENDCHAR
STARTCHAR question
ENCODING 63
SWIDTH 411 0
DWIDTH 6 0
BBX 6 9 0 0
BITMAP
198A80
7900E4
4700E4
0003D0
000B30
004600
003100
006400
00B700
ENDCHAR
STARTCHAR at
ENCODING 64
SWIDTH 905 0
DWIDTH 13 0
BBX 12 12 0 -3
BITMAP
00017AAA8200
004C40004C50
02C1188491C2
0A50C309B068
0E05B005B03B
2D07A005B02C
2D08A006B03A
0E15E10AB095
0B509DA2DC70
03D100000000
006D50001610
00028BBA9300
ENDCHAR
STARTCHAR A
ENCODING 65
SWIDTH 718 0
DWIDTH 10 0
BBX 10 9 0 0
BITMAP
0000870000
0001DD0000
00074E5000
000A08C000
005502F400
00A999DB00
0380004F20
0A30000E90
8F80005EF8
ENDCHAR
STARTCHAR B
ENCODING 66
SWIDTH 618 0
DWIDTH 9 0
BBX 9 9 0 0
BITMAP
3AFA9BA100
02F200D800
02F200BA00
02F202C300
02FAAE8100
02F202BC00
02F2005F20
02F2008D00
3AF98AB300
ENDCHAR
STARTCHAR C
ENCODING 67
SWIDTH 670 0
DWIDTH 9 0
BBX 9 9 0 0
BITMAP
003AAADF80
04E3000B80
0D80000380
3F40000020
4F30000000
3F40000000
0E90000000
05F7101670
004BEDC600
ENDCHAR
STARTCHAR D
ENCODING 68
SWIDTH 730 0
DWIDTH 10 0
BBX 10 9 0 0
BITMAP
3AFA9AB500
02F2003E80
02F20006F2
02F20001F6
02F20000F7
02F20001F6
02F20004F2
02F2002D80
3AFA99A500
ENDCHAR
STARTCHAR E
ENCODING 69
SWIDTH 626 0
DWIDTH 9 0
BBX 9 9 0 0
BITMAP
3AFA9ABD00
02F2000600
02F2007000
02F200A000
02F98BC000
02F2003000
02F2000350
02F2000A30
3AFA9ACF10
ENDCHAR
STARTCHAR F
ENCODING 70
SWIDTH 588 0
DWIDTH 8 0
BBX 8 9 0 0
BITMAP
3AFBAABE
02F20006
02F20080
02F200A0
02F98BB0
02F20030
02F20000
02F30000
3AFA4000
ENDCHAR
STARTCHAR G
ENCODING 71
SWIDTH 720 0
DWIDTH 10 0
BBX 10 9 0 0
BITMAP
003AAADF80
04E3000B80
0D80000380
3F40000020
4F30007BB4
3F40000AA0
0E80000AA0
06E4000BA0
005BBAB820
ENDCHAR
STARTCHAR H
ENCODING 72
SWIDTH 777 0
DWIDTH 11 0
BBX 11 9 0 0
BITMAP
29FC503AFB40
00F60001F400
00E50001F300
00E50001F300
00EB8889F300
00E50001F300
00E50001F300
00E50001F300
28FC5039FB40
ENDCHAR
STARTCHAR I
ENCODING 73
SWIDTH 357 0
DWIDTH 5 0
BBX 5 9 0 0
BITMAP
3BFA30
03F200
02F200
02F200
02F200
02F200
02F200
02F200
3AFA30
ENDCHAR
STARTCHAR J
ENCODING 74
SWIDTH 396 0
DWIDTH 6 0
BBX 6 9 0 0
BITMAP
05CF92
005F00
005F00
005F00
005F00
005F00
005F00
925D00
ACA500
ENDCHAR
STARTCHAR K
ENCODING 75
SWIDTH 702 0
DWIDTH 10 0
BBX 10 9 0 0
BITMAP
3BFA32CF81
03F201B300
02F21A2000
02F3A20000
02FCA00000
02F4DA0000
02F21CB000
02F201DB10
3AFA32BFC5
ENDCHAR
STARTCHAR L
ENCODING 76
SWIDTH 585 0
DWIDTH 8 0
BBX 8 9 0 0
BITMAP
3AFB4000
03F30000
02F20000
02F20000
02F20000
02F20000
02F20006
03F2001B
3AFB9AE9
ENDCHAR
STARTCHAR M
ENCODING 77
SWIDTH 895 0
DWIDTH 13 0
BBX 12 9 0 0
BITMAP
4CF700001EE7
05EE00006EA0
048F5000B9A0
046AC00489A0
0463F30A19A0
0460CA2909A0
04605FA309A0
05700DB009A0
4CD507506EE7
ENDCHAR
STARTCHAR N
ENCODING 78
SWIDTH 742 0
DWIDTH 10 0
BBX 10 9 0 0
BITMAP
4DF3002AF8
04FD1000C0
048DB000B0
0463F800B0
04605F50B0
046008E2B0
046000BDB0
0570001DB0
4CD50003A0
ENDCHAR
STARTCHAR O
ENCODING 79
SWIDTH 738 0
DWIDTH 10 0
BBX 10 9 0 0
BITMAP
003A99B700
04E3001CA0
0D800003F4
3F400000E8
4F300000D9
3F500000E7
0D800003F3
05E2000B90
004A99A600
ENDCHAR
STARTCHAR P
ENCODING 80
SWIDTH 569 0
DWIDTH 8 0
BBX 8 9 0 0
BITMAP
2AFA9C80
02F201E7
02F200C8
02F203E3
02F99830
02F20000
02F20000
02F30000
2AFB4000
ENDCHAR
STARTCHAR Q
ENCODING 81
SWIDTH 737 0
DWIDTH 10 0
BBX 10 12 0 -3
BITMAP
003A99B600
04E3001C90
0D800003F3
3F400000E8
4F300000D9
3F400000F8
0E800003F3
06E2000A90
005B88A700
00001EC000
000005FA10
00000039A9
ENDCHAR
STARTCHAR R
ENCODING 82
SWIDTH 659 0
DWIDTH 9 0
BBX 10 9 0 0
BITMAP
3AFA8B8100
03F201E800
02F200C900
02F204E300
02FADA1000
02F25E3000
02F20AD100
03F301E900
2AFA305F92
ENDCHAR
STARTCHAR S
ENCODING 83
SWIDTH 504 0
DWIDTH 7 0
BBX 7 9 0 0
BITMAP
05AADF10
3E101D20
4F200620
0BE60000
007ED400
0002BF30
71000D80
78000D60
6FCAB800
ENDCHAR
STARTCHAR T
ENCODING 84
SWIDTH 603 0
DWIDTH 8 0
BBX 9 9 0 0
BITMAP
ADACEABF20
A107D00830
3007D00210
0007D00000
0007D00000
0007D00000
0007D00000
0007D00000
005DF82000
ENDCHAR
STARTCHAR U
ENCODING 85
SWIDTH 752 0
DWIDTH 11 0
BBX 11 9 0 0
BITMAP
5CF92018F920
05E00000D000
05E00000C000
05E00000C000
05E00000C000
05E00000C000
04F10000B000
00EA10196000
003BEED70000
ENDCHAR
STARTCHAR V
ENCODING 86
SWIDTH 680 0
DWIDTH 10 0
BBX 11 9 -1 0
BITMAP
19FD4002BE50
00BC00008500
005F3000B000
000D90056000
0007E10A1000
0001E7290000
00008D820000
00002FA00000
00000A500000
ENDCHAR
STARTCHAR W
ENCODING 87
SWIDTH 944 0
DWIDTH 13 0
BBX 15 9 -1 0
BITMAP
1AFC33BFA205EB10
00CB001F5000C100
005F200AB0029000
000E800CF2074000
0008E037D80B0000
0002F5917E380000
0000BB901FC30000
00005F400AD00000
00000B0004700000
ENDCHAR
STARTCHAR X
ENCODING 88
SWIDTH 664 0
DWIDTH 9 0
BBX 10 9 0 0
BITMAP
5DF9119E81
02E8009400
005F348000
000AC90000
0002F80000
000A6F3000
00850AD100
059001E900
7E9104EF91
ENDCHAR
STARTCHAR Y
ENCODING 89
SWIDTH 647 0
DWIDTH 9 0
BBX 10 9 0 0
BITMAP
9FE5007F91
08F2005700
00CB00A000
003F573000
0008D90000
0001F30000
0001F30000
0001F30000
003AFB4000
ENDCHAR
STARTCHAR Z
ENCODING 90
SWIDTH 594 0
DWIDTH 8 0
BBX 8 9 0 0
BITMAP
0FCAAAFB
190007E2
12003F50
0001D900
000AD100
006F3000
02E70004
0CB0001A
7FCAABE9
ENDCHAR
STARTCHAR bracketleft
ENCODING 91
SWIDTH 349 0
DWIDTH 5 0
BBX 4 14 1 -3
BITMAP
8871
B500
B500
B500
B500
B500
B500
B500
B500
B500
B500
B500
B500
BA71
ENDCHAR
STARTCHAR backslash
ENCODING 92
SWIDTH 385 0
DWIDTH 5 0
BBX 5 12 0 -2
BITMAP
560000
1B0000
0B1000
066000
01A000
00B100
007500
002A00
000B00
000840
000390
000060
ENDCHAR
STARTCHAR bracketright
ENCODING 93
SWIDTH 349 0
DWIDTH 5 0
BBX 4 14 0 -3
BITMAP
2797
0079
0079
0079
0079
0079
0079
0079
0079
0079
0079
0079
0079
27B9
ENDCHAR
STARTCHAR asciicircum
ENCODING 94
SWIDTH 480 0
DWIDTH 7 0
BBX 7 6 0 4
BITMAP
00160000
007D3000
00C3A000
0660A200
0C104900
58000B10
ENDCHAR
STARTCHAR underscore
ENCODING 95
SWIDTH 512 0
DWIDTH 7 0
BBX 8 1 0 -2
BITMAP
BBBBBBB2
ENDCHAR
STARTCHAR grave
ENCODING 96
SWIDTH 222 0
DWIDTH 3 0
BBX 3 2 0 8
BITMAP
5D10
0560
ENDCHAR
STARTCHAR a
ENCODING 97
SWIDTH 480 0
DWIDTH 7 0
BBX 7 7 0 0
BITMAP
0779A000
2F00D400
0200C600
0287D600
2D10C600
6D01D610
2DC88D40
ENDCHAR
STARTCHAR b
ENCODING 98
SWIDTH 522 0
DWIDTH 7 0
BBX 7 10 0 0
BITMAP
7D400000
0D400000
0D400000
0D5BEA10
0D912E70
0D4009B0
0D4007C0
0D400990
0D500D30
08C99500
ENDCHAR
STARTCHAR c
ENCODING 99
SWIDTH 446 0
DWIDTH 6 0
BBX 6 7 0 0
BITMAP
0399C4
1C009A
690001
790000
7C0001
2F8238
05DFA1
ENDCHAR
STARTCHAR d
ENCODING 100
SWIDTH 539 0
DWIDTH 8 0
BBX 8 10 0 0
BITMAP
00007E30
00000F30
00000E30
02A9AF30
1D202F30
5C000E30
8B000E30
7D000E30
3F503F30
07ED6DA1
ENDCHAR
STARTCHAR e
ENCODING 101
SWIDTH 464 0
DWIDTH 7 0
BBX 6 7 0 0
BITMAP
049AB2
2B008B
6C889B
8A0000
6E0001
1EA238
04CFB1
ENDCHAR
STARTCHAR f
ENCODING 102
SWIDTH 307 0
DWIDTH 4 0
BBX 6 10 0 0
BITMAP
0089D2
059051
089000
6CD930
099000
099000
099000
099000
099000
5DE700
ENDCHAR
STARTCHAR g
ENCODING 103
SWIDTH 484 0
DWIDTH 7 0
BBX 7 10 0 -3
BITMAP
05AAFC70
2F10A900
4F007B00
1D40A800
08997000
4D210000
1DFFFD30
37000770
A9000840
4DECA400
ENDCHAR
STARTCHAR h
ENCODING 104
SWIDTH 577 0
DWIDTH 8 0
BBX 8 10 0 0
BITMAP
5C800000
09800000
09800000
0997EC20
09C30B90
098007B0
098006B0
098006B0
099006B0
4DD43CE5
ENDCHAR
STARTCHAR i
ENCODING 105
SWIDTH 285 0
DWIDTH 4 0
BBX 4 9 0 0
BITMAP
09A0
0550
4C90
0990
0990
0990
0990
0990
3DD4
ENDCHAR
STARTCHAR j
ENCODING 106
SWIDTH 263 0
DWIDTH 4 0
BBX 5 12 -2 -3
BITMAP
000A90
000540
004C80
000980
000980
000980
000980
000980
000980
000970
280A40
2DB800
ENDCHAR
STARTCHAR k
ENCODING 107
SWIDTH 542 0
DWIDTH 8 0
BBX 8 10 0 0
BITMAP
4C800000
09800000
09800000
09809E80
0981A200
09992000
09CE3000
0987E200
09909C10
4DD44FC4
ENDCHAR
STARTCHAR l
ENCODING 108
SWIDTH 283 0
DWIDTH 4 0
BBX 4 10 0 0
BITMAP
4C80
0980
0980
0980
0980
0980
0980
0980
0990
4DD4
ENDCHAR
STARTCHAR m
ENCODING 109
SWIDTH 852 0
DWIDTH 12 0
BBX 12 7 0 0
BITMAP
4C86CD28CC20
09C20BC20B70
099008900990
099008900890
099008900890
099008A00990
4DD44DE54DD4
ENDCHAR
STARTCHAR n
ENCODING 110
SWIDTH 576 0
DWIDTH 8 0
BBX 8 7 0 0
BITMAP
4C87DD20
09C20B90
099007B0
099006B0
099006B0
099006B0
3DD43CE5
ENDCHAR
STARTCHAR o
ENCODING 111
SWIDTH 514 0
DWIDTH 7 0
BBX 7 7 0 0
BITMAP
03A8A500
1E201E30
6D000A90
8C0009A0
6D000990
1E300D30
03B89500
ENDCHAR
STARTCHAR p
ENCODING 112
SWIDTH 537 0
DWIDTH 8 0
BBX 7 10 0 -3
BITMAP
5D79EC20
0AB21CA0
0A7006E0
0A7004F0
0A7005D0
0A900A60
0AD99700
0A700000
0A800000
5ED60000
ENDCHAR
STARTCHAR q
ENCODING 113
SWIDTH 521 0
DWIDTH 7 0
BBX 8 10 0 -3
BITMAP
02A9AB30
1D202F30
5B000F30
8B000F30
7C000F30
3F614F30
07ED5F30
00000F30
00000F30
00029F91
ENDCHAR
STARTCHAR r
ENCODING 114
SWIDTH 380 0
DWIDTH 5 0
BBX 6 7 0 0
BITMAP
4C88E2
09C471
099000
099000
099000
099000
4DD600
ENDCHAR
STARTCHAR s
ENCODING 115
SWIDTH 395 0
DWIDTH 6 0
BBX 6 7 0 0
BITMAP
198990
690090
4F7020
06ED30
301AE1
7401F1
6A8A70
ENDCHAR
STARTCHAR t
ENCODING 116
SWIDTH 315 0
DWIDTH 4 0
BBX 5 9 0 0
BITMAP
027000
0B7000
4DC900
0B7000
0B7000
0B7000
0B7000
0A8120
05EA00
ENDCHAR
STARTCHAR u
ENCODING 117
SWIDTH 570 0
DWIDTH 8 0
BBX 8 7 0 0
BITMAP
5D705D90
0B700990
0B700990
0B700990
0B700990
09A01C90
03DC88C4
ENDCHAR
STARTCHAR v
ENCODING 118
SWIDTH 481 0
DWIDTH 7 0
BBX 8 7 -1 0
BITMAP
1BF603D9
01F400B0
00A90370
004E0820
000E5900
0008D400
0002D000
ENDCHAR
STARTCHAR w
ENCODING 119
SWIDTH 749 0
DWIDTH 10 0
BBX 12 7 -1 0
BITMAP
2BF62BF506E5
01F402F20290
00A902E70730
004E186C0900
000D681E4700
0008D40AD200
0002D005B000
ENDCHAR
STARTCHAR x
ENCODING 120
SWIDTH 479 0
DWIDTH 7 0
BBX 7 7 0 0
BITMAP
7FB18D40
07D08200
00C95000
005F3000
01A8C000
0930D700
9D21CF60
ENDCHAR
STARTCHAR y
ENCODING 121
SWIDTH 483 0
DWIDTH 7 0
BBX 8 10 -1 -3
BITMAP
1BF603D8
01F400B0
009A0370
002F2810
000A8900
0004E500
0000D000
00028000
043A2000
0BE50000
ENDCHAR
STARTCHAR z
ENCODING 122
SWIDTH 458 0
DWIDTH 6 0
BBX 6 7 0 0
BITMAP
4D99EC
5403F3
100D80
008C00
03F303
0C800A
7FA9CD
ENDCHAR
STARTCHAR braceleft
ENCODING 123
SWIDTH 327 0
DWIDTH 5 0
BBX 4 14 0 -3
BITMAP
0077
0780
0A60
0970
0780
0680
2A20
6910
0770
0790
0870
0A60
0870
02A7
ENDCHAR
STARTCHAR bar
ENCODING 124
SWIDTH 267 0
DWIDTH 4 0
BBX 2 13 1 -3
BITMAP
84
84
84
84
84
84
84
84
84
84
84
84
84
ENDCHAR
STARTCHAR braceright
ENCODING 125
SWIDTH 327 0
DWIDTH 5 0
BBX 5 14 0 -3
BITMAP
383000
01D100
00C300
00E200
00F100
00E000
008610
003A20
00D000
00F000
00E200
00D300
00D200
397000
ENDCHAR
STARTCHAR asciitilde
ENCODING 126
SWIDTH 557 0
DWIDTH 8 0
BBX 8 2 0 3
BITMAP
09BA53B2
5703AC70
ENDCHAR
STARTCHAR uni00A0
ENCODING 160
SWIDTH 235 0
DWIDTH 3 0
BBX 1 1 0 0
BITMAP
00
ENDCHAR
STARTCHAR exclamdown
ENCODING 161
SWIDTH 282 0
DWIDTH 4 0
BBX 2 10 1 -3
BITMAP
A9
76
11
55
66
87
98
A9
BA
99
ENDCHAR
STARTCHAR cent
ENCODING 162
SWIDTH 495 0
DWIDTH 7 0
BBX 7 10 0 -1
BITMAP
00081000
005BA400
09496E00
2C090300
5C090000
4E190000
1EAA1810
03CFD400
00090000
00090000
ENDCHAR
STARTCHAR sterling
ENCODING 163
SWIDTH 495 0
DWIDTH 7 0
BBX 7 9 0 0
BITMAP
0029BC20
00B20950
01F10000
01F30000
39FB9200
00D50000
00B40000
58D40350
877BEB10
ENDCHAR
STARTCHAR currency
ENCODING 164
SWIDTH 617 0
DWIDTH 9 0
BBX 8 8 0 0
BITMAP
36000018
0A9BBAB6
04B003C0
09300084
08300093
03C104D0
1C6AB998
24000006
ENDCHAR
STARTCHAR yen
ENCODING 165
SWIDTH 495 0
DWIDTH 7 0
BBX 7 9 0 0
BITMAP
9B803A70
1E800A00
05F36300
00AB8000
09BFBA00
002F3000
09AFBA00
002F3000
029FA300
ENDCHAR
STARTCHAR brokenbar
ENCODING 166
SWIDTH 267 0
DWIDTH 4 0
BBX 2 11 1 -1
BITMAP
84
84
84
84
21
00
84
84
84
84
21
ENDCHAR
STARTCHAR section
ENCODING 167
SWIDTH 491 0
DWIDTH 7 0
BBX 5 12 1 -3
BITMAP
176830
760590
6C1220
0BC200
54AD10
B00A90
A801B0
3E8460
03D900
502D40
D10850
576800
ENDCHAR
STARTCHAR dieresis
ENCODING 168
SWIDTH 392 0
DWIDTH 5 0
BBX 5 2 0 8
BITMAP
5A04B0
6C05D0
ENDCHAR
STARTCHAR copyright
ENCODING 169
SWIDTH 781 0
DWIDTH 11 0
BBX 11 10 0 0
BITMAP
000577740000
008300048000
071297A72600
180C20170800
350F00000610
350F10000610
180B70140800
0722ACA12700
008300048000
000577740000
ENDCHAR
STARTCHAR ordfeminine
ENCODING 170
SWIDTH 410 0
DWIDTH 6 0
BBX 6 5 0 4
BITMAP
1A7B30
260780
066A90
6A0790
4E97D4
ENDCHAR
STARTCHAR guillemotleft
ENCODING 171
SWIDTH 517 0
DWIDTH 7 0
BBX 7 7 0 0
BITMAP
00010010
00740730
07708600
6C06C000
1C41C400
01A21A10
00130130
ENDCHAR
STARTCHAR logicalnot
ENCODING 172
SWIDTH 720 0
DWIDTH 10 0
BBX 9 5 0 1
BITMAP
2FFFFFFFE0
00000001E0
00000001E0
00000001E0
00000001E0
ENDCHAR
STARTCHAR uni00AD
ENCODING 173
SWIDTH 315 0
DWIDTH 4 0
BBX 4 1 0 3
BITMAP
5EEB
ENDCHAR
STARTCHAR registered
ENCODING 174
SWIDTH 413 0
DWIDTH 6 0
BBX 6 6 0 5
BITMAP
025510
256450
508923
50B823
267660
025510
ENDCHAR
STARTCHAR macron
ENCODING 175
SWIDTH 350 0
DWIDTH 5 0
BBX 5 1 0 8
BITMAP
7BBB50
ENDCHAR
STARTCHAR degree
ENCODING 176
SWIDTH 409 0
DWIDTH 6 0
BBX 5 5 0 6
BITMAP
05BB20
1B12B0
3800C0
1B02B0
05BB20
ENDCHAR
STARTCHAR plusminus
ENCODING 177
SWIDTH 720 0
DWIDTH 10 0
BBX 10 9 0 0
BITMAP
0000340000
0000780000
0000780000
2EEEFFEEE3
0000780000
0000780000
0000780000
0000120000
2EEEEEEEE3
ENDCHAR
STARTCHAR twosuperior
ENCODING 178
SWIDTH 373 0
DWIDTH 5 0
BBX 5 6 0 4
BITMAP
2ACC20
300990
000A50
005600
074050
8EDDB0
ENDCHAR
STARTCHAR threesuperior
ENCODING 179
SWIDTH 374 0
DWIDTH 5 0
BBX 5 6 0 4
BITMAP
2ACC10
200B20
04C910
000990
000690
6C7810
ENDCHAR
STARTCHAR acute
ENCODING 180
SWIDTH 222 0
DWIDTH 3 0
BBX 3 2 0 8
BITMAP
0C60
5700
ENDCHAR
STARTCHAR uni00B5
ENCODING 181
SWIDTH 556 0
DWIDTH 8 0
BBX 8 10 0 -3
BITMAP
0E500D50
0E300E20
0E100D00
0D001D00
0D006C00
1F639C34
3BBD28E4
4B000000
5C000000
5A000000
ENDCHAR
STARTCHAR paragraph
ENCODING 182
SWIDTH 605 0
DWIDTH 8 0
BBX 8 12 0 -3
BITMAP
04AACCC4
1E259960
3F059950
2F059950
0C559950
017A9950
00059950
00059950
00059950
00059950
00089980
00484484
ENDCHAR
STARTCHAR periodcentered
ENCODING 183
SWIDTH 282 0
DWIDTH 4 0
BBX 2 2 1 3
BITMAP
76
A9
ENDCHAR
STARTCHAR cedilla
ENCODING 184
SWIDTH 247 0
DWIDTH 3 0
BBX 3 4 0 -3
BITMAP
0400
0A80
00D0
4860
ENDCHAR
STARTCHAR onesuperior
ENCODING 185
SWIDTH 343 0
DWIDTH 5 0
BBX 5 6 0 4
BITMAP
28E000
01E000
01E000
01E000
01E000
28F710
ENDCHAR
STARTCHAR ordmasculine
ENCODING 186
SWIDTH 432 0
DWIDTH 6 0
BBX 6 5 0 4
BITMAP
089990
6B00A6
880089
5B00A6
089990
ENDCHAR
STARTCHAR guillemotright
ENCODING 187
SWIDTH 517 0
DWIDTH 7 0
BBX 7 6 0 0
BITMAP
19019000
03B14A00
008A0990
01C32C30
0A30A200
12022000
ENDCHAR
STARTCHAR onequarter
ENCODING 188
SWIDTH 861 0
DWIDTH 12 0
BBX 12 11 0 -1
BITMAP
001000005100
28C000029000
03C000092000
03C000470000
03C000A00270
03D007401BB0
28A6290096B0
0000920744B0
0004701DBCE8
000A000004B0
001300000010
ENDCHAR
STARTCHAR onehalf
ENCODING 189
SWIDTH 889 0
DWIDTH 12 0
BBX 13 12 0 -1
BITMAP
00000000110000
26700000A10000
03C00005600000
03C0000A000000
03C00074000000
03C001A06CC300
03D00922407B00
28A63800006900
0000A10003A100
00056000480510
000A0003DBBB00
00130000000000
ENDCHAR
STARTCHAR threequarters
ENCODING 190
SWIDTH 861 0
DWIDTH 12 0
BBX 12 11 0 -1
BITMAP
000000005100
19CA10029000
310C20092000
04C910470000
000980A00380
220877401CB0
4B76290095B0
0000920744B0
0004701DBCE8
000A000004B0
001300000010
ENDCHAR
STARTCHAR questiondown
ENCODING 191
SWIDTH 411 0
DWIDTH 6 0
BBX 6 10 0 -3
BITMAP
00A800
006500
002100
007200
01B000
0B5000
4D0000
8B00D4
7C00B4
099880
ENDCHAR
STARTCHAR Agrave
ENCODING 192
SWIDTH 718 0
DWIDTH 10 0
BBX 10 12 0 0
BITMAP
0005E30000
00003B1000
0000000000
0000870000
0001DD0000
00074E5000
000A08C000
005502F400
00A999DB00
0380004F20
0A30000E90
8F80005EF8
ENDCHAR
STARTCHAR Aacute
ENCODING 193
SWIDTH 718 0
DWIDTH 10 0
BBX 10 12 0 0
BITMAP
00004E4000
0002B20000
0000000000
0000870000
0001DD0000
00074E5000
000A08C000
005502F400
00A999DB00
0380004F20
0A30000E90
8F80005EF8
ENDCHAR
STARTCHAR Acircumflex
ENCODING 194
SWIDTH 718 0
DWIDTH 10 0
BBX 10 12 0 0
BITMAP
0001DC1000
0009348000
0000000000
0000870000
0001DD0000
00074E5000
000A08C000
005502F400
00A999DB00
0380004F20
0A30000E90
8F80005EF8
ENDCHAR
STARTCHAR Atilde
ENCODING 195
SWIDTH 718 0
DWIDTH 10 0
BBX 10 12 0 0
BITMAP
0009D54300
00244CA000
0000000000
0000870000
0001DD0000
00074E5000
000A08C000
005502F400
00A999DB00
0380004F20
0A30000E90
8F80005EF8
ENDCHAR
STARTCHAR Adieresis
ENCODING 196
SWIDTH 718 0
DWIDTH 10 0
BBX 10 12 0 0
BITMAP
0017017100
004D12E200
0000000000
0000870000
0001DD0000
00074E5000
000A08C000
005502F400
00A999DB00
0380004F20
0A30000E90
8F80005EF8
ENDCHAR
STARTCHAR Aring
ENCODING 197
SWIDTH 718 0
DWIDTH 10 0
BBX 10 13 0 0
BITMAP
0002881000
0007355000
0002881000
0000000000
0000870000
0001DD0000
00074E5000
000A08C000
005502F400
00A999DB00
0380004F20
0A30000E90
8F80005EF8
ENDCHAR
STARTCHAR AE
ENCODING 198
SWIDTH 894 0
DWIDTH 13 0
BBX 14 9 -1 0
BITMAP
000009EFA9AD90
0000076F100180
0000183F100200
0000813F101800
0002C8AF99C800
000A103F101800
0047003F100041
00B0004F1000B0
2BE504BFA9ADC0
ENDCHAR
STARTCHAR Ccedilla
ENCODING 199
SWIDTH 670 0
DWIDTH 9 0
BBX 9 12 0 -3
BITMAP
003AAADF80
04E3000B80
0D80000380
3F40000020
4F30000000
3F40000000
0E90000000
05F7101670
004BFDC600
00007A1000
0000084000
0001890000
ENDCHAR
STARTCHAR Egrave
ENCODING 200
SWIDTH 626 0
DWIDTH 9 0
BBX 9 12 0 0
BITMAP
000BB00000
0000770000
0000000000
3AFA9ABD00
02F2000600
02F2007000
02F200A000
02F98BC000
02F2003000
02F2000350
02F2000A30
3AFA9ACF10
ENDCHAR
STARTCHAR Eacute
ENCODING 201
SWIDTH 626 0
DWIDTH 9 0
BBX 9 12 0 0
BITMAP
0000BB0000
0007700000
0000000000
3AFA9ABD00
02F2000600
02F2007000
02F200A000
02F98BC000
02F2003000
02F2000350
02F2000A30
3AFA9ACF10
ENDCHAR
STARTCHAR Ecircumflex
ENCODING 202
SWIDTH 626 0
DWIDTH 9 0
BBX 9 12 0 0
BITMAP
0006E60000
0039193000
0000000000
3AFA9ABD00
02F2000600
02F2007000
02F200A000
02F98BC000
02F2003000
02F2000350
02F2000A30
3AFA9ACF10
ENDCHAR
STARTCHAR Edieresis
ENCODING 203
SWIDTH 626 0
DWIDTH 9 0
BBX 9 12 0 0
BITMAP
0054045000
00A809A000
0000000000
3AFA9ABD00
02F2000600
02F2007000
02F200A000
02F98BC000
02F2003000
02F2000350
02F2000A30
3AFA9ACF10
ENDCHAR
STARTCHAR Igrave
ENCODING 204
SWIDTH 357 0
DWIDTH 5 0
BBX 5 12 0 0
BITMAP
0BB000
007700
000000
3BFA30
03F200
02F200
02F200
02F200
02F200
02F200
02F200
3AFA30
ENDCHAR
STARTCHAR Iacute
ENCODING 205
SWIDTH 357 0
DWIDTH 5 0
BBX 5 12 0 0
BITMAP
00BB00
077000
000000
3BFA30
03F200
02F200
02F200
02F200
02F200
02F200
02F200
3AFA30
ENDCHAR
STARTCHAR Icircumflex
ENCODING 206
SWIDTH 357 0
DWIDTH 5 0
BBX 5 12 0 0
BITMAP
06E600
391930
000000
3BFA30
03F200
02F200
02F200
02F200
02F200
02F200
02F200
3AFA30
ENDCHAR
STARTCHAR Idieresis
ENCODING 207
SWIDTH 357 0
DWIDTH 5 0
BBX 5 12 0 0
BITMAP
540450
A808A0
000000
3BFA30
03F200
02F200
02F200
02F200
02F200
02F200
02F200
3AFA30
ENDCHAR
STARTCHAR Eth
ENCODING 208
SWIDTH 737 0
DWIDTH 10 0
BBX 10 9 0 0
BITMAP
39FA89B500
01F3003E90
01F30006F3
01F30001F8
5BFCB600F9
01F30000F7
01F30004F3
01F3001C90
39FA99A500
ENDCHAR
STARTCHAR Ntilde
ENCODING 209
SWIDTH 742 0
DWIDTH 10 0
BBX 10 12 0 0
BITMAP
0005D82600
00061AD200
0000000000
4DF3002AF8
04FD1000C0
048DB000B0
0463F800B0
04605F50B0
046008E2B0
046000BDB0
0570001DB0
4CD50003A0
ENDCHAR
STARTCHAR Ograve
ENCODING 210
SWIDTH 738 0
DWIDTH 10 0
BBX 10 12 0 0
BITMAP
0002D60000
00001A3000
0000000000
003A99B700
04E3001CA0
0D800003F4
3F400000E8
4F300000D9
3F500000E7
0D800003F3
05E2000B90
004A99A600
ENDCHAR
STARTCHAR Oacute
ENCODING 211
SWIDTH 738 0
DWIDTH 10 0
BBX 10 12 0 0
BITMAP
00002E6000
0000A40000
0000000000
003A99B700
04E3001CA0
0D800003F4
3F400000E8
4F300000D9
3F500000E7
0D800003F3
05E2000B90
004A99A600
ENDCHAR
STARTCHAR Ocircumflex
ENCODING 212
SWIDTH 738 0
DWIDTH 10 0
BBX 10 12 0 0
BITMAP
0000AE2000
000752A100
0000000000
003A99B700
04E3001CA0
0D800003F4
3F400000E8
4F300000D9
3F500000E7
0D800003F3
05E2000B90
004A99A600
ENDCHAR
STARTCHAR Otilde
ENCODING 213
SWIDTH 738 0
DWIDTH 10 0
BBX 10 12 0 0
BITMAP
0006D72500
00062BC100
0000000000
003A99B700
04E3001CA0
0D800003F4
3F400000E8
4F300000D9
3F500000E7
0D800003F3
05E2000B90
004A99A600
ENDCHAR
STARTCHAR Odieresis
ENCODING 214
SWIDTH 738 0
DWIDTH 10 0
BBX 10 12 0 0
BITMAP
0007107200
001D40D500
0000000000
003A99B700
04E3001CA0
0D800003F4
3F400000E8
4F300000D9
3F500000E7
0D800003F3
05E2000B90
004A99A600
ENDCHAR
STARTCHAR multiply
ENCODING 215
SWIDTH 720 0
DWIDTH 10 0
BBX 8 9 1 -1
BITMAP
41000005
7C1000A9
08C10B90
008CB900
000DE100
00B98C10
0B9008C1
9900008B
20000002
ENDCHAR
STARTCHAR Oslash
ENCODING 216
SWIDTH 737 0
DWIDTH 10 0
BBX 10 9 0 0
BITMAP
003A99B770
05E2002F90
0D800095F3
3F400830F8
4F306400D9
3F447000F7
0EA80003F3
06F3001B90
095A99A600
ENDCHAR
STARTCHAR Ugrave
ENCODING 217
SWIDTH 752 0
DWIDTH 11 0
BBX 11 12 0 0
BITMAP
00009C000000
000006800000
000000000000
5CF92018F920
05E00000D000
05E00000C000
05E00000C000
05E00000C000
05E00000C000
04F10000B000
00EA10196000
003BEED70000
ENDCHAR
STARTCHAR Uacute
ENCODING 218
SWIDTH 752 0
DWIDTH 11 0
BBX 11 12 0 0
BITMAP
00000AC10000
000068000000
000000000000
5CF92018F920
05E00000D000
05E00000C000
05E00000C000
05E00000C000
05E00000C000
04F10000B000
00EA10196000
003BEED70000
ENDCHAR
STARTCHAR Ucircumflex
ENCODING 219
SWIDTH 752 0
DWIDTH 11 0
BBX 11 12 0 0
BITMAP
00004E700000
000291840000
000000000000
5CF92018F920
05E00000D000
05E00000C000
05E00000C000
05E00000C000
05E00000C000
04F10000B000
00EA10196000
003BEED70000
ENDCHAR
STARTCHAR Udieresis
ENCODING 220
SWIDTH 752 0
DWIDTH 11 0
BBX 11 12 0 0
BITMAP
000450350000
0008A07B0000
000000000000
5CF92018F920
05E00000D000
05E00000C000
05E00000C000
05E00000C000
05E00000C000
04F10000B000
00EA10196000
003BEED70000
ENDCHAR
STARTCHAR Yacute
ENCODING 221
SWIDTH 647 0
DWIDTH 9 0
BBX 10 12 0 0
BITMAP
00007D2000
0003A10000
0000000000
9FE5007F91
08F2005700
00CB00A000
003F573000
0008D90000
0001F30000
0001F30000
0001F30000
003AFB4000
ENDCHAR
STARTCHAR Thorn
ENCODING 222
SWIDTH 572 0
DWIDTH 8 0
BBX 8 9 0 0
BITMAP
3BFA4000
03F99930
02F205F4
02F200D8
02F200E7
02F205D2
02FA9820
02F20000
3AFB4000
ENDCHAR
STARTCHAR germandbls
ENCODING 223
SWIDTH 563 0
DWIDTH 8 0
BBX 8 10 0 0
BITMAP
00877A10
05A00A80
08900B60
5C928600
09918B20
099006D1
099000E6
099000D6
099850E3
5D96C860
ENDCHAR
STARTCHAR agrave
ENCODING 224
SWIDTH 480 0
DWIDTH 7 0
BBX 7 10 0 0
BITMAP
02D40000
002A0000
00000000
0779A000
2F00D400
0200C600
0287D600
2D10C600
6D01D610
2DC88D40
ENDCHAR
STARTCHAR aacute
ENCODING 225
SWIDTH 480 0
DWIDTH 7 0
BBX 7 10 0 0
BITMAP
000C7000
00480000
00000000
0779A000
2F00D400
0200C600
0287D600
2D10C600
6D01D610
2DC88D40
ENDCHAR
STARTCHAR acircumflex
ENCODING 226
SWIDTH 480 0
DWIDTH 7 0
BBX 7 10 0 0
BITMAP
009D2000
05619000
00000000
0779A000
2F00D400
0200C600
0287D600
2D10C600
6D01D610
2DC88D40
ENDCHAR
STARTCHAR atilde
ENCODING 227
SWIDTH 480 0
DWIDTH 7 0
BBX 7 10 0 0
BITMAP
05C73500
0519B100
00000000
0779A000
2F00D400
0200C600
0287D600
2D10C600
6D01D610
2DC88D40
ENDCHAR
STARTCHAR adieresis
ENCODING 228
SWIDTH 480 0
DWIDTH 7 0
BBX 7 10 0 0
BITMAP
0B30A400
0D50D600
00000000
0779A000
2F00D400
0200C600
0287D600
2D10C600
6D01D610
2DC88D40
ENDCHAR
STARTCHAR aring
ENCODING 229
SWIDTH 480 0
DWIDTH 7 0
BBX 7 10 0 0
BITMAP
00893000
02819000
00893000
0779A000
2F00D400
0200C600
0287D600
2D10C600
6D01D610
2DC88D40
ENDCHAR
STARTCHAR ae
ENCODING 230
SWIDTH 709 0
DWIDTH 10 0
BBX 10 7 0 0
BITMAP
0879888C60
2C00E602F2
0016EA88B4
0792E40000
4D00D70001
6D02CE4283
2DC81AEE50
ENDCHAR
STARTCHAR ccedilla
ENCODING 231
SWIDTH 446 0
DWIDTH 6 0
BBX 6 10 0 -3
BITMAP
03A9C4
1C109A
590001
790000
6C0001
2F7138
06DFB1
001B60
0001C0
006A60
ENDCHAR
STARTCHAR egrave
ENCODING 232
SWIDTH 464 0
DWIDTH 7 0
BBX 6 10 0 0
BITMAP
01C600
001B00
000000
049AB2
2B008B
6C889B
8A0000
6E0001
1EA238
04CFB1
ENDCHAR
STARTCHAR eacute
ENCODING 233
SWIDTH 464 0
DWIDTH 7 0
BBX 6 10 0 0
BITMAP
000AA0
002A00
000000
049AB2
2B008B
6C889B
8A0000
6E0001
1EA238
04CFB1
ENDCHAR
STARTCHAR ecircumflex
ENCODING 234
SWIDTH 464 0
DWIDTH 7 0
BBX 6 10 0 0
BITMAP
007D40
038191
000000
049AB2
2B008B
6C889B
8A0000
6E0001
1EA238
04CFB1
ENDCHAR
STARTCHAR edieresis
ENCODING 235
SWIDTH 464 0
DWIDTH 7 0
BBX 6 10 0 0
BITMAP
095086
0B70A8
000000
049AB2
2B008B
6C889B
8A0000
6E0001
1EA238
04CFB1
ENDCHAR
STARTCHAR igrave
ENCODING 236
SWIDTH 285 0
DWIDTH 4 0
BBX 4 10 0 0
BITMAP
7C00
0840
0000
4C90
0990
0990
0990
0990
0990
3DD4
ENDCHAR
STARTCHAR iacute
ENCODING 237
SWIDTH 285 0
DWIDTH 4 0
BBX 4 10 0 0
BITMAP
04D2
0A20
0000
4C90
0990
0990
0990
0990
0990
3DD4
ENDCHAR
STARTCHAR icircumflex
ENCODING 238
SWIDTH 285 0
DWIDTH 4 0
BBX 4 10 0 0
BITMAP
1E80
84A2
3013
4C90
0990
0990
0990
0990
0990
3DD4
ENDCHAR
STARTCHAR idieresis
ENCODING 239
SWIDTH 285 0
DWIDTH 4 0
BBX 5 9 -1 0
BITMAP
4D17B0
270460
04C900
009900
009900
009900
009900
009900
03DD40
ENDCHAR
STARTCHAR eth
ENCODING 240
SWIDTH 532 0
DWIDTH 7 0
BBX 7 10 0 0
BITMAP
059C8350
0016CB00
00111E20
03A89C70
1E200DA0
6D0009B0
8C0009B0
6D000B80
1E301E20
04B8A400
ENDCHAR
STARTCHAR ntilde
ENCODING 241
SWIDTH 576 0
DWIDTH 8 0
BBX 8 10 0 0
BITMAP
005C7350
0051AB10
00000000
4C87DD20
09C20B90
099007B0
099006B0
099006B0
099006B0
3DD43CE5
ENDCHAR
STARTCHAR ograve
ENCODING 242
SWIDTH 514 0
DWIDTH 7 0
BBX 7 10 0 0
BITMAP
009A0000
00093000
00000000
03A8A500
1E201E30
6D000A90
8C0009A0
6D000990
1E300D30
03B89500
ENDCHAR
STARTCHAR oacute
ENCODING 243
SWIDTH 514 0
DWIDTH 7 0
BBX 7 10 0 0
BITMAP
0006D100
000A1000
00000000
03A8A500
1E201E30
6D000A90
8C0009A0
6D000990
1E300D30
03B89500
ENDCHAR
STARTCHAR ocircumflex
ENCODING 244
SWIDTH 514 0
DWIDTH 7 0
BBX 7 10 0 0
BITMAP
003D7000
01917400
00000000
03A8A500
1E201E30
6D000A90
8C0009A0
6D000990
1E300D30
03B89500
ENDCHAR
STARTCHAR otilde
ENCODING 245
SWIDTH 514 0
DWIDTH 7 0
BBX 7 10 0 0
BITMAP
01AA3700
0515C500
00000000
03A8A500
1E201E30
6D000A90
8C0009A0
6D000990
1E300D30
03B89500
ENDCHAR
STARTCHAR odieresis
ENCODING 246
SWIDTH 514 0
DWIDTH 7 0
BBX 7 10 0 0
BITMAP
06905A00
07B06C00
00000000
03A8A500
1E201E30
6D000A90
8C0009A0
6D000990
1E300D30
03B89500
ENDCHAR
STARTCHAR divide
ENCODING 247
SWIDTH 720 0
DWIDTH 10 0
BBX 10 8 0 0
BITMAP
0000560000
00009A0000
0000000000
0000000000
2FFFFFFFF3
0000000000
0000450000
00009A0000
ENDCHAR
STARTCHAR oslash
ENCODING 248
SWIDTH 514 0
DWIDTH 7 0
BBX 7 7 0 0
BITMAP
03A9BB10
1E307E30
6D037A80
8C1809A0
6D910990
1E500D30
38B9A500
ENDCHAR
STARTCHAR ugrave
ENCODING 249
SWIDTH 570 0
DWIDTH 8 0
BBX 8 10 0 0
BITMAP
006D0000
00075000
00000000
5D705D90
0B700990
0B700990
0B700990
0B700990
09A01C90
03DC88C4
ENDCHAR
STARTCHAR uacute
ENCODING 250
SWIDTH 570 0
DWIDTH 8 0
BBX 8 10 0 0
BITMAP
0003E200
00093000
00000000
5D705D90
0B700990
0B700990
0B700990
0B700990
09A01C90
03DC88C4
ENDCHAR
STARTCHAR ucircumflex
ENCODING 251
SWIDTH 570 0
DWIDTH 8 0
BBX 8 10 0 0
BITMAP
001CA000
00925600
00000000
5D705D90
0B700990
0B700990
0B700990
0B700990
09A01C90
03DC88C4
ENDCHAR
STARTCHAR udieresis
ENCODING 252
SWIDTH 570 0
DWIDTH 8 0
BBX 8 10 0 0
BITMAP
03B03B00
05D04E10
00000000
5D705D90
0B700990
0B700990
0B700990
0B700990
09A01C90
03DC88C4
ENDCHAR
STARTCHAR yacute
ENCODING 253
SWIDTH 483 0
DWIDTH 7 0
BBX 8 13 -1 -3
BITMAP
00006D10
0000A100
00000000
1BF603D8
01F400B0
009A0370
002F2810
000A8900
0004E500
0000D000
00028000
043A2000
0BE50000
ENDCHAR
STARTCHAR thorn
ENCODING 254
SWIDTH 524 0
DWIDTH 7 0
BBX 7 13 0 -3
BITMAP
7D400000
0E400000
0D400000
0D6BEA10
0D913E80
0D4008C0
0D4007C0
0D4008A0
0D600C40
0DC9A500
0D400000
0D500000
7FB40000
ENDCHAR
STARTCHAR ydieresis
ENCODING 255
SWIDTH 483 0
DWIDTH 7 0
BBX 8 13 -1 -3
BITMAP
006905A0
007B06C0
00000000
1BF603D8
01F400B0
009A0370
002F2810
000A8900
0004E500
0000D000
00028000
043A2000
0BE50000
ENDCHAR
STARTCHAR Amacron
ENCODING 256
SWIDTH 718 0
DWIDTH 10 0
BBX 10 11 0 0
BITMAP
001CCCC000
0000000000
0000870000
0001DD0000
00074E5000
000A08C000
005502F400
00A999DB00
0380004F20
0A30000E90
8F80005EF8
ENDCHAR
STARTCHAR amacron
ENCODING 257
SWIDTH 480 0
DWIDTH 7 0
BBX 7 9 0 0
BITMAP
09BBB300
00000000
0779A000
2F00D400
0200C600
0287D600
2D10C600
6D01D610
2DC88D40
ENDCHAR
STARTCHAR Abreve
ENCODING 258
SWIDTH 718 0
DWIDTH 10 0
BBX 10 12 0 0
BITMAP
0019019000
0006DD5000
0000000000
0000870000
0001DD0000
00074E5000
000A08C000
005502F400
00A999DB00
0380004F20
0A30000E90
8F80005EF8
ENDCHAR
STARTCHAR abreve
ENCODING 259
SWIDTH 480 0
DWIDTH 7 0
BBX 7 11 0 0
BITMAP
01000000
08107200
03BB7000
00000000
0779A000
2F00D400
0200C600
0287D600
2D10C600
6D01D610
2DC88D40
ENDCHAR
STARTCHAR Aogonek
ENCODING 260
SWIDTH 719 0
DWIDTH 10 0
BBX 10 12 0 -3
BITMAP
0000870000
0001DD0000
00064E6000
000A08C000
004502F400
00A999DB00
0380004F30
0930000EA0
8F80006FF8
0000096000
00001D0000
00000CB600
ENDCHAR
STARTCHAR aogonek
ENCODING 261
SWIDTH 480 0
DWIDTH 7 0
BBX 7 10 0 -3
BITMAP
0779A000
2F00D400
0200C600
0397D600
3D10C600
6D01D610
2DC88E40
00007300
0003B010
0001DA40
ENDCHAR
STARTCHAR Cacute
ENCODING 262
SWIDTH 670 0
DWIDTH 9 0
BBX 9 12 0 0
BITMAP
00001D8000
0000950000
0000000000
003AAADF80
04E3000B80
0D80000380
3F40000020
4F30000000
3F40000000
0E90000000
05F7101670
004BEDC600
ENDCHAR
STARTCHAR cacute
ENCODING 263
SWIDTH 446 0
DWIDTH 6 0
BBX 6 10 0 0
BITMAP
000A90
002900
000000
0399C4
1C009A
690001
790000
7C0001
2F8238
05DFA1
ENDCHAR
STARTCHAR Ccircumflex
ENCODING 264
SWIDTH 670 0
DWIDTH 9 0
BBX 9 12 0 0
BITMAP
00009E3000
000671A100
0000000000
003AAADF80
04E3000B80
0D80000380
3F40000020
4F30000000
3F40000000
0E90000000
05F7101670
004BEDC600
ENDCHAR
STARTCHAR ccircumflex
ENCODING 265
SWIDTH 446 0
DWIDTH 6 0
BBX 6 10 0 0
BITMAP
007D30
037191
000000
0399C4
1C009A
690001
790000
7C0001
2F8238
05DFA1
ENDCHAR
STARTCHAR Cdotaccent
ENCODING 266
SWIDTH 670 0
DWIDTH 9 0
BBX 9 12 0 0
BITMAP
0000270000
00005D0000
0000000000
003AAADF80
04E3000B80
0D80000380
3F40000020
4F30000000
3F40000000
0E90000000
05F7101670
004BEDC600
ENDCHAR
STARTCHAR cdotaccent
ENCODING 267
SWIDTH 446 0
DWIDTH 6 0
BBX 6 10 0 0
BITMAP
003B00
004E10
000000
0399C4
1C009A
690001
790000
7C0001
2F8238
05DFA1
ENDCHAR
STARTCHAR Ccaron
ENCODING 268
SWIDTH 670 0
DWIDTH 9 0
BBX 9 12 0 0
BITMAP
000671A100
00009E3000
0000000000
003AAADF80
04E3000B80
0D80000380
3F40000020
4F30000000
3F40000000
0E90000000
05F7101670
004BEDC600
ENDCHAR
STARTCHAR ccaron
ENCODING 269
SWIDTH 446 0
DWIDTH 6 0
BBX 6 10 0 0
BITMAP
047191
007D30
000000
0399C4
1C009A
690001
790000
7C0001
2F8238
05DFA1
ENDCHAR
STARTCHAR Dcaron
ENCODING 270
SWIDTH 730 0
DWIDTH 10 0
BBX 10 12 0 0
BITMAP
001A256000
0002DA0000
0000000000
3AFA9AB500
02F2003E80
02F20006F2
02F20001F6
02F20000F7
02F20001F6
02F20004F2
02F2002D80
3AFA99A500
ENDCHAR
STARTCHAR dcaron
ENCODING 271
SWIDTH 626 0
DWIDTH 9 0
BBX 9 10 0 0
BITMAP
00007E3B60
00000F3B30
00000E3800
02A9AF3000
1D202F3000
5C000E3000
8B000E3000
7D000E3000
3F503F3000
07ED6DA100
ENDCHAR
STARTCHAR Dcroat
ENCODING 272
SWIDTH 733 0
DWIDTH 10 0
BBX 10 9 0 0
BITMAP
3AF999B500
02F2003E80
02F20007F2
02F20002F7
5BFBB600F8
02F20001F6
02F20005F2
02F2002D80
3AFA9AA500
ENDCHAR
STARTCHAR dcroat
ENCODING 273
SWIDTH 540 0
DWIDTH 8 0
BBX 8 10 0 0
BITMAP
00005E30
00188FA2
00000F30
02A9AF30
1D202F30
5C000F30
8B000F30
7D000F30
3F503F40
07ED6EA1
ENDCHAR
STARTCHAR Emacron
ENCODING 274
SWIDTH 626 0
DWIDTH 9 0
BBX 9 11 0 0
BITMAP
007CCC6000
0000000000
3AFA9ABD00
02F2000600
02F2007000
02F200A000
02F98BC000
02F2003000
02F2000350
02F2000A30
3AFA9ACF10
ENDCHAR
STARTCHAR emacron
ENCODING 275
SWIDTH 464 0
DWIDTH 7 0
BBX 6 9 0 0
BITMAP
07BBB5
000000
049AB2
2B008B
6C889B
8A0000
6E0001
1EA238
04CFB1
ENDCHAR
STARTCHAR Ebreve
ENCODING 276
SWIDTH 626 0
DWIDTH 9 0
BBX 9 12 0 0
BITMAP
0073046000
001BEB1000
0000000000
3AFA9ABD00
02F2000600
02F2007000
02F200A000
02F98BC000
02F2003000
02F2000350
02F2000A30
3AFA9ACF10
ENDCHAR
STARTCHAR ebreve
ENCODING 277
SWIDTH 464 0
DWIDTH 7 0
BBX 6 11 0 0
BITMAP
010001
072054
01AB80
000000
049AB2
2B008B
6C889B
8A0000
6E0001
1EA238
04CFB1
ENDCHAR
STARTCHAR Edotaccent
ENCODING 278
SWIDTH 626 0
DWIDTH 9 0
BBX 9 12 0 0
BITMAP
0001810000
0002D20000
0000000000
3AFA9ABD00
02F2000600
02F2007000
02F200A000
02F98BC000
02F2003000
02F2000350
02F2000A30
3AFA9ACF10
ENDCHAR
STARTCHAR edotaccent
ENCODING 279
SWIDTH 464 0
DWIDTH 7 0
BBX 6 10 0 0
BITMAP
003B10
003E10
000000
049AB2
2B008B
6C889B
8A0000
6E0001
1EA238
04CFB1
ENDCHAR
STARTCHAR Eogonek
ENCODING 280
SWIDTH 625 0
DWIDTH 9 0
BBX 9 12 0 -3
BITMAP
3AFA9ABD00
02F2000600
02F2008000
02F98BC000
02F2009000
02F2002000
02F2000230
02F2000930
3AFA9ACF10
0000018100
0000095000
000006D910
ENDCHAR
STARTCHAR eogonek
ENCODING 281
SWIDTH 464 0
DWIDTH 7 0
BBX 6 10 0 -3
BITMAP
049AB2
2B008B
6C889B
8A0000
6E0001
1EA238
04CFB1
001800
007601
005D92
ENDCHAR
STARTCHAR Ecaron
ENCODING 282
SWIDTH 626 0
DWIDTH 9 0
BBX 9 12 0 0
BITMAP
0039193000
0006E60000
0000000000
3AFA9ABD00
02F2000600
02F2007000
02F200A000
02F98BC000
02F2003000
02F2000350
02F2000A30
3AFA9ACF10
ENDCHAR
STARTCHAR ecaron
ENCODING 283
SWIDTH 464 0
DWIDTH 7 0
BBX 6 10 0 0
BITMAP
038191
007D40
000000
049AB2
2B008B
6C889B
8A0000
6E0001
1EA238
04CFB1
ENDCHAR
STARTCHAR Gcircumflex
ENCODING 284
SWIDTH 720 0
DWIDTH 10 0
BBX 10 12 0 0
BITMAP
00009E3000
000672A100
0000000000
003AAADF80
04E3000B80
0D80000380
3F40000020
4F30007BB4
3F40000AA0
0E80000AA0
06E4000BA0
005BBAB820
ENDCHAR
STARTCHAR gcircumflex
ENCODING 285
SWIDTH 484 0
DWIDTH 7 0
BBX 7 13 0 -3
BITMAP
007D4000
03819100
00000000
05AAFC70
2F10A900
4F007B00
1D40A800
08997000
4D210000
1DFFFD30
37000770
A9000840
4DECA400
ENDCHAR
STARTCHAR Gbreve
ENCODING 286
SWIDTH 720 0
DWIDTH 10 0
BBX 10 12 0 0
BITMAP
0008107300
0003CE9000
0000000000
003AAADF80
04E3000B80
0D80000380
3F40000020
4F30007BB4
3F40000AA0
0E80000AA0
06E4000BA0
005BBAB820
ENDCHAR
STARTCHAR gbreve
ENCODING 287
SWIDTH 484 0
DWIDTH 7 0
BBX 7 14 0 -3
BITMAP
01000100
07205400
01AB8000
00000000
05AAFC70
2F10A900
4F007B00
1D40A800
08997000
4D210000
1DFFFD30
37000770
A9000840
4DECA400
ENDCHAR
STARTCHAR Gdotaccent
ENCODING 288
SWIDTH 720 0
DWIDTH 10 0
BBX 10 12 0 0
BITMAP
0000270000
00005D0000
0000000000
003AAADF80
04E3000B80
0D80000380
3F40000020
4F30007BB4
3F40000AA0
0E80000AA0
06E4000BA0
005BBAB820
ENDCHAR
STARTCHAR gdotaccent
ENCODING 289
SWIDTH 484 0
DWIDTH 7 0
BBX 7 13 0 -3
BITMAP
003B1000
003E1000
00000000
05AAFC70
2F10A900
4F007B00
1D40A800
08997000
4D210000
1DFFFD30
37000770
A9000840
4DECA400
ENDCHAR
STARTCHAR Gcommaaccent
ENCODING 290
SWIDTH 720 0
DWIDTH 10 0
BBX 10 13 0 -4
BITMAP
003AAADF80
04E3000B80
0D80000380
3F40000020
4F30007BB4
3F40000AA0
0E80000AA0
06E4000BA0
005BBAB820
0000890000
0000AE0000
0000090000
0000510000
ENDCHAR
STARTCHAR gcommaaccent
ENCODING 291
SWIDTH 484 0
DWIDTH 7 0
BBX 7 15 0 -3
BITMAP
00031000
00460000
008C1000
005E2000
00000000
05AAFC70
2F10A900
4F007B00
1D40A800
08997000
4D210000
1DFFFD30
37000770
A9000840
4DECA400
ENDCHAR
STARTCHAR Hcircumflex
ENCODING 292
SWIDTH 777 0
DWIDTH 11 0
BBX 11 12 0 0
BITMAP
00006E600000
000391930000
000000000000
3BFA304CF920
03F20004F100
02F20004F000
02F20004F000
02F9888AF000
02F20004F000
02F20004F000
02F20004F000
3AFA304BF920
ENDCHAR
STARTCHAR hcircumflex
ENCODING 293
SWIDTH 577 0
DWIDTH 8 0
BBX 8 12 0 0
BITMAP
002EA000
01A26700
5C800000
09800000
09800000
0997EC20
09C30B90
098007B0
098006B0
098006B0
099006B0
4DD43CE5
ENDCHAR
STARTCHAR Hbar
ENCODING 294
SWIDTH 788 0
DWIDTH 11 0
BBX 11 9 0 0
BITMAP
3AFB404BFA30
01F40003F200
49FA888AF940
01F30003F100
01FA888AF100
01F30003F100
01F30003F100
01F30003F200
3AFB404BFA30
ENDCHAR
STARTCHAR hbar
ENCODING 295
SWIDTH 579 0
DWIDTH 8 0
BBX 8 10 0 0
BITMAP
5C900000
0A900000
6CC97000
0997ED20
09D30B90
099007B0
099006C0
099006C0
099006C0
4DD43BE6
ENDCHAR
STARTCHAR Itilde
ENCODING 296
SWIDTH 357 0
DWIDTH 5 0
BBX 5 12 0 0
BITMAP
3DA270
618D40
000000
3BFA30
03F200
02F200
02F200
02F200
02F200
02F200
02F200
3AFA30
ENDCHAR
STARTCHAR itilde
ENCODING 297
SWIDTH 285 0
DWIDTH 4 0
BBX 4 9 0 0
BITMAP
BED8
0000
4C90
0990
0990
0990
0990
0990
3DD4
ENDCHAR
STARTCHAR Imacron
ENCODING 298
SWIDTH 357 0
DWIDTH 5 0
BBX 5 11 0 0
BITMAP
7CCC70
000000
3BFA30
03F200
02F200
02F200
02F200
02F200
02F200
02F200
3AFA30
ENDCHAR
STARTCHAR imacron
ENCODING 299
SWIDTH 285 0
DWIDTH 4 0
BBX 5 9 -1 0
BITMAP
1CCC70
000000
04C900
009900
009900
009900
009900
009900
03DD40
ENDCHAR
STARTCHAR Ibreve
ENCODING 300
SWIDTH 357 0
DWIDTH 5 0
BBX 5 12 0 0
BITMAP
730360
1BEB10
000000
3BFA30
03F200
02F200
02F200
02F200
02F200
02F200
02F200
3AFA30
ENDCHAR
STARTCHAR ibreve
ENCODING 301
SWIDTH 285 0
DWIDTH 4 0
BBX 4 10 0 0
BITMAP
8027
6DB1
0000
4C90
0990
0990
0990
0990
0990
3DD4
ENDCHAR
STARTCHAR Iogonek
ENCODING 302
SWIDTH 357 0
DWIDTH 5 0
BBX 5 12 0 -3
BITMAP
3BFA30
03F200
02F200
02F200
02F200
02F200
02F200
02F200
3AFA30
028000
0A3000
08C810
ENDCHAR
STARTCHAR iogonek
ENCODING 303
SWIDTH 285 0
DWIDTH 4 0
BBX 4 13 0 -3
BITMAP
0990
0550
0000
4C90
0990
0990
0990
0990
0990
3DD4
0820
4900
3DA3
ENDCHAR
STARTCHAR Idotaccent
ENCODING 304
SWIDTH 357 0
DWIDTH 5 0
BBX 5 12 0 0
BITMAP
018100
02E200
000000
3BFA30
03F200
02F200
02F200
02F200
02F200
02F200
02F200
3AFA30
ENDCHAR
STARTCHAR dotlessi
ENCODING 305
SWIDTH 285 0
DWIDTH 4 0
BBX 4 7 0 0
BITMAP
4C90
0990
0990
0990
0990
0990
3DD4
ENDCHAR
STARTCHAR IJ
ENCODING 306
SWIDTH 753 0
DWIDTH 11 0
BBX 11 9 0 0
BITMAP
3BFA305CF920
03F20005F000
02F20005F000
02F20005F000
02F20005F000
02F20005F000
02F20005F000
02F20925D000
3AFA3ACA5000
ENDCHAR
STARTCHAR ij
ENCODING 307
SWIDTH 548 0
DWIDTH 8 0
BBX 7 12 0 -3
BITMAP
09A00A80
05500640
4C905C80
09900980
09900980
09900980
09900980
09900980
3DD40980
00000970
00270B40
002DA800
ENDCHAR
STARTCHAR Jcircumflex
ENCODING 308
SWIDTH 396 0
DWIDTH 6 0
BBX 6 12 0 0
BITMAP
008E40
0571A1
000000
05CF92
005F00
005F00
005F00
005F00
005F00
005F00
925D00
ACA500
ENDCHAR
STARTCHAR jcircumflex
ENCODING 309
SWIDTH 263 0
DWIDTH 4 0
BBX 6 13 -2 -3
BITMAP
002DA0
009256
000000
004C80
000980
000980
000980
000980
000980
000980
000970
280A40
2DB800
ENDCHAR
STARTCHAR Kcommaaccent
ENCODING 310
SWIDTH 702 0
DWIDTH 10 0
BBX 10 13 0 -4
BITMAP
3BFA32CF81
03F201B300
02F21A2000
02F3A20000
02FCA00000
02F4DA0000
02F21CB000
02F201DB10
3AFA32BFC5
0000970000
0000CD0000
0000190000
0000510000
ENDCHAR
STARTCHAR kcommaaccent
ENCODING 311
SWIDTH 542 0
DWIDTH 8 0
BBX 8 14 0 -4
BITMAP
4C800000
09800000
09800000
09809E80
0981A200
09992000
09CE3000
0987E200
09909C10
4DD44FC4
000B6000
000DB000
00028000
00060000
ENDCHAR
STARTCHAR kgreenlandic
ENCODING 312
SWIDTH 542 0
DWIDTH 8 0
BBX 8 7 0 0
BITMAP
4C908FA0
09909500
09985000
09DE2000
0999D100
0990AC10
4DD44FC4
ENDCHAR
STARTCHAR Lacute
ENCODING 313
SWIDTH 585 0
DWIDTH 8 0
BBX 8 12 0 0
BITMAP
003E5000
01B30000
00000000
3AFB4000
03F30000
02F20000
02F20000
02F20000
02F20000
02F20006
03F2001B
3AFB9AE9
ENDCHAR
STARTCHAR lacute
ENCODING 314
SWIDTH 283 0
DWIDTH 4 0
BBX 4 13 0 0
BITMAP
02E6
0A30
0000
4C80
0980
0980
0980
0980
0980
0980
0980
0990
4DD4
ENDCHAR
STARTCHAR Lcommaaccent
ENCODING 315
SWIDTH 585 0
DWIDTH 8 0
BBX 8 13 0 -4
BITMAP
3AFB4000
03F30000
02F20000
02F20000
02F20000
02F20000
02F20006
03F2001B
3AFB9AE9
00079000
000AF000
00009000
00051000
ENDCHAR
STARTCHAR lcommaaccent
ENCODING 316
SWIDTH 283 0
DWIDTH 4 0
BBX 4 14 0 -4
BITMAP
4C80
0980
0980
0980
0980
0980
0980
0980
0990
4DD4
0980
0BD0
0190
0510
ENDCHAR
STARTCHAR Lcaron
ENCODING 317
SWIDTH 585 0
DWIDTH 8 0
BBX 8 9 0 0
BITMAP
3AFB41F1
03F302C0
02F20250
02F20000
02F20000
02F20000
02F20006
03F2001B
3AFB9AE9
ENDCHAR
STARTCHAR lcaron
ENCODING 318
SWIDTH 366 0
DWIDTH 5 0
BBX 5 10 0 0
BITMAP
4C85C0
098680
098620
098000
098000
098000
098000
098000
099000
4DD400
ENDCHAR
STARTCHAR Ldot
ENCODING 319
SWIDTH 605 0
DWIDTH 8 0
BBX 8 9 0 0
BITMAP
3AFB4000
03F30000
02F20000
02F200A4
02F200D5
02F20000
02F20006
03F2001B
3AFB9AE9
ENDCHAR
STARTCHAR ldot
ENCODING 320
SWIDTH 357 0
DWIDTH 5 0
BBX 6 10 0 0
BITMAP
4C8000
098000
098000
098000
0982C1
0982E2
098000
098000
099000
4DD400
ENDCHAR
STARTCHAR Lslash
ENCODING 321
SWIDTH 590 0
DWIDTH 8 0
BBX 8 9 0 0
BITMAP
2AFC4000
01F40000
01F31300
01F88200
04F50000
46F30000
01F30005
01F3001B
29FC9ADA
ENDCHAR
STARTCHAR lslash
ENCODING 322
SWIDTH 290 0
DWIDTH 4 0
BBX 4 10 0 0
BITMAP
4B90
0890
0890
08A6
08C2
6C90
1890
0890
08A0
3CD5
ENDCHAR
STARTCHAR Nacute
ENCODING 323
SWIDTH 742 0
DWIDTH 10 0
BBX 10 12 0 0
BITMAP
00001D8000
0000950000
0000000000
4DF3002AF8
04FD1000C0
048DB000B0
0463F800B0
04605F50B0
046008E2B0
046000BDB0
0570001DB0
4CD50003A0
ENDCHAR
STARTCHAR nacute
ENCODING 324
SWIDTH 576 0
DWIDTH 8 0
BBX 8 10 0 0
BITMAP
0000C700
00048000
00000000
4C87DD20
09C20B90
099007B0
099006B0
099006B0
099006B0
3DD43CE5
ENDCHAR
STARTCHAR Ncommaaccent
ENCODING 325
SWIDTH 742 0
DWIDTH 10 0
BBX 10 13 0 -4
BITMAP
4DF3002AF8
04FD1000C0
048DB000B0
0463F800B0
04605F50B0
046008E2B0
046000BDB0
0570001DB0
4CD50003A0
0000890000
0000AE0000
0000090000
0000510000
ENDCHAR
STARTCHAR ncommaaccent
ENCODING 326
SWIDTH 576 0
DWIDTH 8 0
BBX 8 11 0 -4
BITMAP
4C87DD20
09C20B90
099007B0
099006B0
099006B0
099006B0
3DD43CE5
00097000
000CD000
00019000
00051000
ENDCHAR
STARTCHAR Ncaron
ENCODING 327
SWIDTH 742 0
DWIDTH 10 0
BBX 10 12 0 0
BITMAP
0005719100
00009E3000
0000000000
4DF3002AF8
04FD1000C0
048DB000B0
0463F800B0
04605F50B0
046008E2B0
046000BDB0
0570001DB0
4CD50003A0
ENDCHAR
STARTCHAR ncaron
ENCODING 328
SWIDTH 576 0
DWIDTH 8 0
BBX 8 10 0 0
BITMAP
00561900
0009D200
00000000
4C87DD20
09C20B90
099007B0
099006B0
099006B0
099006B0
3DD43CE5
ENDCHAR
STARTCHAR napostrophe
ENCODING 329
SWIDTH 576 0
DWIDTH 8 0
BBX 10 10 -2 0
BITMAP
D900000000
8B00000000
4700000000
404C87DD20
0009C20B90
00099007B0
00099006B0
00099006B0
00099006B0
003DD43CE5
ENDCHAR
STARTCHAR Eng
ENCODING 330
SWIDTH 742 0
DWIDTH 10 0
BBX 10 12 0 -3
BITMAP
4DF3002AF8
04FD1000C0
048EA000B0
0464F700B0
04607F40B0
04600AE1B0
046001DBB0
0570003EB0
4CD50005B0
00000000A0
0000191280
00001CCA10
ENDCHAR
STARTCHAR eng
ENCODING 331
SWIDTH 559 0
DWIDTH 8 0
BBX 7 10 0 -3
BITMAP
4C87DD20
09C20B90
099007B0
099006B0
099006B0
099006B0
3DD406B0
000006A0
00181870
001CC910
ENDCHAR
STARTCHAR Omacron
ENCODING 332
SWIDTH 738 0
DWIDTH 10 0
BBX 10 11 0 0
BITMAP
000ACCC300
0000000000
003A99B700
04E3001CA0
0D800003F4
3F400000E8
4F300000D9
3F500000E7
0D800003F3
05E2000B90
004A99A600
ENDCHAR
STARTCHAR omacron
ENCODING 333
SWIDTH 514 0
DWIDTH 7 0
BBX 7 9 0 0
BITMAP
04BBB800
00000000
03A8A500
1E201E30
6D000A90
8C0009A0
6D000990
1E300D30
03B89500
ENDCHAR
STARTCHAR Obreve
ENCODING 334
SWIDTH 738 0
DWIDTH 10 0
BBX 10 12 0 0
BITMAP
0009108200
0004DD7000
0000000000
003A99B700
04E3001CA0
0D800003F4
3F400000E8
4F300000D9
3F500000E7
0D800003F3
05E2000B90
004A99A600
ENDCHAR
STARTCHAR obreve
ENCODING 335
SWIDTH 514 0
DWIDTH 7 0
BBX 7 11 0 0
BITMAP
01000100
04502700
008BA100
00000000
03A8A500
1E201E30
6D000A90
8C0009A0
6D000990
1E300D30
03B89500
ENDCHAR
STARTCHAR Ohungarumlaut
ENCODING 336
SWIDTH 738 0
DWIDTH 10 0
BBX 10 12 0 0
BITMAP
00005B6B10
0001A2A100
0000000000
003A99B700
04E3001CA0
0D800003F4
3F400000E8
4F300000D9
3F500000E7
0D800003F3
05E2000B90
004A99A600
ENDCHAR
STARTCHAR ohungarumlaut
ENCODING 337
SWIDTH 514 0
DWIDTH 7 0
BBX 7 11 0 0
BITMAP
00021210
001E6E20
00758300
00000000
03A8A500
1E201E30
6D000A90
8C0009A0
6D000990
1E300D30
03B89500
ENDCHAR
STARTCHAR OE
ENCODING 338
SWIDTH 945 0
DWIDTH 13 0
BBX 13 9 0 0
BITMAP
003A9AEEAAAE50
04E3008B000240
0D80008B005400
3F40008D99E400
4F30008B005400
3F40008B001100
0E80008B000080
05E3009B0003A0
004A99ED99AE80
ENDCHAR
STARTCHAR oe
ENCODING 339
SWIDTH 807 0
DWIDTH 11 0
BBX 11 7 0 0
BITMAP
03A8B4689A10
1E202EA00A80
6D000CC88A90
8C000A900000
6D000BC00010
1E301DF81470
03B8935DFA00
ENDCHAR
STARTCHAR Racute
ENCODING 340
SWIDTH 659 0
DWIDTH 9 0
BBX 10 12 0 0
BITMAP
0001C90000
0008600000
0000000000
3AFA8B8100
03F201E800
02F200C900
02F204E300
02FADA1000
02F25E3000
02F20AD100
03F301E900
2AFA305F92
ENDCHAR
STARTCHAR racute
ENCODING 341
SWIDTH 380 0
DWIDTH 5 0
BBX 6 10 0 0
BITMAP
004D20
00A200
000000
4C88E2
09C471
099000
099000
099000
099000
4DD600
ENDCHAR
STARTCHAR Rcommaaccent
ENCODING 342
SWIDTH 659 0
DWIDTH 9 0
BBX 10 13 0 -4
BITMAP
3AFA8B8100
03F201E800
02F200C900
02F204E300
02FADA1000
02F25E3000
02F20AD100
03F301E900
2AFA305F92
0001C40000
0002E90000
0000460000
0001500000
ENDCHAR
STARTCHAR rcommaaccent
ENCODING 343
SWIDTH 380 0
DWIDTH 5 0
BBX 6 11 0 -4
BITMAP
4C88E2
09C471
099000
099000
099000
099000
4DD600
06B000
08F200
009000
042000
ENDCHAR
STARTCHAR Rcaron
ENCODING 344
SWIDTH 659 0
DWIDTH 9 0
BBX 10 12 0 0
BITMAP
0048192000
0008E40000
0000000000
3AFA8B8100
03F201E800
02F200C900
02F204E300
02FADA1000
02F25E3000
02F20AD100
03F301E900
2AFA305F92
ENDCHAR
STARTCHAR rcaron
ENCODING 345
SWIDTH 380 0
DWIDTH 5 0
BBX 6 10 0 0
BITMAP
091650
02D900
000000
4C88E2
09C471
099000
099000
099000
099000
4DD600
ENDCHAR
STARTCHAR Sacute
ENCODING 346
SWIDTH 504 0
DWIDTH 7 0
BBX 7 12 0 0
BITMAP
000BB000
00770000
00000000
05AADF10
3E101D20
4F200620
0BE60000
007ED400
0002BF30
71000D80
78000D60
6FCAB800
ENDCHAR
STARTCHAR sacute
ENCODING 347
SWIDTH 394 0
DWIDTH 6 0
BBX 6 10 0 0
BITMAP
003E20
009300
000000
198990
690090
4F7020
06ED30
301AE1
7401F1
6A8A70
ENDCHAR
STARTCHAR Scircumflex
ENCODING 348
SWIDTH 504 0
DWIDTH 7 0
BBX 7 12 0 0
BITMAP
006E6000
03919300
00000000
05AADF10
3E101D20
4F200620
0BE60000
007ED400
0002BF30
71000D80
78000D60
6FCAB800
ENDCHAR
STARTCHAR scircumflex
ENCODING 349
SWIDTH 394 0
DWIDTH 6 0
BBX 6 10 0 0
BITMAP
02DA00
092560
000000
198990
690090
4F7020
06ED30
301AE1
7401F1
6A8A70
ENDCHAR
STARTCHAR uni015E
ENCODING 350
SWIDTH 504 0
DWIDTH 7 0
BBX 7 12 0 -3
BITMAP
05AADF10
3E101D20
4F200620
0BE60000
007ED400
0002BF30
71000D80
78000D60
6FCDB800
001A6000
0001C000
00594000
ENDCHAR
STARTCHAR uni015F
ENCODING 351
SWIDTH 394 0
DWIDTH 6 0
BBX 6 10 0 -3
BITMAP
198990
690090
4F7020
06ED30
301AE1
7401F1
6ABA70
009900
000C10
038700
ENDCHAR
STARTCHAR Scaron
ENCODING 352
SWIDTH 504 0
DWIDTH 7 0
BBX 7 12 0 0
BITMAP
02918400
005E7000
00000000
05AADF10
3E101D20
4F200620
0BE60000
007ED400
0002BF30
71000D80
78000D60
6FCAB800
ENDCHAR
STARTCHAR scaron
ENCODING 353
SWIDTH 394 0
DWIDTH 6 0
BBX 6 10 0 0
BITMAP
091550
02D900
000000
198990
690090
4F7020
06ED30
301AE1
7401F1
6A8A70
ENDCHAR
STARTCHAR uni0162
ENCODING 354
SWIDTH 603 0
DWIDTH 8 0
BBX 9 12 0 -3
BITMAP
ADACEABF20
A107D00830
3007D00210
0007D00000
0007D00000
0007D00000
0007D00000
0007D00000
005EF82000
0004A40000
0000490000
0007930000
ENDCHAR
STARTCHAR uni0163
ENCODING 355
SWIDTH 315 0
DWIDTH 4 0
BBX 5 12 0 -3
BITMAP
027000
0B7000
4DC900
0B7000
0B7000
0B7000
0B7000
0A8120
05FA00
00A800
000D00
049600
ENDCHAR
STARTCHAR Tcaron
ENCODING 356
SWIDTH 603 0
DWIDTH 8 0
BBX 9 12 0 0
BITMAP
00662A1000
000AE30000
0000000000
ADACEABF20
A107D00830
3007D00210
0007D00000
0007D00000
0007D00000
0007D00000
0007D00000
005DF82000
ENDCHAR
STARTCHAR tcaron
ENCODING 357
SWIDTH 353 0
DWIDTH 5 0
BBX 5 10 0 0
BITMAP
0006B0
027780
0B7620
4DC900
0B7000
0B7000
0B7000
0B7000
0A8120
05EA00
ENDCHAR
STARTCHAR Tbar
ENCODING 358
SWIDTH 603 0
DWIDTH 8 0
BBX 9 9 0 0
BITMAP
ADACEABF20
9007D00730
0007D00000
028BE86000
0007D00000
0007D00000
0007D00000
0007E00000
005DF82000
ENDCHAR
STARTCHAR tbar
ENCODING 359
SWIDTH 328 0
DWIDTH 5 0
BBX 5 9 0 0
BITMAP
027000
0A7000
3DC910
0A7000
4DC910
0A7000
0A7000
0A8120
05EA10
ENDCHAR
STARTCHAR Utilde
ENCODING 360
SWIDTH 752 0
DWIDTH 11 0
BBX 11 12 0 0
BITMAP
0002DB270000
000617D50000
000000000000
5CF92018F920
05E00000D000
05E00000C000
05E00000C000
05E00000C000
05E00000C000
04F10000B000
00EA10196000
003BEED70000
ENDCHAR
STARTCHAR utilde
ENCODING 361
SWIDTH 570 0
DWIDTH 8 0
BBX 8 10 0 0
BITMAP
009B4710
0324C700
00000000
5D705D90
0B700990
0B700990
0B700990
0B700990
09A01C90
03DC88C4
ENDCHAR
STARTCHAR Umacron
ENCODING 362
SWIDTH 752 0
DWIDTH 11 0
BBX 11 11 0 0
BITMAP
0005CCC80000
000000000000
5CF92018F920
05E00000D000
05E00000C000
05E00000C000
05E00000C000
05E00000C000
04F10000B000
00EA10196000
003BEED70000
ENDCHAR
STARTCHAR umacron
ENCODING 363
SWIDTH 570 0
DWIDTH 8 0
BBX 8 9 0 0
BITMAP
02BBBA00
00000000
5D705D90
0B700990
0B700990
0B700990
0B700990
09A01C90
03DC88C4
ENDCHAR
STARTCHAR Ubreve
ENCODING 364
SWIDTH 752 0
DWIDTH 11 0
BBX 11 12 0 0
BITMAP
000640370000
0001AEB10000
000000000000
5CF92018F920
05E00000D000
05E00000C000
05E00000C000
05E00000C000
05E00000C000
04F10000B000
00EA10196000
003BEED70000
ENDCHAR
STARTCHAR ubreve
ENCODING 365
SWIDTH 570 0
DWIDTH 8 0
BBX 8 11 0 0
BITMAP
00000100
01701800
006BB300
00000000
5D705D90
0B700990
0B700990
0B700990
0B700990
09A01C90
03DC88C4
ENDCHAR
STARTCHAR Uring
ENCODING 366
SWIDTH 752 0
DWIDTH 11 0
BBX 11 13 0 0
BITMAP
000059600000
0000A0A00000
000058600000
000000000000
5CF92018F920
05E00000D000
05E00000C000
05E00000C000
05E00000C000
05E00000C000
04F10000B000
00EA10196000
003BEED70000
ENDCHAR
STARTCHAR uring
ENCODING 367
SWIDTH 570 0
DWIDTH 8 0
BBX 8 10 0 0
BITMAP
00298000
00827300
00298000
5D705D90
0B700990
0B700990
0B700990
0B700990
09A01C90
03DC88C4
ENDCHAR
STARTCHAR Uhungarumlaut
ENCODING 368
SWIDTH 752 0
DWIDTH 11 0
BBX 11 12 0 0
BITMAP
00001B5B5000
000075750000
000000000000
5CF92018F920
05E00000D000
05E00000C000
05E00000C000
05E00000C000
05E00000C000
04F10000B000
00EA10196000
003BEED70000
ENDCHAR
STARTCHAR uhungarumlaut
ENCODING 369
SWIDTH 570 0
DWIDTH 8 0
BBX 8 11 0 0
BITMAP
00012210
000D6E40
00476500
00000000
5D705D90
0B700990
0B700990
0B700990
0B700990
09A01C90
03DC88C4
ENDCHAR
STARTCHAR Uogonek
ENCODING 370
SWIDTH 753 0
DWIDTH 11 0
BBX 11 12 0 -3
BITMAP
5CF92018F920
05E00000D000
05E00000C000
05E00000C000
05E00000C000
05E00000C000
04F10000C000
00EA10198000
003BEEE90000
000008200000
00004A010000
00002DA30000
ENDCHAR
STARTCHAR uogonek
ENCODING 371
SWIDTH 570 0
DWIDTH 8 0
BBX 8 10 0 -3
BITMAP
5D705D90
0B700990
0B700990
0B700990
0B700990
09B02C90
02DD88C4
00003700
0000C200
00009C80
ENDCHAR
STARTCHAR Wcircumflex
ENCODING 372
SWIDTH 944 0
DWIDTH 13 0
BBX 15 12 -1 0
BITMAP
0000007E50000000
0000048192000000
0000000000000000
1AFC33BFA205EB10
00CB001F5000C100
005F200AB0029000
000E800CF2074000
0008E037D80B0000
0002F5917E380000
0000BB901FC30000
00005F400AD00000
00000B0004700000
ENDCHAR
STARTCHAR wcircumflex
ENCODING 373
SWIDTH 749 0
DWIDTH 10 0
BBX 12 10 -1 0
BITMAP
000009D20000
000056190000
000000000000
2BF62BF506E5
01F402F20290
00A902E70730
004E186C0900
000D681E4700
0008D40AD200
0002D005B000
ENDCHAR
STARTCHAR Ycircumflex
ENCODING 374
SWIDTH 647 0
DWIDTH 9 0
BBX 10 12 0 0
BITMAP
0002EA0000
001A266000
0000000000
9FE5007F91
08F2005700
00CB00A000
003F573000
0008D90000
0001F30000
0001F30000
0001F30000
003AFB4000
ENDCHAR
STARTCHAR ycircumflex
ENCODING 375
SWIDTH 483 0
DWIDTH 7 0
BBX 8 13 -1 -3
BITMAP
0003D700
00191740
00000000
1BF603D8
01F400B0
009A0370
002F2810
000A8900
0004E500
0000D000
00028000
043A2000
0BE50000
ENDCHAR
STARTCHAR Ydieresis
ENCODING 376
SWIDTH 647 0
DWIDTH 9 0
BBX 10 12 0 0
BITMAP
0036027000
006C05D000
0000000000
9FE5007F91
08F2005700
00CB00A000
003F573000
0008D90000
0001F30000
0001F30000
0001F30000
003AFB4000
ENDCHAR
STARTCHAR Zacute
ENCODING 377
SWIDTH 594 0
DWIDTH 8 0
BBX 8 12 0 0
BITMAP
0000C900
00086000
00000000
0FCAAAFB
190007E2
12003F50
0001D900
000AD100
006F3000
02E70004
0CB0001A
7FCAABE9
ENDCHAR
STARTCHAR zacute
ENCODING 378
SWIDTH 458 0
DWIDTH 6 0
BBX 6 10 0 0
BITMAP
000A90
002900
000000
4D99EC
5403F3
100D80
008C00
03F303
0C800A
7FA9CD
ENDCHAR
STARTCHAR Zdotaccent
ENCODING 379
SWIDTH 594 0
DWIDTH 8 0
BBX 8 12 0 0
BITMAP
00018000
0004D100
00000000
0FCAAAFB
190007E2
12003F50
0001D900
000AD100
006F3000
02E70004
0CB0001A
7FCAABE9
ENDCHAR
STARTCHAR zdotaccent
ENCODING 380
SWIDTH 458 0
DWIDTH 6 0
BBX 6 10 0 0
BITMAP
003B00
004E10
000000
4D99EC
5403F3
100D80
008C00
03F303
0C800A
7FA9CD
ENDCHAR
STARTCHAR Zcaron
ENCODING 381
SWIDTH 594 0
DWIDTH 8 0
BBX 8 12 0 0
BITMAP
00481920
0007E400
00000000
0FCAAAFB
190007E2
12003F50
0001D900
000AD100
006F3000
02E70004
0CB0001A
7FCAABE9
ENDCHAR
STARTCHAR zcaron
ENCODING 382
SWIDTH 458 0
DWIDTH 6 0
BBX 6 10 0 0
BITMAP
047191
007D30
000000
4D99EC
5403F3
100D80
008C00
03F303
0C800A
7FA9CD
ENDCHAR
STARTCHAR longs
ENCODING 383
SWIDTH 285 0
DWIDTH 4 0
BBX 6 10 0 0
BITMAP
008AD2
05A051
089000
6C9000
099000
099000
099000
099000
099000
5DE700
ENDCHAR
STARTCHAR uni0180
ENCODING 384
SWIDTH 522 0
DWIDTH 7 0
BBX 7 10 0 0
BITMAP
4E400000
8EA88000
0D400000
0D5BEA10
0D912E70
0D4009B0
0D4007C0
0D400990
0D500D30
08C99500
ENDCHAR
STARTCHAR uni0188
ENCODING 392
SWIDTH 446 0
DWIDTH 6 0
BBX 8 9 0 0
BITMAP
000019D4
00006333
0399E400
1C009A00
69000100
79000000
7C000100
2F823800
05DFA100
ENDCHAR
STARTCHAR uni0190
ENCODING 400
SWIDTH 518 0
DWIDTH 7 0
BBX 7 9 0 0
BITMAP
07A9BC40
3F200860
1D600000
01BEB000
0B800000
5F100000
6F000010
3F710570
06CED700
ENDCHAR
STARTCHAR uni0192
ENCODING 402
SWIDTH 301 0
DWIDTH 4 0
BBX 8 13 -2 -3
BITMAP
00009AC2
00069051
00098000
006CC820
00098000
00098000
00098000
00098000
00098000
00098000
00097000
170A5000
1C990000
ENDCHAR
STARTCHAR uni0195
ENCODING 405
SWIDTH 798 0
DWIDTH 11 0
BBX 11 10 0 0
BITMAP
5C8000000000
098000000000
098000000000
0998EC104C00
09C21D701C50
098009900570
098008900270
098008900350
099007C00810
4DD401CDB400
ENDCHAR
STARTCHAR uni0199
ENCODING 409
SWIDTH 538 0
DWIDTH 8 0
BBX 8 10 0 0
BITMAP
0078E700
05803300
09800000
0A80AE70
0A81A200
0A8A1000
0ACE3000
0A88D100
0A80AC10
4DC35FC3
ENDCHAR
STARTCHAR uni019A
ENCODING 410
SWIDTH 287 0
DWIDTH 4 0
BBX 4 10 0 0
BITMAP
4C90
0990
0990
0990
4CC5
0990
0990
0990
0990
4DD4
ENDCHAR
STARTCHAR uni019B
ENCODING 411
SWIDTH 495 0
DWIDTH 7 0
BBX 8 10 -1 0
BITMAP
06EA0200
0246A700
0058A000
00009300
0001E800
0008B800
001E4540
007C0190
01E500A1
1AF702CA
ENDCHAR
STARTCHAR uni019E
ENCODING 414
SWIDTH 559 0
DWIDTH 8 0
BBX 8 10 0 -3
BITMAP
4C87DD20
09C20B90
099007B0
099006B0
099006B0
099006B0
3DD406B0
000006B0
000006B0
000006E6
ENDCHAR
STARTCHAR Ohorn
ENCODING 416
SWIDTH 737 0
DWIDTH 10 0
BBX 10 12 0 0
BITMAP
0000000025
000000005E
000000003B
003A99EE61
04E2001CB0
0D800003F4
3F400000E8
4F300000D9
3F400000F7
0E800003F2
05E2001B80
004A99A600
ENDCHAR
STARTCHAR ohorn
ENCODING 417
SWIDTH 516 0
DWIDTH 7 0
BBX 7 9 0 0
BITMAP
000001D0
000001C0
03A9DD40
1E201E30
6D000A90
8C0009A0
6D000990
1E300D30
03B89500
ENDCHAR
STARTCHAR uni01A5
ENCODING 421
SWIDTH 522 0
DWIDTH 7 0
BBX 7 13 0 -3
BITMAP
0189D400
08505200
0C400000
0D6BEA00
0D913E70
0D4009B0
0D4007C0
0D400890
0D600D30
0DC9A500
0D400000
0D500000
7FB40000
ENDCHAR
STARTCHAR uni01AA
ENCODING 426
SWIDTH 298 0
DWIDTH 4 0
BBX 7 13 -1 -3
BITMAP
48B30000
704A0000
814E0000
178F0000
003F0000
003F0000
003F0000
003F0000
003F0000
003F0000
002F0000
000E0340
00069D50
ENDCHAR
STARTCHAR uni01AB
ENCODING 427
SWIDTH 321 0
DWIDTH 5 0
BBX 5 12 0 -3
BITMAP
027000
0B7000
3DB800
0B7000
0B7000
0B7000
0B7000
0A8120
05EB60
000450
042540
05C800
ENDCHAR
STARTCHAR uni01AD
ENCODING 429
SWIDTH 315 0
DWIDTH 4 0
BBX 6 10 0 0
BITMAP
0088D6
077033
0C7000
4DC900
0B7000
0B7000
0B7000
0B7000
0A8120
05EA00
ENDCHAR
STARTCHAR Uhorn
ENCODING 431
SWIDTH 762 0
DWIDTH 11 0
BBX 12 12 0 0
BITMAP
0000000000C5
0000000000B6
000000000041
5CF92018F200
05E00000D000
05E00000C000
05E00000C000
05E00000C000
05E00000B000
04F10000B000
00EA10195000
003BEED70000
ENDCHAR
STARTCHAR uhorn
ENCODING 432
SWIDTH 574 0
DWIDTH 8 0
BBX 9 9 0 0
BITMAP
0000001D10
0000000B10
5D705DB200
0B70099000
0B70099000
0B70099000
0B70099000
09A01C9000
03DC88C400
ENDCHAR
STARTCHAR uni01B5
ENCODING 437
SWIDTH 594 0
DWIDTH 8 0
BBX 8 9 0 0
BITMAP
0FCAAAFA
28000AC1
00009D10
038BEA70
002E7000
00AD0000
05F40007
1DA0001A
7FBAABE9
ENDCHAR
STARTCHAR uni01BA
ENCODING 442
SWIDTH 430 0
DWIDTH 6 0
BBX 6 10 0 -3
BITMAP
8CACF2
701D50
00B700
06D950
0003E4
0000D6
0018C1
198400
5302B0
298C80
ENDCHAR
STARTCHAR uni01BB
ENCODING 443
SWIDTH 508 0
DWIDTH 7 0
BBX 7 10 0 0
BITMAP
03CEC200
1911BC00
31004F10
00004F00
00007A00
3AAADB60
000A3000
00940020
09733660
6FFFFF30
ENDCHAR
STARTCHAR uni01BE
ENCODING 446
SWIDTH 406 0
DWIDTH 6 0
BBX 6 9 0 0
BITMAP
018000
0A9000
4DD930
08B200
002B80
0002F2
3000F4
7401F1
6A8A60
ENDCHAR
STARTCHAR uni01C0
ENCODING 448
SWIDTH 250 0
DWIDTH 4 0
BBX 2 10 1 0
BITMAP
C5
C5
C5
C5
C5
C5
C5
C5
C5
C5
ENDCHAR
STARTCHAR uni01C1
ENCODING 449
SWIDTH 423 0
DWIDTH 6 0
BBX 4 10 1 0
BITMAP
C56B
C56B
C56B
C56B
C56B
C56B
C56B
C56B
C56B
C56B
ENDCHAR
STARTCHAR uni01C2
ENCODING 450
SWIDTH 422 0
DWIDTH 6 0
BBX 6 10 0 0
BITMAP
009800
009800
009800
49DC93
009800
49DC93
009800
009800
009800
009800
ENDCHAR
STARTCHAR uni01C3
ENCODING 451
SWIDTH 245 0
DWIDTH 3 0
BBX 2 10 1 0
BITMAP
D4
E6
D5
C4
B2
A1
90
40
72
D5
ENDCHAR
STARTCHAR uni01DE
ENCODING 478
SWIDTH 718 0
DWIDTH 10 0
BBX 10 13 0 0
BITMAP
001CCCC000
0017017100
004D12E200
0000000000
0000870000
0001DD0000
00074E5000
000A08C000
005502F400
00A999DB00
0380004F20
0A30000E90
8F80005EF8
ENDCHAR
STARTCHAR uni01DF
ENCODING 479
SWIDTH 480 0
DWIDTH 7 0
BBX 7 11 0 0
BITMAP
09BBB300
0B30A400
0D50D600
00000000
0779A000
2F00D400
0200C600
0287D600
2D10C600
6D01D610
2DC88D40
ENDCHAR
STARTCHAR uni01F0
ENCODING 496
SWIDTH 263 0
DWIDTH 4 0
BBX 6 13 -2 -3
BITMAP
009256
002DA0
000000
004C80
000980
000980
000980
000980
000980
000980
000970
280A40
2DB800
ENDCHAR
STARTCHAR Aringacute
ENCODING 506
SWIDTH 718 0
DWIDTH 10 0
BBX 10 15 0 0
BITMAP
00004E4000
0002B20000
0002881000
0007355000
0002881000
0000000000
0000870000
0001DD0000
00074E5000
000A08C000
005502F400
00A999DB00
0380004F20
0A30000E90
8F80005EF8
ENDCHAR
STARTCHAR aringacute
ENCODING 507
SWIDTH 480 0
DWIDTH 7 0
BBX 7 13 0 0
BITMAP
001E7000
00A40000
00000000
00893000
02819000
00893000
0779A000
2F00D400
0200C600
0287D600
2D10C600
6D01D610
2DC88D40
ENDCHAR
STARTCHAR AEacute
ENCODING 508
SWIDTH 894 0
DWIDTH 13 0
BBX 14 12 -1 0
BITMAP
000000006E3000
00000002A10000
00000000000000
000009EFA9AD90
0000076F100180
0000183F100200
0000813F101800
0002C8AF99C800
000A103F101800
0047003F100041
00B0004F1000B0
2BE504BFA9ADC0
ENDCHAR
STARTCHAR aeacute
ENCODING 509
SWIDTH 709 0
DWIDTH 10 0
BBX 10 10 0 0
BITMAP
00008B0000
0001A10000
0000000000
0879888C60
2C00E602F2
0016EA88B4
0792E40000
4D00D70001
6D02CE4283
2DC81AEE50
ENDCHAR
STARTCHAR Oslashacute
ENCODING 510
SWIDTH 737 0
DWIDTH 10 0
BBX 10 12 0 0
BITMAP
00002E6000
0000A30000
0000000000
003A99B770
05E2002F90
0D800095F3
3F400830F8
4F306400D9
3F447000F7
0EA80003F3
06F3001B90
095A99A600
ENDCHAR
STARTCHAR oslashacute
ENCODING 511
SWIDTH 514 0
DWIDTH 7 0
BBX 7 10 0 0
BITMAP
000A9000
00290000
00000000
03A9BB10
1E307E30
6D037A80
8C1809A0
6D910990
1E500D30
38B9A500
ENDCHAR
STARTCHAR uni0218
ENCODING 536
SWIDTH 504 0
DWIDTH 7 0
BBX 7 13 0 -4
BITMAP
05AADF10
3E101D20
4F200620
0BE60000
007ED400
0002BF30
71000D80
78000D60
6FCAB800
003C2000
004F5000
00073000
00240000
ENDCHAR
STARTCHAR uni0219
ENCODING 537
SWIDTH 394 0
DWIDTH 6 0
BBX 6 11 0 -4
BITMAP
198990
690090
4F7020
06ED30
301AE1
7401F1
6A8A70
01B500
01E900
003600
006000
ENDCHAR
STARTCHAR uni021A
ENCODING 538
SWIDTH 603 0
DWIDTH 8 0
BBX 9 13 0 -4
BITMAP
ADACEABF20
A107D00830
3007D00210
0007D00000
0007D00000
0007D00000
0007D00000
0007D00000
005DF82000
0006B00000
0007F20000
0000910000
0004200000
ENDCHAR
STARTCHAR uni021B
ENCODING 539
SWIDTH 315 0
DWIDTH 4 0
BBX 5 13 0 -4
BITMAP
027000
0B7000
4DC900
0B7000
0B7000
0B7000
0B7000
0A8120
05EA00
01C400
02E800
005500
015000
ENDCHAR
STARTCHAR uni0221
ENCODING 545
SWIDTH 674 0
DWIDTH 9 0
BBX 10 12 0 -2
BITMAP
00007E3000
00000F3000
00000E3000
02A9AF3000
1D201F3000
5C000E3000
8B000E3000
7D000E3372
3F716F5617
07ED58D671
0000035000
0000080000
ENDCHAR
STARTCHAR uni0228
ENCODING 552
SWIDTH 626 0
DWIDTH 9 0
BBX 9 12 0 -3
BITMAP
3AFA9ABD00
02F2000600
02F2007000
02F200A000
02F98BC000
02F2003000
02F2000350
02F2000A30
3AFADACF10
0001B70000
00000C0000
0005950000
ENDCHAR
STARTCHAR uni0229
ENCODING 553
SWIDTH 464 0
DWIDTH 7 0
BBX 6 10 0 -3
BITMAP
049AB2
2B008B
6C889B
8A0000
6E0001
1EA238
04DFB1
003A50
0003A0
006930
ENDCHAR
STARTCHAR uni0234
ENCODING 564
SWIDTH 399 0
DWIDTH 6 0
BBX 6 12 0 -2
BITMAP
7D4000
0D4000
0D4000
0D4000
0D4000
0D4000
0D4000
0D4394
0D5709
07E772
026000
080000
ENDCHAR
STARTCHAR uni0235
ENCODING 565
SWIDTH 702 0
DWIDTH 10 0
BBX 10 9 0 -2
BITMAP
4C87CC1000
09C10C7000
0990099000
0990089000
0990089166
0990089617
4DD404CA74
0000008000
0000053000
ENDCHAR
STARTCHAR uni0236
ENCODING 566
SWIDTH 406 0
DWIDTH 6 0
BBX 6 11 0 -2
BITMAP
027000
0B7000
4DC920
0B7000
0B7000
0B7000
0B7275
0B7807
05D973
017000
071000
ENDCHAR
STARTCHAR uni0237
ENCODING 567
SWIDTH 263 0
DWIDTH 4 0
BBX 5 10 -2 -3
BITMAP
004C80
000980
000980
000980
000980
000980
000980
000970
280A40
2DB800
ENDCHAR
STARTCHAR uni0250
ENCODING 592
SWIDTH 475 0
DWIDTH 7 0
BBX 7 7 0 0
BITMAP
8E5AE900
1B904F10
0B704C00
0B978100
0B800200
09805B00
03B79400
ENDCHAR
STARTCHAR uni0251
ENCODING 593
SWIDTH 542 0
DWIDTH 8 0
BBX 8 7 0 0
BITMAP
02A9AC30
1D202F30
5B000F30
8B000F30
7C000F30
3F503F30
07ED6EA1
ENDCHAR
STARTCHAR uni0252
ENCODING 594
SWIDTH 544 0
DWIDTH 8 0
BBX 8 7 0 0
BITMAP
4C99EC30
09B21BC0
098004F1
098002F1
098002E0
09A00780
08A99800
ENDCHAR
STARTCHAR uni0253
ENCODING 595
SWIDTH 518 0
DWIDTH 7 0
BBX 6 10 1 0
BITMAP
18AD30
940620
D30000
E5BEA0
E913F6
E300AB
E3008B
E300A9
E401D3
9C9940
ENDCHAR
STARTCHAR uni0254
ENCODING 596
SWIDTH 454 0
DWIDTH 6 0
BBX 6 7 0 0
BITMAP
07EE80
5726E7
10008B
00005C
00005A
5D0084
1BA760
ENDCHAR
STARTCHAR uni0255
ENCODING 597
SWIDTH 447 0
DWIDTH 6 0
BBX 6 9 0 -2
BITMAP
0399D4
1C009A
690000
7A0000
6D0585
2FB409
05EDB4
053000
050000
ENDCHAR
STARTCHAR uni0256
ENCODING 598
SWIDTH 528 0
DWIDTH 7 0
BBX 9 13 0 -3
BITMAP
00007E3000
00000F3000
00000F3000
02A8AF3000
1D202F3000
5C000F3000
8B000F3000
7D000F3000
3F614F3000
07ED6E3000
00000D3000
00000B4150
0000039C90
ENDCHAR
STARTCHAR uni0257
ENCODING 599
SWIDTH 542 0
DWIDTH 8 0
BBX 9 10 0 0
BITMAP
0000029BB0
00000B4060
00000D3000
02A9AF3000
1D202F3000
5C000F3000
8B000F3000
7D000F3000
3F503F3000
07ED6EA200
ENDCHAR
STARTCHAR uni0258
ENCODING 600
SWIDTH 466 0
DWIDTH 7 0
BBX 6 7 0 0
BITMAP
05B991
3E1049
5B889E
00002F
10006E
4724E8
06EE91
ENDCHAR
STARTCHAR uni0259
ENCODING 601
SWIDTH 464 0
DWIDTH 7 0
BBX 6 7 0 0
BITMAP
06EE90
4725E8
10007D
00003F
5B889E
3E1058
06B881
ENDCHAR
STARTCHAR uni025A
ENCODING 602
SWIDTH 642 0
DWIDTH 9 0
BBX 9 7 0 0
BITMAP
07DE910000
4525EA7440
00007E3C80
00003F0000
5B889D0000
3E10580000
06B8800000
ENDCHAR
STARTCHAR uni025B
ENCODING 603
SWIDTH 399 0
DWIDTH 6 0
BBX 6 7 0 0
BITMAP
098AA1
5C00A2
2D1000
06EA00
4D1000
7C0022
1ADB70
ENDCHAR
STARTCHAR uni025C
ENCODING 604
SWIDTH 398 0
DWIDTH 6 0
BBX 5 7 0 0
BITMAP
4C8A40
6603E0
0006A0
04BD20
0005D0
3004F0
2BBC50
ENDCHAR
STARTCHAR uni025D
ENCODING 605
SWIDTH 575 0
DWIDTH 8 0
BBX 8 7 0 0
BITMAP
5C8A6000
4303E854
000562C8
04BE5000
0005F000
3004E000
2BBC4000
ENDCHAR
STARTCHAR uni025E
ENCODING 606
SWIDTH 500 0
DWIDTH 7 0
BBX 7 7 0 0
BITMAP
02978800
1D200C50
6C001D20
8A09E600
6C001D40
1D200C70
03A8AA10
ENDCHAR
STARTCHAR uni025F
ENCODING 607
SWIDTH 272 0
DWIDTH 4 0
BBX 6 10 -2 -3
BITMAP
003B90
000890
006DD6
000890
000890
000890
000890
000880
180A40
2DB800
ENDCHAR
STARTCHAR uni0260
ENCODING 608
SWIDTH 541 0
DWIDTH 8 0
BBX 10 13 0 -3
BITMAP
0000028AD3
00000B3051
00000E3000
02A9AF3000
1D202F3000
5B000F3000
8B000F3000
7C000F3000
3F614F3000
07ED5F3000
00000F2000
28103C0000
1BB7920000
ENDCHAR
STARTCHAR uni0261
ENCODING 609
SWIDTH 521 0
DWIDTH 7 0
BBX 7 10 0 -3
BITMAP
02A9AB30
1D202F30
5B000F30
8B000F30
7C000F30
3F614F30
07ED5F30
00000F10
28103C00
1BB79200
ENDCHAR
STARTCHAR uni0262
ENCODING 610
SWIDTH 535 0
DWIDTH 7 0
BBX 8 7 0 0
BITMAP
02A99E80
1E400480
6D000030
8C003A91
6E000A80
1E400980
03B88A30
ENDCHAR
STARTCHAR uni0263
ENCODING 611
SWIDTH 479 0
DWIDTH 7 0
BBX 8 10 -1 -3
BITMAP
1BF603D9
01F300B0
00A90470
004E1910
000D7900
0007E300
0003F300
0008A800
00094B00
0008A600
ENDCHAR
STARTCHAR uni0264
ENCODING 612
SWIDTH 466 0
DWIDTH 7 0
BBX 7 7 0 0
BITMAP
89978C20
B16D2840
0187A000
0621F100
0800E300
0811E100
02AA7000
ENDCHAR
STARTCHAR uni0265
ENCODING 613
SWIDTH 553 0
DWIDTH 8 0
BBX 8 10 0 -3
BITMAP
5D703B90
0B700890
0B700890
0B700890
0B700890
09B02C90
02CD8990
00000890
00000890
000008D5
ENDCHAR
STARTCHAR uni0266
ENCODING 614
SWIDTH 577 0
DWIDTH 8 0
BBX 8 10 0 0
BITMAP
0078D700
04903400
08800000
0997EC20
09C30B90
098007B0
098006B0
098006B0
099006B0
4DD43CE5
ENDCHAR
STARTCHAR uni0267
ENCODING 615
SWIDTH 562 0
DWIDTH 8 0
BBX 7 13 0 -3
BITMAP
0078D700
04903400
08800000
0997ED20
09C30B90
098007B0
098006B0
098006B0
099006B0
4DD406B0
000006A0
00081770
000CC910
ENDCHAR
STARTCHAR uni0268
ENCODING 616
SWIDTH 295 0
DWIDTH 4 0
BBX 4 10 0 0
BITMAP
08A0
0460
0000
4CA0
08A0
08A0
4BC5
08A0
08A0
3CD4
ENDCHAR
STARTCHAR uni0269
ENCODING 617
SWIDTH 286 0
DWIDTH 4 0
BBX 5 7 0 0
BITMAP
5D7000
0B7000
0B7000
0B7000
0B7000
0A8110
06E900
ENDCHAR
STARTCHAR uni026A
ENCODING 618
SWIDTH 287 0
DWIDTH 4 0
BBX 4 7 0 0
BITMAP
3DD4
0990
0990
0990
0990
0990
3DD4
ENDCHAR
STARTCHAR uni026B
ENCODING 619
SWIDTH 290 0
DWIDTH 4 0
BBX 4 10 0 0
BITMAP
4C90
0990
0990
0990
9EEA
0990
0990
0990
0990
4DD4
ENDCHAR
STARTCHAR uni026C
ENCODING 620
SWIDTH 318 0
DWIDTH 4 0
BBX 5 10 0 0
BITMAP
18E000
03F000
03F000
88F000
B3F020
C8FA20
17F100
03F000
03F000
1AF800
ENDCHAR
STARTCHAR uni026D
ENCODING 621
SWIDTH 248 0
DWIDTH 3 0
BBX 5 13 0 -3
BITMAP
7D4000
0D4000
0D4000
0D4000
0D4000
0D4000
0D4000
0D4000
0D4000
0D4000
0C4000
095270
02ADA0
ENDCHAR
STARTCHAR uni026E
ENCODING 622
SWIDTH 590 0
DWIDTH 8 0
BBX 8 13 0 -3
BITMAP
4C800000
09800000
09800000
09DAAAEB
098004E2
09801D70
09809C00
0982E930
099003D6
4DD4005E
0000004F
00660099
004D7870
ENDCHAR
STARTCHAR uni026F
ENCODING 623
SWIDTH 846 0
DWIDTH 12 0
BBX 12 7 0 0
BITMAP
5D705D605D70
0B700B600B70
0B700B600B70
0B700B600B70
0B700B600B70
09902D802D70
03DC73EB6AB3
ENDCHAR
STARTCHAR uni0270
ENCODING 624
SWIDTH 826 0
DWIDTH 12 0
BBX 12 10 0 -3
BITMAP
5D705D605D70
0B700B600B70
0B700B600B70
0B700B600B70
0B700B600B70
09A03D903D70
03DD73ED6A70
000000000A70
000000000A70
000000000AC3
ENDCHAR
STARTCHAR uni0271
ENCODING 625
SWIDTH 835 0
DWIDTH 12 0
BBX 11 10 0 -3
BITMAP
4C87DD28DC20
09C30BC20C70
099008900990
099008900890
099008900890
099008A00890
4DD44DE50890
000000000980
000000280A50
0000002DB800
ENDCHAR
STARTCHAR uni0272
ENCODING 626
SWIDTH 574 0
DWIDTH 8 0
BBX 10 10 -2 -3
BITMAP
004C87CC20
0009C20B80
00098007A0
00098007B0
00098007B0
00098007B0
0009803CE5
0009700000
280A400000
2DB8000000
ENDCHAR
STARTCHAR uni0273
ENCODING 627
SWIDTH 563 0
DWIDTH 8 0
BBX 10 10 0 -3
BITMAP
4C87DD2000
09C20B9000
099007B000
099007B000
099007B000
099007B000
3DD407B000
000006B000
000003C072
0000008AD3
ENDCHAR
STARTCHAR uni0274
ENCODING 628
SWIDTH 568 0
DWIDTH 8 0
BBX 8 7 0 0
BITMAP
5EA007E5
0AE60090
095F3090
0908D190
0900BB90
0A001DB0
5E6003A0
ENDCHAR
STARTCHAR uni0275
ENCODING 629
SWIDTH 514 0
DWIDTH 7 0
BBX 7 7 0 0
BITMAP
03A8A500
1E301E30
6D000A90
8E888CA0
6D000A90
1E300D30
03A8A500
ENDCHAR
STARTCHAR uni0276
ENCODING 630
SWIDTH 732 0
DWIDTH 10 0
BBX 10 7 0 0
BITMAP
03A8BF77B6
1E303F0015
6E002F0070
7C002F7980
6D002F0031
1E202F0008
03A7AF78B8
ENDCHAR
STARTCHAR uni0277
ENCODING 631
SWIDTH 672 0
DWIDTH 9 0
BBX 9 7 0 0
BITMAP
0079889200
0A70002D20
4E007208A0
7C01F606D0
7C00D406E0
3F20A30A90
06B927AA10
ENDCHAR
STARTCHAR uni0278
ENCODING 632
SWIDTH 658 0
DWIDTH 9 0
BBX 9 13 0 -3
BITMAP
0007E20000
0000F20000
0000F20000
02A9FAB400
1D50F24F30
5D00F20B90
8C00F209B0
6E00F20A80
1E40F21E20
03A7F8A400
0000F20000
0000F20000
0008F91000
ENDCHAR
STARTCHAR uni0279
ENCODING 633
SWIDTH 380 0
DWIDTH 5 0
BBX 5 7 0 0
BITMAP
04BF70
004E00
004D00
004D00
004D00
63AE00
BC4D60
ENDCHAR
STARTCHAR uni027A
ENCODING 634
SWIDTH 374 0
DWIDTH 5 0
BBX 5 10 0 0
BITMAP
02AD00
004D00
004D00
004D00
004D00
004D00
004D00
004D00
63AE00
BC4D60
ENDCHAR
STARTCHAR uni027B
ENCODING 635
SWIDTH 375 0
DWIDTH 5 0
BBX 7 10 0 -3
BITMAP
04BF7000
004D0000
004D0000
004D0000
004D0000
63AD0000
BC4D0000
003D0000
001E0540
0005AE50
ENDCHAR
STARTCHAR uni027C
ENCODING 636
SWIDTH 378 0
DWIDTH 5 0
BBX 6 10 0 -3
BITMAP
4C88E1
09C480
099000
098000
098000
098000
098000
098000
099000
4DD600
ENDCHAR
STARTCHAR uni027D
ENCODING 637
SWIDTH 373 0
DWIDTH 5 0
BBX 6 10 0 -3
BITMAP
4C7AE1
0AC260
0A7000
0A7000
0A7000
0A7000
0A7000
097000
068181
019BC1
ENDCHAR
STARTCHAR uni027E
ENCODING 638
SWIDTH 371 0
DWIDTH 5 0
BBX 5 7 0 0
BITMAP
008AC0
068050
097000
0A7000
0A7000
0A8000
5ED500
ENDCHAR
STARTCHAR uni027F
ENCODING 639
SWIDTH 371 0
DWIDTH 5 0
BBX 5 7 0 0
BITMAP
AB8100
416800
005B00
004D00
004D00
005D00
04BF60
ENDCHAR
STARTCHAR uni0280
ENCODING 640
SWIDTH 494 0
DWIDTH 7 0
BBX 8 7 0 0
BITMAP
3CC8B400
09905D00
09907B00
09CC9100
0996D100
0990B900
3DD32E91
ENDCHAR
STARTCHAR uni0281
ENCODING 641
SWIDTH 494 0
DWIDTH 7 0
BBX 8 7 0 0
BITMAP
4DD42E91
0990BA00
0996D100
09CC9100
09907B00
09905D00
3CC8B400
ENDCHAR
STARTCHAR uni0282
ENCODING 642
SWIDTH 395 0
DWIDTH 6 0
BBX 6 10 0 -3
BITMAP
1A9A90
690090
4F6020
06EC30
301AE1
7401F1
6B8A70
630000
442300
09C500
ENDCHAR
STARTCHAR uni0283
ENCODING 643
SWIDTH 253 0
DWIDTH 4 0
BBX 7 13 -2 -3
BITMAP
00019BB0
00086170
000B5000
000C5000
000C5000
000C5000
000C5000
000C5000
000C5000
000C5000
000C4000
350D2000
3D980000
ENDCHAR
STARTCHAR uni0284
ENCODING 644
SWIDTH 286 0
DWIDTH 4 0
BBX 8 13 -2 -3
BITMAP
000079D1
0004A040
00089000
00099000
00099000
00099000
00099000
00099000
00099000
005CC500
00098000
02095000
1D980000
ENDCHAR
STARTCHAR uni0285
ENCODING 645
SWIDTH 361 0
DWIDTH 5 0
BBX 7 10 0 -3
BITMAP
9C910000
61590000
004D0000
004D0000
004D0000
004D0000
004D0000
003D0000
001E0440
00079D40
ENDCHAR
STARTCHAR uni0286
ENCODING 646
SWIDTH 253 0
DWIDTH 4 0
BBX 7 13 -2 -3
BITMAP
00019BB0
00086170
000B5000
000C5000
000C5000
000C5000
000C5000
000C5000
000C5000
000C5000
068E7000
370D7400
1AA80000
ENDCHAR
STARTCHAR uni0287
ENCODING 647
SWIDTH 315 0
DWIDTH 4 0
BBX 4 9 0 -2
BITMAP
5DB0
32F1
01F2
01F2
01F2
01F2
69F8
01E3
0180
ENDCHAR
STARTCHAR uni0288
ENCODING 648
SWIDTH 309 0
DWIDTH 4 0
BBX 6 12 0 -3
BITMAP
017000
0A8000
3DCA10
0A8000
0A8000
0A8000
0A8000
0A8000
0A8000
098000
069181
009BC1
ENDCHAR
STARTCHAR uni0289
ENCODING 649
SWIDTH 580 0
DWIDTH 8 0
BBX 8 7 0 0
BITMAP
5D705DA0
0A8008A0
0A8008A0
4CB77BC5
0A8008A0
08B01AA0
02DD98D4
ENDCHAR
STARTCHAR uni028A
ENCODING 650
SWIDTH 548 0
DWIDTH 8 0
BBX 7 7 0 0
BITMAP
28D03E60
07600A20
1E1006B0
5E0004F0
5E0004F0
1E3008A0
03A89910
ENDCHAR
STARTCHAR uni028B
ENCODING 651
SWIDTH 530 0
DWIDTH 7 0
BBX 7 7 0 0
BITMAP
5D701E30
0B700990
0B7001B0
0B700090
0A700080
08B00720
01BDC500
ENDCHAR
STARTCHAR uni028C
ENCODING 652
SWIDTH 495 0
DWIDTH 7 0
BBX 8 7 -1 0
BITMAP
0001E100
0007E500
000A8B00
00462F20
00910C70
01A006D0
1BC209F9
ENDCHAR
STARTCHAR uni028D
ENCODING 653
SWIDTH 764 0
DWIDTH 11 0
BBX 11 7 0 0
BITMAP
002D004B0000
007E409F2000
0099918C7000
0464E726D000
0910DB01F400
1A008A00AA00
AC20AF71BF70
ENDCHAR
STARTCHAR uni028E
ENCODING 654
SWIDTH 492 0
DWIDTH 7 0
BBX 7 10 0 0
BITMAP
00007E90
00038330
00091000
001B0000
007E2000
009B8000
0365E100
0910D700
1A006D00
AC208FA0
ENDCHAR
STARTCHAR uni028F
ENCODING 655
SWIDTH 454 0
DWIDTH 6 0
BBX 8 7 -1 0
BITMAP
1BF404D4
01E40450
005D1800
000BC300
0005D000
0005D000
002AF600
ENDCHAR
STARTCHAR uni0290
ENCODING 656
SWIDTH 458 0
DWIDTH 6 0
BBX 9 10 0 -3
BITMAP
4D99EC0000
5403F30000
100D800000
008C000000
03F3030000
0C800A0000
7FA9CD0000
0000090000
0000090500
0000049C10
ENDCHAR
STARTCHAR uni0291
ENCODING 657
SWIDTH 458 0
DWIDTH 6 0
BBX 7 10 0 -3
BITMAP
4D99EC00
5303F300
000D8000
008C0000
03F37810
0C872630
7FAD8800
00810000
01700000
00100000
ENDCHAR
STARTCHAR uni0292
ENCODING 658
SWIDTH 443 0
DWIDTH 6 0
BBX 6 10 0 -3
BITMAP
6DAAEA
7206E1
002E50
00B900
02AA50
0001D7
00006E
00005E
8700A8
4D7860
ENDCHAR
STARTCHAR uni0293
ENCODING 659
SWIDTH 443 0
DWIDTH 6 0
BBX 6 12 0 -5
BITMAP
6D99EA
7206E1
002E50
00B900
02BA50
0002D7
00007D
39506D
8263B9
199E90
000450
000090
ENDCHAR
STARTCHAR uni0294
ENCODING 660
SWIDTH 383 0
DWIDTH 5 0
BBX 6 10 0 0
BITMAP
296960
9801F2
1000E4
0001F2
000A90
05A500
098000
098000
099000
4DD500
ENDCHAR
STARTCHAR uni0295
ENCODING 661
SWIDTH 383 0
DWIDTH 5 0
BBX 5 10 0 0
BITMAP
296960
A603E0
E50010
C60000
4D1000
029900
003F00
003F00
003F00
03AF80
ENDCHAR
STARTCHAR uni0296
ENCODING 662
SWIDTH 408 0
DWIDTH 6 0
BBX 6 10 0 0
BITMAP
3BA000
07B000
07B000
07B000
04B400
000A80
0001F2
1100E4
8801F2
2A6960
ENDCHAR
STARTCHAR uni0297
ENCODING 663
SWIDTH 437 0
DWIDTH 6 0
BBX 6 11 0 -4
BITMAP
0199C3
0B30AA
2D0013
6A0000
890000
890000
7B0000
4E0001
0D8028
03DFC1
000100
ENDCHAR
STARTCHAR uni0298
ENCODING 664
SWIDTH 736 0
DWIDTH 10 0
BBX 10 10 0 0
BITMAP
003988A600
04C1000A90
1E400001E4
5E000000AA
7C009D007C
8C007A007C
5E000000AA
1E400001E4
04C1000A90
003988A600
ENDCHAR
STARTCHAR uni0299
ENCODING 665
SWIDTH 485 0
DWIDTH 7 0
BBX 7 7 0 0
BITMAP
3CC8B500
09905E00
09907A00
09C9C400
09904F30
09901F40
3DC8A800
ENDCHAR
STARTCHAR uni029A
ENCODING 666
SWIDTH 500 0
DWIDTH 7 0
BBX 7 7 0 0
BITMAP
08879200
5C002D10
2D100C60
06E90A80
4D100C60
7C002D10
1AA8A300
ENDCHAR
STARTCHAR uni029B
ENCODING 667
SWIDTH 536 0
DWIDTH 8 0
BBX 9 9 0 0
BITMAP
0000008A90
0000018040
02A99E8000
1E40038000
6E00001000
7C003A9100
6E00098000
1E40098000
03A88A3000
ENDCHAR
STARTCHAR uni029C
ENCODING 668
SWIDTH 599 0
DWIDTH 8 0
BBX 8 7 0 0
BITMAP
3DD419F7
099003E0
099003E0
09C779E0
099003E0
099003E0
3DD419F7
ENDCHAR
STARTCHAR uni029D
ENCODING 669
SWIDTH 263 0
DWIDTH 4 0
BBX 5 12 -1 -3
BITMAP
00A900
005400
04C800
009800
009800
009800
009800
009800
009800
48CA00
90A860
99A000
ENDCHAR
STARTCHAR uni029E
ENCODING 670
SWIDTH 542 0
DWIDTH 8 0
BBX 8 10 0 -3
BITMAP
7EC18F91
05F30F30
007E2F30
0009CF30
00056F30
00670F30
3AF40F30
00000F30
00000F30
00000FA2
ENDCHAR
STARTCHAR uni029F
ENCODING 671
SWIDTH 440 0
DWIDTH 6 0
BBX 6 7 0 0
BITMAP
5EC300
0B7000
0B7000
0B7000
0B7001
0B7009
5EC8AB
ENDCHAR
STARTCHAR uni02A0
ENCODING 672
SWIDTH 541 0
DWIDTH 8 0
BBX 10 13 0 -3
BITMAP
0000029BD3
00000A3062
00000E3000
02A9AF3000
1D202F3000
5B000F3000
8B000F3000
7C000F3000
3F614F3000
07ED5F3000
00000F3000
00000F3000
00029F9100
ENDCHAR
STARTCHAR uni02A1
ENCODING 673
SWIDTH 393 0
DWIDTH 6 0
BBX 6 10 0 0
BITMAP
196970
7A00E2
1200D5
0000E4
0006C0
027910
089000
5CD820
08A000
4CD500
ENDCHAR
STARTCHAR uni02A2
ENCODING 674
SWIDTH 393 0
DWIDTH 6 0
BBX 6 10 0 0
BITMAP
196960
9802F0
D50030
C60000
6C0000
069500
002F00
069F91
002F10
029F80
ENDCHAR
STARTCHAR uni02A3
ENCODING 675
SWIDTH 830 0
DWIDTH 12 0
BBX 12 10 0 0
BITMAP
00007E300000
00000F300000
00000E300000
02A9BFA99CF1
1D201F301E80
5C000E30AC00
8B000E35F300
7D000E4E7021
3F614FCC0091
07ED6EFB9AF1
ENDCHAR
STARTCHAR uni02A4
ENCODING 676
SWIDTH 838 0
DWIDTH 12 0
BBX 12 13 0 -3
BITMAP
00007E300000
00000F300000
00000E300000
02AABFBAACF3
1D301F300CA0
5C000E307D10
8B000E32F400
7C000E38D500
3F503F3019C1
07ED6DA100E6
0000000000D7
000001A102E2
000000BA7920
ENDCHAR
STARTCHAR uni02A5
ENCODING 677
SWIDTH 829 0
DWIDTH 12 0
BBX 12 12 0 -2
BITMAP
00007E300000
00000F300000
00000E300000
02A9BFA99CF1
1D201F301E80
5C000E30AC00
8B000E36F300
7D000E5E7692
3F615FDC5436
07ED6EFBD991
000000063000
000000080000
ENDCHAR
STARTCHAR uni02A6
ENCODING 678
SWIDTH 614 0
DWIDTH 9 0
BBX 9 9 0 0
BITMAP
0270000000
0A70000000
3DCAE99B00
0B75A00A00
0B73F81200
0B704DD400
0B70008E10
09A0001F10
01AA88A400
ENDCHAR
STARTCHAR uni02A7
ENCODING 679
SWIDTH 513 0
DWIDTH 7 0
BBX 9 13 0 -3
BITMAP
0000059D70
01500E0240
0A702F0000
4DC9AF0000
0B703F0000
0B703F0000
0B703F0000
0B703F0000
0A814F0000
05EA3F0000
00003E0000
00523C0000
008CA40000
ENDCHAR
STARTCHAR uni02A8
ENCODING 680
SWIDTH 687 0
DWIDTH 10 0
BBX 10 9 0 0
BITMAP
0270000000
0A70000000
3DC9189C80
0B709503E1
0B70F00000
0B72F00000
0B71F35770
0A80AE4072
05EA6ADB80
ENDCHAR
STARTCHAR uni02A9
ENCODING 681
SWIDTH 866 0
DWIDTH 12 0
BBX 11 13 0 -3
BITMAP
008AD2000000
059051000000
089000000000
6DDAACD4CE50
099004E506D0
099004D002F0
099004D002F0
099004D002F0
099004D002F0
5DE72AF702F0
0000000002E0
0000000733B0
00000008DA30
ENDCHAR
STARTCHAR uni02AA
ENCODING 682
SWIDTH 595 0
DWIDTH 8 0
BBX 8 10 0 0
BITMAP
7D400000
0D400000
0D400000
0D4198A8
0D487019
0D46E602
0D408FC2
0D4002BC
0C50005D
03A88892
ENDCHAR
STARTCHAR uni02AB
ENCODING 683
SWIDTH 580 0
DWIDTH 8 0
BBX 8 10 0 0
BITMAP
4C800000
09800000
09800000
09C99AF6
098008C0
09802F30
0980B900
0985E103
099E5038
4DFE99E7
ENDCHAR
STARTCHAR uni02AC
ENCODING 684
SWIDTH 599 0
DWIDTH 8 0
BBX 9 10 0 0
BITMAP
7E28D13C10
0D32F14400
0796977000
01E63D6000
00830A2000
7A27A13910
1E12E02600
0975B57100
03D64B7000
00B50D3000
ENDCHAR
STARTCHAR uni02AD
ENCODING 685
SWIDTH 479 0
DWIDTH 7 0
BBX 5 9 1 0
BITMAP
FFFFB0
C112B0
C001B0
C001B0
200020
EEEEA0
C222B0
C001B0
C001B0
ENDCHAR
STARTCHAR uni02AE
ENCODING 686
SWIDTH 595 0
DWIDTH 8 0
BBX 10 10 -1 -3
BITMAP
4D84008E30
132D000F30
001F100E30
001F200E30
000F200E30
000E705F30
0006EC4E30
0000000E30
0000000E30
0000000EA2
ENDCHAR
STARTCHAR uni02AF
ENCODING 687
SWIDTH 600 0
DWIDTH 8 0
BBX 11 10 -1 -3
BITMAP
4D84008E3000
132D000F3000
001F100E3000
001F200E3000
000F200E3000
000E705F3000
0006EC4E3000
0000000D3000
0000000A4370
00000002AD90
ENDCHAR
STARTCHAR uni02B0
ENCODING 688
SWIDTH 488 0
DWIDTH 7 0
BBX 7 7 0 4
BITMAP
4E300000
0C300000
0C8AD300
0C507900
0C305A00
0C305A00
4E91AD30
ENDCHAR
STARTCHAR uni02B1
ENCODING 689
SWIDTH 488 0
DWIDTH 7 0
BBX 7 8 0 4
BITMAP
00697000
08418000
0C300000
0C8AD300
0C507900
0C305A00
0C305A00
4E91AD30
ENDCHAR
STARTCHAR uni02B2
ENCODING 690
SWIDTH 222 0
DWIDTH 3 0
BBX 4 10 -1 1
BITMAP
00D4
0031
04D4
00C4
00C4
00C4
00C4
00C3
40C1
BA80
ENDCHAR
STARTCHAR uni02B3
ENCODING 691
SWIDTH 325 0
DWIDTH 5 0
BBX 5 5 0 4
BITMAP
4E6D40
0C7310
0C3000
0C3000
4E9100
ENDCHAR
STARTCHAR uni02B4
ENCODING 692
SWIDTH 325 0
DWIDTH 5 0
BBX 5 5 0 4
BITMAP
03BC20
006900
006900
21A900
7C7C20
ENDCHAR
STARTCHAR uni02B5
ENCODING 693
SWIDTH 325 0
DWIDTH 5 0
BBX 6 7 0 2
BITMAP
03BC30
006900
006900
22A900
7C7900
003912
000684
ENDCHAR
STARTCHAR uni02B6
ENCODING 694
SWIDTH 443 0
DWIDTH 6 0
BBX 6 5 0 4
BITMAP
3E91C9
0C3980
0CAC30
0C30E2
3E98B1
ENDCHAR
STARTCHAR uni02B7
ENCODING 695
SWIDTH 653 0
DWIDTH 9 0
BBX 10 5 0 4
BITMAP
AE35F609B1
0E20C70810
07928D0800
01E80B9300
009805C000
ENDCHAR
STARTCHAR uni02B8
ENCODING 696
SWIDTH 427 0
DWIDTH 6 0
BBX 6 8 0 1
BITMAP
9F41B9
1E3090
089080
01E630
00AB00
005600
109100
9D4000
ENDCHAR
STARTCHAR uni02B9
ENCODING 697
SWIDTH 296 0
DWIDTH 4 0
BBX 3 5 1 5
BITMAP
1D20
5D00
9500
B000
2000
ENDCHAR
STARTCHAR uni02BA
ENCODING 698
SWIDTH 456 0
DWIDTH 6 0
BBX 5 5 1 5
BITMAP
1D2A50
5D1F20
955900
B09200
203000
ENDCHAR
STARTCHAR uni02BB
ENCODING 699
SWIDTH 245 0
DWIDTH 3 0
BBX 3 4 0 7
BITMAP
0350
0900
2E70
1D80
ENDCHAR
STARTCHAR uni02BC
ENCODING 700
SWIDTH 244 0
DWIDTH 3 0
BBX 3 4 0 7
BITMAP
2C40
3E90
0460
1700
ENDCHAR
STARTCHAR uni02BD
ENCODING 701
SWIDTH 244 0
DWIDTH 3 0
BBX 3 4 0 7
BITMAP
0B60
2F90
1900
0450
ENDCHAR
STARTCHAR uni02BE
ENCODING 702
SWIDTH 203 0
DWIDTH 3 0
BBX 3 3 0 7
BITMAP
7B20
0670
7B20
ENDCHAR
STARTCHAR uni02BF
ENCODING 703
SWIDTH 203 0
DWIDTH 3 0
BBX 3 3 0 7
BITMAP
3B50
9400
3B50
ENDCHAR
STARTCHAR uni02C0
ENCODING 704
SWIDTH 364 0
DWIDTH 5 0
BBX 5 6 0 4
BITMAP
186700
480960
000880
003C30
07A100
011000
ENDCHAR
STARTCHAR uni02C1
ENCODING 705
SWIDTH 364 0
DWIDTH 5 0
BBX 5 6 0 4
BITMAP
066810
5B0750
7A0000
2C4000
019800
001100
ENDCHAR
STARTCHAR uni02C2
ENCODING 706
SWIDTH 324 0
DWIDTH 5 0
BBX 4 5 0 6
BITMAP
0006
03B7
5D20
06B4
0019
ENDCHAR
STARTCHAR uni02C3
ENCODING 707
SWIDTH 324 0
DWIDTH 5 0
BBX 4 5 0 6
BITMAP
4200
2A81
007D
18A2
5500
ENDCHAR
STARTCHAR uni02C4
ENCODING 708
SWIDTH 324 0
DWIDTH 5 0
BBX 5 4 0 7
BITMAP
015000
08D200
2A3A00
A20940
ENDCHAR
STARTCHAR uni02C5
ENCODING 709
SWIDTH 324 0
DWIDTH 5 0
BBX 5 4 0 7
BITMAP
600330
660B10
0B8600
03B000
ENDCHAR
STARTCHAR circumflex
ENCODING 710
SWIDTH 342 0
DWIDTH 5 0
BBX 5 2 0 8
BITMAP
07D400
381910
ENDCHAR
STARTCHAR caron
ENCODING 711
SWIDTH 342 0
DWIDTH 5 0
BBX 5 2 0 8
BITMAP
371910
07E400
ENDCHAR
STARTCHAR uni02C8
ENCODING 712
SWIDTH 284 0
DWIDTH 4 0
BBX 2 4 1 7
BITMAP
44
44
44
44
ENDCHAR
STARTCHAR uni02C9
ENCODING 713
SWIDTH 350 0
DWIDTH 5 0
BBX 5 1 0 8
BITMAP
7BBB50
ENDCHAR
STARTCHAR uni02CA
ENCODING 714
SWIDTH 222 0
DWIDTH 3 0
BBX 3 2 0 8
BITMAP
0C60
5700
ENDCHAR
STARTCHAR uni02CB
ENCODING 715
SWIDTH 222 0
DWIDTH 3 0
BBX 3 2 0 8
BITMAP
5D10
0560
ENDCHAR
STARTCHAR uni02CC
ENCODING 716
SWIDTH 284 0
DWIDTH 4 0
BBX 2 4 1 -3
BITMAP
44
44
44
44
ENDCHAR
STARTCHAR uni02CD
ENCODING 717
SWIDTH 342 0
DWIDTH 5 0
BBX 5 1 0 -2
BITMAP
ABBB70
ENDCHAR
STARTCHAR uni02CE
ENCODING 718
SWIDTH 222 0
DWIDTH 3 0
BBX 3 2 0 -2
BITMAP
5D10
0560
ENDCHAR
STARTCHAR uni02CF
ENCODING 719
SWIDTH 223 0
DWIDTH 3 0
BBX 3 2 0 -2
BITMAP
0C60
5700
ENDCHAR
STARTCHAR uni02D0
ENCODING 720
SWIDTH 341 0
DWIDTH 5 0
BBX 3 7 1 0
BITMAP
2210
7F40
2D00
0000
0200
3E00
8F50
ENDCHAR
STARTCHAR uni02D1
ENCODING 721
SWIDTH 341 0
DWIDTH 5 0
BBX 3 3 1 4
BITMAP
2210
7F40
2D00
ENDCHAR
STARTCHAR uni02D2
ENCODING 722
SWIDTH 341 0
DWIDTH 5 0
BBX 3 5 1 1
BITMAP
BA10
0590
01C0
0590
BA10
ENDCHAR
STARTCHAR uni02D3
ENCODING 723
SWIDTH 341 0
DWIDTH 5 0
BBX 3 5 1 1
BITMAP
3B80
C200
D000
C200
2B80
ENDCHAR
STARTCHAR uni02D4
ENCODING 724
SWIDTH 341 0
DWIDTH 5 0
BBX 4 4 0 2
BITMAP
0020
0080
0080
29B9
ENDCHAR
STARTCHAR uni02D5
ENCODING 725
SWIDTH 341 0
DWIDTH 5 0
BBX 4 3 0 2
BITMAP
29B9
0080
0070
ENDCHAR
STARTCHAR uni02D6
ENCODING 726
SWIDTH 341 0
DWIDTH 5 0
BBX 3 3 1 2
BITMAP
0700
8C60
0800
ENDCHAR
STARTCHAR uni02D7
ENCODING 727
SWIDTH 341 0
DWIDTH 5 0
BBX 3 1 1 3
BITMAP
8860
ENDCHAR
STARTCHAR breve
ENCODING 728
SWIDTH 353 0
DWIDTH 5 0
BBX 5 3 0 8
BITMAP
100010
720450
1AB900
ENDCHAR
STARTCHAR dotaccent
ENCODING 729
SWIDTH 194 0
DWIDTH 3 0
BBX 3 2 0 8
BITMAP
3B00
4E10
ENDCHAR
STARTCHAR ring
ENCODING 730
SWIDTH 265 0
DWIDTH 4 0
BBX 4 3 0 7
BITMAP
2980
8263
2980
ENDCHAR
STARTCHAR ogonek
ENCODING 731
SWIDTH 277 0
DWIDTH 4 0
BBX 4 4 0 -3
BITMAP
0010
1810
7701
4C91
ENDCHAR
STARTCHAR tilde
ENCODING 732
SWIDTH 381 0
DWIDTH 5 0
BBX 5 2 0 8
BITMAP
1BA370
506C50
ENDCHAR
STARTCHAR hungarumlaut
ENCODING 733
SWIDTH 350 0
DWIDTH 5 0
BBX 5 3 0 8
BITMAP
021210
0E6E30
667400
ENDCHAR
STARTCHAR uni02DE
ENCODING 734
SWIDTH 205 0
DWIDTH 3 0
BBX 4 3 -1 3
BITMAP
0100
4C15
05C4
ENDCHAR
STARTCHAR uni02DF
ENCODING 735
SWIDTH 302 0
DWIDTH 4 0
BBX 4 4 0 7
BITMAP
1002
4A87
09D0
4758
ENDCHAR
STARTCHAR uni02E0
ENCODING 736
SWIDTH 413 0
DWIDTH 6 0
BBX 6 8 0 1
BITMAP
AF31B7
1E2090
098260
03E710
00C800
00AB00
017E10
019A00
ENDCHAR
STARTCHAR uni02E1
ENCODING 737
SWIDTH 244 0
DWIDTH 3 0
BBX 3 7 0 4
BITMAP
4E30
0C30
0C30
0C30
0C30
0C30
4E90
ENDCHAR
STARTCHAR uni02E2
ENCODING 738
SWIDTH 337 0
DWIDTH 5 0
BBX 5 5 0 4
BITMAP
3A7C00
791600
18D700
711D40
797A10
ENDCHAR
STARTCHAR uni02E3
ENCODING 739
SWIDTH 445 0
DWIDTH 6 0
BBX 6 5 0 4
BITMAP
4EA1D5
03D540
009C00
036990
5D24F8
ENDCHAR
STARTCHAR uni02E4
ENCODING 740
SWIDTH 364 0
DWIDTH 5 0
BBX 5 7 0 4
BITMAP
0878A0
5B0080
5C0000
1B7200
003F00
001F00
018F60
ENDCHAR
STARTCHAR uni02E5
ENCODING 741
SWIDTH 423 0
DWIDTH 6 0
BBX 6 10 0 0
BITMAP
4BBBC5
000055
000055
000055
000055
000055
000055
000055
000055
000054
ENDCHAR
STARTCHAR uni02E6
ENCODING 742
SWIDTH 414 0
DWIDTH 6 0
BBX 6 11 0 -1
BITMAP
000052
000074
000074
5BBBD4
000074
000074
000074
000074
000074
000074
000031
ENDCHAR
STARTCHAR uni02E7
ENCODING 743
SWIDTH 414 0
DWIDTH 6 0
BBX 6 11 0 -1
BITMAP
000052
000074
000074
000074
000074
5BBBD4
000074
000074
000074
000074
000031
ENDCHAR
STARTCHAR uni02E8
ENCODING 744
SWIDTH 414 0
DWIDTH 6 0
BBX 6 11 0 0
BITMAP
000010
000074
000074
000074
000074
000074
000074
5BBBD4
000074
000074
000031
ENDCHAR
STARTCHAR uni02E9
ENCODING 745
SWIDTH 414 0
DWIDTH 6 0
BBX 6 11 0 0
BITMAP
000010
000074
000074
000074
000074
000074
000074
000074
000074
000074
5BBBC3
ENDCHAR
STARTCHAR uni02EC
ENCODING 748
SWIDTH 341 0
DWIDTH 5 0
BBX 5 3 0 -2
BITMAP
690C20
0B9800
02C000
ENDCHAR
STARTCHAR uni02ED
ENCODING 749
SWIDTH 380 0
DWIDTH 5 0
BBX 5 3 0 8
BITMAP
5BBB90
000000
5BBB90
ENDCHAR
STARTCHAR uni02F7
ENCODING 759
SWIDTH 381 0
DWIDTH 5 0
BBX 5 2 0 -2
BITMAP
1BA370
506C50
ENDCHAR
STARTCHAR uni0300
ENCODING 768
SWIDTH 0 0
DWIDTH 0 0
BBX 3 2 -5 8
BITMAP
7C00
0840
ENDCHAR
STARTCHAR uni0301
ENCODING 769
SWIDTH 0 0
DWIDTH 0 0
BBX 3 2 -4 8
BITMAP
4E20
9200
ENDCHAR
STARTCHAR uni0302
ENCODING 770
SWIDTH 0 0
DWIDTH 0 0
BBX 4 2 -5 8
BITMAP
2D90
9155
ENDCHAR
STARTCHAR uni0303
ENCODING 771
SWIDTH 0 0
DWIDTH 0 0
BBX 5 2 -6 8
BITMAP
0AB470
424C70
ENDCHAR
STARTCHAR uni0304
ENCODING 772
SWIDTH 0 0
DWIDTH 0 0
BBX 5 1 -6 8
BITMAP
3BBB90
ENDCHAR
STARTCHAR uni0305
ENCODING 773
SWIDTH 0 0
DWIDTH 0 0
BBX 6 1 -6 8
BITMAP
7BBBBB
ENDCHAR
STARTCHAR uni0306
ENCODING 774
SWIDTH 0 0
DWIDTH 0 0
BBX 5 3 -6 8
BITMAP
000010
270180
07BA20
ENDCHAR
STARTCHAR uni0307
ENCODING 775
SWIDTH 0 0
DWIDTH 0 0
BBX 2 2 -4 8
BITMAP
A5
C6
ENDCHAR
STARTCHAR uni0308
ENCODING 776
SWIDTH 0 0
DWIDTH 0 0
BBX 5 2 -6 8
BITMAP
4A03B0
5D05D0
ENDCHAR
STARTCHAR uni0309
ENCODING 777
SWIDTH 0 0
DWIDTH 0 0
BBX 4 3 -5 7
BITMAP
2781
11B2
0630
ENDCHAR
STARTCHAR uni030A
ENCODING 778
SWIDTH 0 0
DWIDTH 0 0
BBX 4 3 -5 7
BITMAP
3980
9182
3980
ENDCHAR
STARTCHAR uni030B
ENCODING 779
SWIDTH 0 0
DWIDTH 0 0
BBX 5 3 -5 8
BITMAP
021210
0D6E30
567500
ENDCHAR
STARTCHAR uni030C
ENCODING 780
SWIDTH 0 0
DWIDTH 0 0
BBX 4 2 -5 8
BITMAP
9155
2D90
ENDCHAR
STARTCHAR uni030D
ENCODING 781
SWIDTH 0 0
DWIDTH 0 0
BBX 2 3 -4 7
BITMAP
92
93
93
ENDCHAR
STARTCHAR uni030E
ENCODING 782
SWIDTH 0 0
DWIDTH 0 0
BBX 4 3 -5 7
BITMAP
9292
9293
9293
ENDCHAR
STARTCHAR uni030F
ENCODING 783
SWIDTH 0 0
DWIDTH 0 0
BBX 4 3 -6 8
BITMAP
2120
99B7
0A2A
ENDCHAR
STARTCHAR uni0310
ENCODING 784
SWIDTH 0 0
DWIDTH 0 0
BBX 5 3 -6 8
BITMAP
00C600
25A570
08BB30
ENDCHAR
STARTCHAR uni0311
ENCODING 785
SWIDTH 0 0
DWIDTH 0 0
BBX 5 3 -6 7
BITMAP
06BA10
190280
110020
ENDCHAR
STARTCHAR uni0312
ENCODING 786
SWIDTH 0 0
DWIDTH 0 0
BBX 3 4 -5 8
BITMAP
0130
0910
3E60
1D70
ENDCHAR
STARTCHAR uni0313
ENCODING 787
SWIDTH 0 0
DWIDTH 0 0
BBX 2 4 -4 7
BITMAP
B5
DA
27
60
ENDCHAR
STARTCHAR uni0314
ENCODING 788
SWIDTH 0 0
DWIDTH 0 0
BBX 3 4 -5 7
BITMAP
0B60
2F70
0900
0240
ENDCHAR
STARTCHAR uni0315
ENCODING 789
SWIDTH 0 0
DWIDTH 0 0
BBX 2 3 -4 7
BITMAP
4D
59
53
ENDCHAR
STARTCHAR uni0316
ENCODING 790
SWIDTH 0 0
DWIDTH 0 0
BBX 3 2 -5 -3
BITMAP
7C00
0840
ENDCHAR
STARTCHAR uni0317
ENCODING 791
SWIDTH 0 0
DWIDTH 0 0
BBX 3 2 -4 -3
BITMAP
2E40
8400
ENDCHAR
STARTCHAR uni0318
ENCODING 792
SWIDTH 0 0
DWIDTH 0 0
BBX 3 3 -5 -4
BITMAP
0070
28A0
0090
ENDCHAR
STARTCHAR uni0319
ENCODING 793
SWIDTH 0 0
DWIDTH 0 0
BBX 3 3 -5 -4
BITMAP
3500
3B70
3500
ENDCHAR
STARTCHAR uni031A
ENCODING 794
SWIDTH 0 0
DWIDTH 0 0
BBX 4 3 -5 7
BITMAP
8BC4
0074
0064
ENDCHAR
STARTCHAR uni031B
ENCODING 795
SWIDTH 0 0
DWIDTH 0 0
BBX 3 3 -3 6
BITMAP
0380
01C0
4740
ENDCHAR
STARTCHAR uni031C
ENCODING 796
SWIDTH 0 0
DWIDTH 0 0
BBX 3 3 -5 -4
BITMAP
1950
4600
0850
ENDCHAR
STARTCHAR uni031D
ENCODING 797
SWIDTH 0 0
DWIDTH 0 0
BBX 4 3 -5 -3
BITMAP
0200
0810
5A91
ENDCHAR
STARTCHAR uni031E
ENCODING 798
SWIDTH 0 0
DWIDTH 0 0
BBX 4 3 -5 -4
BITMAP
5A91
0810
0200
ENDCHAR
STARTCHAR uni031F
ENCODING 799
SWIDTH 0 0
DWIDTH 0 0
BBX 4 3 -5 -4
BITMAP
0610
5C81
0810
ENDCHAR
STARTCHAR uni0320
ENCODING 800
SWIDTH 0 0
DWIDTH 0 0
BBX 4 1 -5 -3
BITMAP
5881
ENDCHAR
STARTCHAR uni0321
ENCODING 801
SWIDTH 0 0
DWIDTH 0 0
BBX 4 5 -6 -4
BITMAP
0012
004D
005B
B367
8B80
ENDCHAR
STARTCHAR uni0322
ENCODING 802
SWIDTH 0 0
DWIDTH 0 0
BBX 5 5 -4 -4
BITMAP
120000
4D0000
3D0000
0D0860
039B30
ENDCHAR
STARTCHAR uni0323
ENCODING 803
SWIDTH 0 0
DWIDTH 0 0
BBX 2 2 -4 -3
BITMAP
A5
C6
ENDCHAR
STARTCHAR uni0324
ENCODING 804
SWIDTH 0 0
DWIDTH 0 0
BBX 5 2 -6 -3
BITMAP
4A03B0
5D05D0
ENDCHAR
STARTCHAR uni0325
ENCODING 805
SWIDTH 0 0
DWIDTH 0 0
BBX 4 3 -5 -4
BITMAP
3980
9182
3980
ENDCHAR
STARTCHAR uni0326
ENCODING 806
SWIDTH 0 0
DWIDTH 0 0
BBX 2 4 -4 -4
BITMAP
B6
DB
28
60
ENDCHAR
STARTCHAR uni0327
ENCODING 807
SWIDTH 0 0
DWIDTH 0 0
BBX 4 4 -5 -3
BITMAP
0400
0890
00B2
2880
ENDCHAR
STARTCHAR uni0328
ENCODING 808
SWIDTH 0 0
DWIDTH 0 0
BBX 4 4 -5 -3
BITMAP
0010
1810
8601
4C81
ENDCHAR
STARTCHAR uni0329
ENCODING 809
SWIDTH 0 0
DWIDTH 0 0
BBX 2 3 -4 -3
BITMAP
82
93
93
ENDCHAR
STARTCHAR uni032A
ENCODING 810
SWIDTH 0 0
DWIDTH 0 0
BBX 4 2 -5 -3
BITMAP
A896
9018
ENDCHAR
STARTCHAR uni032B
ENCODING 811
SWIDTH 0 0
DWIDTH 0 0
BBX 5 3 -6 -3
BITMAP
102020
639190
198A60
ENDCHAR
STARTCHAR uni032C
ENCODING 812
SWIDTH 0 0
DWIDTH 0 0
BBX 4 2 -5 -3
BITMAP
9155
2D90
ENDCHAR
STARTCHAR uni032D
ENCODING 813
SWIDTH 0 0
DWIDTH 0 0
BBX 4 2 -5 -3
BITMAP
2D90
9265
ENDCHAR
STARTCHAR uni032E
ENCODING 814
SWIDTH 0 0
DWIDTH 0 0
BBX 5 3 -6 -3
BITMAP
000010
270180
07BA20
ENDCHAR
STARTCHAR uni032F
ENCODING 815
SWIDTH 0 0
DWIDTH 0 0
BBX 5 3 -6 -4
BITMAP
06BA20
270180
110020
ENDCHAR
STARTCHAR uni0330
ENCODING 816
SWIDTH 0 0
DWIDTH 0 0
BBX 5 2 -6 -2
BITMAP
1BA370
516C50
ENDCHAR
STARTCHAR uni0331
ENCODING 817
SWIDTH 0 0
DWIDTH 0 0
BBX 5 1 -6 -2
BITMAP
3BBB90
ENDCHAR
STARTCHAR uni0332
ENCODING 818
SWIDTH 0 0
DWIDTH 0 0
BBX 8 1 -7 -2
BITMAP
9BBBBBB4
ENDCHAR
STARTCHAR uni0333
ENCODING 819
SWIDTH 0 0
DWIDTH 0 0
BBX 8 3 -7 -4
BITMAP
9BBBBBB4
00000000
9BBBBBB4
ENDCHAR
STARTCHAR uni0334
ENCODING 820
SWIDTH 0 0
DWIDTH 0 0
BBX 5 2 -6 3
BITMAP
1BA480
615C70
ENDCHAR
STARTCHAR uni0335
ENCODING 821
SWIDTH 0 0
DWIDTH 0 0
BBX 5 1 -6 3
BITMAP
5BBBB0
ENDCHAR
STARTCHAR uni0336
ENCODING 822
SWIDTH 0 0
DWIDTH 0 0
BBX 8 1 -7 3
BITMAP
9BBBBBB4
ENDCHAR
STARTCHAR uni0337
ENCODING 823
SWIDTH 0 0
DWIDTH 0 0
BBX 4 4 -5 3
BITMAP
0025
0581
9500
1000
ENDCHAR
STARTCHAR uni0338
ENCODING 824
SWIDTH 0 0
DWIDTH 0 0
BBX 6 12 -6 -2
BITMAP
000029
000083
0001B0
000650
000B00
004800
00A100
02A000
083000
1B0000
660000
B00000
ENDCHAR
STARTCHAR uni0339
ENCODING 825
SWIDTH 0 0
DWIDTH 0 0
BBX 2 3 -4 -4
BITMAP
94
0A
94
ENDCHAR
STARTCHAR uni033A
ENCODING 826
SWIDTH 0 0
DWIDTH 0 0
BBX 4 2 -5 -3
BITMAP
9018
A896
ENDCHAR
STARTCHAR uni033B
ENCODING 827
SWIDTH 0 0
DWIDTH 0 0
BBX 3 3 -5 -4
BITMAP
59A0
7280
59A0
ENDCHAR
STARTCHAR uni033C
ENCODING 828
SWIDTH 0 0
DWIDTH 0 0
BBX 5 2 -6 -3
BITMAP
3B7A90
108210
ENDCHAR
STARTCHAR uni033D
ENCODING 829
SWIDTH 0 0
DWIDTH 0 0
BBX 3 4 -5 7
BITMAP
1010
4990
2A80
2130
ENDCHAR
STARTCHAR uni033E
ENCODING 830
SWIDTH 0 0
DWIDTH 0 0
BBX 2 5 -4 7
BITMAP
54
C0
A4
57
71
ENDCHAR
STARTCHAR uni033F
ENCODING 831
SWIDTH 0 0
DWIDTH 0 0
BBX 6 3 -6 7
BITMAP
BBBBB6
000000
BBBBB6
ENDCHAR
STARTCHAR uni0346
ENCODING 838
SWIDTH 0 0
DWIDTH 0 0
BBX 5 3 -6 7
BITMAP
3CBBA0
4800C0
130040
ENDCHAR
STARTCHAR uni0347
ENCODING 839
SWIDTH 0 0
DWIDTH 0 0
BBX 5 2 -6 -3
BITMAP
5BBBB0
5BBBB0
ENDCHAR
STARTCHAR uni034C
ENCODING 844
SWIDTH 0 0
DWIDTH 0 0
BBX 5 4 -6 8
BITMAP
0AA150
424B70
0AB470
424C70
ENDCHAR
STARTCHAR uni034D
ENCODING 845
SWIDTH 0 0
DWIDTH 0 0
BBX 7 3 -7 -4
BITMAP
06200620
5FCBBDD0
06200620
ENDCHAR
STARTCHAR uni0359
ENCODING 857
SWIDTH 0 0
DWIDTH 0 0
BBX 5 5 -6 -5
BITMAP
009200
2A8590
04C810
2B85A0
009200
ENDCHAR
STARTCHAR uni035C
ENCODING 860
SWIDTH 0 0
DWIDTH 0 0
BBX 10 3 -5 -3
BITMAP
4000000005
6820000296
04ABBBCA40
ENDCHAR
STARTCHAR uni0360
ENCODING 864
SWIDTH 0 0
DWIDTH 0 0
BBX 8 2 -4 8
BITMAP
1AC93014
41049CA1
ENDCHAR
STARTCHAR uni0361
ENCODING 865
SWIDTH 0 0
DWIDTH 0 0
BBX 8 3 -4 7
BITMAP
04ABBA40
38100192
20000002
ENDCHAR
STARTCHAR uni0362
ENCODING 866
SWIDTH 0 0
DWIDTH 0 0
BBX 12 3 -6 -4
BITMAP
000000000250
3BBBBBBBBBF4
000000000260
ENDCHAR
STARTCHAR uni037E
ENCODING 894
SWIDTH 261 0
DWIDTH 4 0
BBX 2 9 1 -2
BITMAP
C8
21
00
00
00
11
DC
0B
73
ENDCHAR
STARTCHAR tonos
ENCODING 900
SWIDTH 165 0
DWIDTH 2 0
BBX 2 3 0 8
BITMAP
12
7A
83
ENDCHAR
STARTCHAR dieresistonos
ENCODING 901
SWIDTH 426 0
DWIDTH 6 0
BBX 6 3 0 8
BITMAP
001200
7B89C6
019210
ENDCHAR
STARTCHAR Alphatonos
ENCODING 902
SWIDTH 718 0
DWIDTH 10 0
BBX 10 10 0 0
BITMAP
2D10000000
3C00870000
4601DD0000
00074E5000
000A08C000
005502F400
00A999DB00
0380004F20
0A30000E90
8F80005EF8
ENDCHAR
STARTCHAR anoteleia
ENCODING 903
SWIDTH 261 0
DWIDTH 4 0
BBX 2 2 1 5
BITMAP
C8
21
ENDCHAR
STARTCHAR Epsilontonos
ENCODING 904
SWIDTH 745 0
DWIDTH 10 0
BBX 11 10 -1 0
BITMAP
0D3000000000
1E05DE99AD80
28007C000060
00007C000700
00007C003700
00007E89C700
00007C000200
00007C000080
00007C0001B0
0006DE99AEB0
ENDCHAR
STARTCHAR Etatonos
ENCODING 905
SWIDTH 896 0
DWIDTH 13 0
BBX 13 10 -1 0
BITMAP
0D300000000000
1E06DF8107EE70
28008D00009B00
00007C00009A00
00007C00009A00
00007E8888CA00
00007C00009A00
00007C00009A00
00007C00009B00
0005DF8107EE70
ENDCHAR
STARTCHAR Iotatonos
ENCODING 906
SWIDTH 478 0
DWIDTH 7 0
BBX 8 10 -1 0
BITMAP
0D300000
1E06DF81
28007D00
00007C00
00007C00
00007C00
00007C00
00007C00
00007D00
0006DF81
ENDCHAR
STARTCHAR Omicrontonos
ENCODING 908
SWIDTH 806 0
DWIDTH 11 0
BBX 12 10 -1 0
BITMAP
0D3000000000
1E004A99B600
2805E2001C90
000E700004F3
003F400000F7
005F300000E8
003F400000F7
000E800003F2
0005E2001B80
00004A99A600
ENDCHAR
STARTCHAR Upsilontonos
ENCODING 910
SWIDTH 787 0
DWIDTH 11 0
BBX 12 10 -1 0
BITMAP
4C0000000000
5919FD4008F8
64008E100560
00000DA01A00
000004F48300
0000009D8000
0000002F2000
0000002F2000
0000002F3000
000003AFB400
ENDCHAR
STARTCHAR Omegatonos
ENCODING 911
SWIDTH 830 0
DWIDTH 12 0
BBX 12 10 -1 0
BITMAP
0D303AEEC600
1E04FC548F90
280CD10008F3
001F800002F7
002F600000F7
000F700002F5
0009B00006E1
0041D3000C54
00755C10983B
006FFF60FFFB
ENDCHAR
STARTCHAR iotadieresistonos
ENCODING 912
SWIDTH 259 0
DWIDTH 4 0
BBX 6 11 -1 0
BITMAP
00A900
98B4E2
118020
000000
00F300
00F200
01F000
01D000
02C000
01E120
00AE30
ENDCHAR
STARTCHAR Alpha
ENCODING 913
SWIDTH 718 0
DWIDTH 10 0
BBX 10 9 0 0
BITMAP
0000870000
0001DD0000
00074E5000
000A08C000
005502F400
00A999DB00
0380004F20
0A30000E90
8F80005EF8
ENDCHAR
STARTCHAR Beta
ENCODING 914
SWIDTH 618 0
DWIDTH 9 0
BBX 9 9 0 0
BITMAP
3AFA9BA100
02F200D800
02F200BA00
02F202C300
02FAAE8100
02F202BC00
02F2005F20
02F2008D00
3AF98AB300
ENDCHAR
STARTCHAR Gamma
ENCODING 915
SWIDTH 569 0
DWIDTH 8 0
BBX 8 10 0 0
BITMAP
6FFFFFF9
17F5338A
02F20008
02F20000
02F20000
02F20000
02F20000
02F20000
18F82000
6FFF9000
ENDCHAR
STARTCHAR Delta
ENCODING 916
SWIDTH 667 0
DWIDTH 9 0
BBX 9 10 0 0
BITMAP
0000C30000
0003F90000
00098E0000
001A1F6000
00740AC000
00B005F300
057000E900
0A10008E00
2B22225F60
8FFFFFFFB0
ENDCHAR
STARTCHAR Epsilon
ENCODING 917
SWIDTH 626 0
DWIDTH 9 0
BBX 9 9 0 0
BITMAP
3AFA9ABD00
02F2000600
02F2007000
02F200A000
02F98BC000
02F2003000
02F2000350
02F2000A30
3AFA9ACF10
ENDCHAR
STARTCHAR Zeta
ENCODING 918
SWIDTH 594 0
DWIDTH 8 0
BBX 8 9 0 0
BITMAP
0FCAAAFB
190007E2
12003F50
0001D900
000AD100
006F3000
02E70004
0CB0001A
7FCAABE9
ENDCHAR
STARTCHAR Eta
ENCODING 919
SWIDTH 777 0
DWIDTH 11 0
BBX 11 9 0 0
BITMAP
3BFA304CF920
03F20004F100
02F20004F000
02F20004F000
02F9888AF000
02F20004F000
02F20004F000
02F20004F000
3AFA304BF920
ENDCHAR
STARTCHAR Theta
ENCODING 920
SWIDTH 738 0
DWIDTH 10 0
BBX 10 10 0 0
BITMAP
003AEEC500
03EC549F70
0CD00008F2
2F600001F6
4F461070E9
4F48FFD0E9
2F763371F7
0CD00007F2
03EB448F80
003AEEC600
ENDCHAR
STARTCHAR Iota
ENCODING 921
SWIDTH 357 0
DWIDTH 5 0
BBX 5 9 0 0
BITMAP
3BFA30
03F200
02F200
02F200
02F200
02F200
02F200
02F200
3AFA30
ENDCHAR
STARTCHAR Kappa
ENCODING 922
SWIDTH 702 0
DWIDTH 10 0
BBX 10 9 0 0
BITMAP
3BFA32CF81
03F201B300
02F21A2000
02F3A20000
02FCA00000
02F4DA0000
02F21CB000
02F201DB10
3AFA32BFC5
ENDCHAR
STARTCHAR Lambda
ENCODING 923
SWIDTH 710 0
DWIDTH 10 0
BBX 10 10 0 0
BITMAP
0000A50000
0001EC0000
00075F3000
000A0BA000
004705F200
00A100E800
02A0008E10
0840002F60
5E50004FE4
EFF000DFFD
ENDCHAR
STARTCHAR Mu
ENCODING 924
SWIDTH 895 0
DWIDTH 13 0
BBX 12 9 0 0
BITMAP
4CF700001EE7
05EE00006EA0
048F5000B9A0
046AC00489A0
0463F30A19A0
0460CA2909A0
04605FA309A0
05700DB009A0
4CD507506EE7
ENDCHAR
STARTCHAR Nu
ENCODING 925
SWIDTH 742 0
DWIDTH 10 0
BBX 10 9 0 0
BITMAP
4DF3002AF8
04FD1000C0
048DB000B0
0463F800B0
04605F50B0
046008E2B0
046000BDB0
0570001DB0
4CD50003A0
ENDCHAR
STARTCHAR Xi
ENCODING 926
SWIDTH 648 0
DWIDTH 9 0
BBX 9 10 0 0
BITMAP
1FFFFFFF20
1B33333A20
1300000210
0081008000
00CFFFC000
0093339000
1000000010
5300000260
4A44444950
3FFFFFFF40
ENDCHAR
STARTCHAR Omicron
ENCODING 927
SWIDTH 738 0
DWIDTH 10 0
BBX 10 9 0 0
BITMAP
003A99B700
04E3001CA0
0D800003F4
3F400000E8
4F300000D9
3F500000E7
0D800003F3
05E2000B90
004A99A600
ENDCHAR
STARTCHAR Pi
ENCODING 928
SWIDTH 759 0
DWIDTH 11 0
BBX 11 10 0 0
BITMAP
8FFFFFFFFF20
28F53339E400
02F20008C000
02F20008C000
02F20008C000
02F20008C000
02F20008C000
02F20008C000
27F7103CE400
8FFF70CFFF20
ENDCHAR
STARTCHAR Rho
ENCODING 929
SWIDTH 569 0
DWIDTH 8 0
BBX 8 9 0 0
BITMAP
2AFA9C80
02F201E7
02F200C8
02F203E3
02F99830
02F20000
02F20000
02F30000
2AFB4000
ENDCHAR
STARTCHAR Sigma
ENCODING 931
SWIDTH 604 0
DWIDTH 8 0
BBX 8 10 0 0
BITMAP
8FFFFFF8
1DB33389
02E60008
005F3000
0008D000
00058000
002A0000
01B10008
0B63335C
7FFFFFFA
ENDCHAR
STARTCHAR Tau
ENCODING 932
SWIDTH 603 0
DWIDTH 8 0
BBX 9 9 0 0
BITMAP
ADACEABF20
A107D00830
3007D00210
0007D00000
0007D00000
0007D00000
0007D00000
0007D00000
005DF82000
ENDCHAR
STARTCHAR Upsilon
ENCODING 933
SWIDTH 647 0
DWIDTH 9 0
BBX 10 9 0 0
BITMAP
9FE5007F91
08F2005700
00CB00A000
003F573000
0008D90000
0001F30000
0001F30000
0001F30000
003AFB4000
ENDCHAR
STARTCHAR Phi
ENCODING 934
SWIDTH 718 0
DWIDTH 10 0
BBX 10 10 0 0
BITMAP
000FFFF000
0006DD6100
06C6BB7D80
3F209A02F5
7E009A00E8
6F109A00E6
1D909A06D1
0179CC8710
0004DD4000
000FFFF000
ENDCHAR
STARTCHAR Chi
ENCODING 935
SWIDTH 664 0
DWIDTH 9 0
BBX 10 9 0 0
BITMAP
5DF9119E81
02E8009400
005F348000
000AC90000
0002F80000
000A6F3000
00850AD100
059001E900
7E9104EF91
ENDCHAR
STARTCHAR Psi
ENCODING 936
SWIDTH 720 0
DWIDTH 10 0
BBX 10 10 0 0
BITMAP
D90FFFF18E
6F34DD41F7
1F409A02F2
1F409A02F2
1F609A05F2
0BD39A3CC0
01AFFFFB20
0001AB1000
0003CD4000
000FFFF100
ENDCHAR
STARTCHAR Omega
ENCODING 937
SWIDTH 777 0
DWIDTH 11 0
BBX 11 10 0 0
BITMAP
0018DFD81000
01DE647ED100
08F30004F700
0CC00000DB00
0DA00000BB00
0BB00000D900
05E10002F300
21B700089220
393C405B3A10
2FFFA0BFFF00
ENDCHAR
STARTCHAR Iotadieresis
ENCODING 938
SWIDTH 357 0
DWIDTH 5 0
BBX 5 12 0 0
BITMAP
540450
A808A0
000000
3BFA30
03F200
02F200
02F200
02F200
02F200
02F200
02F200
3AFA30
ENDCHAR
STARTCHAR Upsilondieresis
ENCODING 939
SWIDTH 647 0
DWIDTH 9 0
BBX 10 12 0 0
BITMAP
0036027000
006C05D000
0000000000
9FE5007F91
08F2005700
00CB00A000
003F573000
0008D90000
0001F30000
0001F30000
0001F30000
003AFB4000
ENDCHAR
STARTCHAR alphatonos
ENCODING 940
SWIDTH 561 0
DWIDTH 8 0
BBX 8 11 0 0
BITMAP
00069000
00096000
00091000
00000000
03CE72F3
1C4299A0
65001F20
82002B00
73006B00
4B257C34
09E909D3
ENDCHAR
STARTCHAR epsilontonos
ENCODING 941
SWIDTH 381 0
DWIDTH 5 0
BBX 5 11 0 0
BITMAP
000A50
000D20
000A00
000000
06DEC0
3D5450
190100
08A900
480000
5C44A0
09EE70
ENDCHAR
STARTCHAR etatonos
ENCODING 942
SWIDTH 510 0
DWIDTH 7 0
BBX 8 15 -1 -4
BITMAP
00002D10
00003C00
00004600
00000000
07E36E80
1797A4D1
004C1093
005B0073
00780083
00A70093
00C600B3
000000D2
000001F1
000003F1
00000110
ENDCHAR
STARTCHAR iotatonos
ENCODING 943
SWIDTH 259 0
DWIDTH 4 0
BBX 4 11 0 0
BITMAP
06A0
0870
0910
0000
0F30
0F20
1F00
1D00
2C00
1E12
0AE3
ENDCHAR
STARTCHAR upsilondieresistonos
ENCODING 944
SWIDTH 491 0
DWIDTH 7 0
BBX 8 11 -1 0
BITMAP
0004E000
04D69A80
00253110
00000000
08E40730
16C600C0
00A300B3
00B000B3
00B001E1
00B64BA0
004DEA10
ENDCHAR
STARTCHAR alpha
ENCODING 945
SWIDTH 561 0
DWIDTH 8 0
BBX 8 7 0 0
BITMAP
03CE72F3
1C4299A0
65001F20
82002B00
73006B00
4B257C34
09E909D3
ENDCHAR
STARTCHAR beta
ENCODING 946
SWIDTH 530 0
DWIDTH 7 0
BBX 7 14 0 -3
BITMAP
002BEB10
00B73A60
04800380
08300550
0B103800
0C1FB300
0D010930
0E0002A0
1F2001D0
2EA44AA0
3E3DEA10
4E000000
4E000000
5C000000
ENDCHAR
STARTCHAR gamma
ENCODING 947
SWIDTH 466 0
DWIDTH 7 0
BBX 7 10 0 -3
BITMAP
7E404F20
77B09A00
00C0E300
00A4B000
00894000
007A0000
00760000
00C50000
01F40000
02D10000
ENDCHAR
STARTCHAR delta
ENCODING 948
SWIDTH 479 0
DWIDTH 7 0
BBX 7 11 0 0
BITMAP
02CEB200
0684BC00
02B10300
004D3000
01AEE300
0C839C00
56001F20
71000C30
73000E10
4C44B900
08EE9000
ENDCHAR
STARTCHAR epsilon
ENCODING 949
SWIDTH 381 0
DWIDTH 5 0
BBX 5 7 0 0
BITMAP
06DEC0
3D5450
190100
08A900
480000
5C44A0
09EE70
ENDCHAR
STARTCHAR zeta
ENCODING 950
SWIDTH 386 0
DWIDTH 5 0
BBX 6 15 0 -4
BITMAP
007100
01D07A
007CD6
00A900
06A000
1C0000
550000
710000
740000
3EA610
05CFE2
000186
000182
00DD40
002000
ENDCHAR
STARTCHAR eta
ENCODING 951
SWIDTH 510 0
DWIDTH 7 0
BBX 8 11 -1 -4
BITMAP
07E36E80
1797A4D1
004C1093
005B0073
00780083
00A70093
00C600B3
000000D2
000001F1
000003F1
00000110
ENDCHAR
STARTCHAR theta
ENCODING 952
SWIDTH 514 0
DWIDTH 7 0
BBX 7 11 0 0
BITMAP
008EC200
06B48C00
0B100B20
19000650
36000470
4FFFFF80
48333570
38000460
0C000920
08A48B00
01AFC200
ENDCHAR
STARTCHAR iota
ENCODING 953
SWIDTH 259 0
DWIDTH 4 0
BBX 4 7 0 0
BITMAP
0F30
0F20
1F00
1D00
2C00
1E12
0AE3
ENDCHAR
STARTCHAR kappa
ENCODING 954
SWIDTH 495 0
DWIDTH 7 0
BBX 8 7 -1 0
BITMAP
08E502B6
17A92EA2
0058C500
005CA000
006C8300
00882C45
00A708E5
ENDCHAR
STARTCHAR lambda
ENCODING 955
SWIDTH 506 0
DWIDTH 7 0
BBX 8 10 0 0
BITMAP
04E80000
054D0000
00083000
00085000
001D7000
0087A000
01E1B000
0990C100
2F30A951
9C003E90
ENDCHAR
STARTCHAR mu
ENCODING 956
SWIDTH 552 0
DWIDTH 8 0
BBX 8 10 0 -3
BITMAP
0F500E50
0F200E20
0E000E00
0D001C00
0D006C00
1F639C34
3BCD28E4
4B000000
5C000000
6A000000
ENDCHAR
STARTCHAR nu
ENCODING 957
SWIDTH 453 0
DWIDTH 6 0
BBX 7 8 -1 -1
BITMAP
09E30780
16A804F0
003A04E0
000B08A0
000A1E20
0009A600
000E9000
00030000
ENDCHAR
STARTCHAR xi
ENCODING 958
SWIDTH 390 0
DWIDTH 5 0
BBX 6 14 0 -3
BITMAP
064000
0A65C5
02DA61
0C3000
0B0000
04ADC0
181210
620000
770000
2EEA50
029DF6
000048
002374
009C50
ENDCHAR
STARTCHAR omicron
ENCODING 959
SWIDTH 475 0
DWIDTH 7 0
BBX 7 7 0 0
BITMAP
03CEC200
1D648B00
66000A10
82000820
74000A00
3D649900
06DE9100
ENDCHAR
STARTCHAR pi
ENCODING 960
SWIDTH 591 0
DWIDTH 8 0
BBX 8 7 0 0
BITMAP
1AEFFFFE
75583A43
00550A00
00920C00
01D00D00
06B01F54
0D700BE4
ENDCHAR
STARTCHAR rho
ENCODING 961
SWIDTH 515 0
DWIDTH 7 0
BBX 7 10 0 -3
BITMAP
007DE800
05C54B50
0B100190
0C0000A0
1E100480
2DA45D20
2C5ED500
2E000000
2F000000
2D100000
ENDCHAR
STARTCHAR uni03C2
ENCODING 962
SWIDTH 377 0
DWIDTH 5 0
BBX 6 10 0 -3
BITMAP
04CFD0
2C5340
630000
720000
5B1000
0CE920
017DE1
000084
003491
00AB30
ENDCHAR
STARTCHAR sigma
ENCODING 963
SWIDTH 545 0
DWIDTH 8 0
BBX 8 7 0 0
BITMAP
03BFFFF9
0D734931
57000A10
73000840
75000B40
2E648D00
06EEB200
ENDCHAR
STARTCHAR tau
ENCODING 964
SWIDTH 392 0
DWIDTH 5 0
BBX 6 7 0 0
BITMAP
4CFFF7
948531
009100
00C000
00D000
00E650
009E50
ENDCHAR
STARTCHAR upsilon
ENCODING 965
SWIDTH 491 0
DWIDTH 7 0
BBX 8 7 -1 0
BITMAP
08E40730
16C600C0
00A300B3
00B000B3
00B001E1
00B64BA0
004DEA10
ENDCHAR
STARTCHAR phi
ENCODING 966
SWIDTH 603 0
DWIDTH 8 0
BBX 8 11 0 -3
BITMAP
00120000
04E94DD2
1D50D56A
6503900A
7205700A
5606603A
1D8998D3
029EE920
00087000
00098000
00096000
ENDCHAR
STARTCHAR chi
ENCODING 967
SWIDTH 462 0
DWIDTH 6 0
BBX 8 10 -1 -3
BITMAP
0AE200DA
267A06E1
000A1D40
0006A900
0004D100
000CA000
007AA100
03E27500
0C803D34
7E100AE3
ENDCHAR
STARTCHAR psi
ENCODING 968
SWIDTH 620 0
DWIDTH 9 0
BBX 9 13 -1 -3
BITMAP
00000F3000
00000E2000
00000D0000
07E40D0830
16B60D02B0
00940D00E0
00B00D00E0
00B00C04D0
00894D7E60
001AEFC500
00002D0000
00004E0000
00005C0000
ENDCHAR
STARTCHAR omega
ENCODING 969
SWIDTH 660 0
DWIDTH 9 0
BBX 9 8 0 0
BITMAP
0001001000
04E4004800
1E60620A30
6600F50580
7300F203B0
6400B005A0
2C46C55D60
07EA1CE900
ENDCHAR
STARTCHAR iotadieresis
ENCODING 970
SWIDTH 259 0
DWIDTH 4 0
BBX 5 10 -1 0
BITMAP
6C05D0
020020
000000
00F300
00F200
01F000
01D000
02C000
01E120
00AE30
ENDCHAR
STARTCHAR upsilondieresis
ENCODING 971
SWIDTH 491 0
DWIDTH 7 0
BBX 8 10 -1 0
BITMAP
01E40D50
00200200
00000000
08E40730
16C600C0
00A300B3
00B000B3
00B001E1
00B64BA0
004DEA10
ENDCHAR
STARTCHAR omicrontonos
ENCODING 972
SWIDTH 475 0
DWIDTH 7 0
BBX 7 11 0 0
BITMAP
0006A000
00087000
00091000
00000000
03CEC200
1D648B00
66000A10
82000820
74000A00
3D649900
06DE9100
ENDCHAR
STARTCHAR upsilontonos
ENCODING 973
SWIDTH 491 0
DWIDTH 7 0
BBX 8 11 -1 0
BITMAP
0000A600
0000D200
0000A000
00000000
08E40730
16C600C0
00A300B3
00B000B3
00B001E1
00B64BA0
004DEA10
ENDCHAR
STARTCHAR omegatonos
ENCODING 974
SWIDTH 660 0
DWIDTH 9 0
BBX 9 11 0 0
BITMAP
0000790000
0000A50000
0000A00000
0001001000
04E4004800
1E60620A30
6600F50580
7300F203B0
6400B005A0
2C46C55D60
07EA1CE900
ENDCHAR
STARTCHAR uni03D0
ENCODING 976
SWIDTH 438 0
DWIDTH 6 0
BBX 6 11 0 0
BITMAP
002CE3
00C649
066007
0BA228
1C5FF3
3B0110
4CBEB1
2E7467
1E1007
09A478
01BEB1
ENDCHAR
STARTCHAR uni03D1
ENCODING 977
SWIDTH 541 0
DWIDTH 8 0
BBX 8 11 0 0
BITMAP
007EC100
03B47A00
06300A10
04500640
00A31491
002BFFE1
3E901480
76C00470
01C00840
00C46D10
006ED500
ENDCHAR
STARTCHAR uni03D2
ENCODING 978
SWIDTH 616 0
DWIDTH 9 0
BBX 9 10 0 0
BITMAP
4DE601CE40
44BE1A7C90
000E6A0530
0009C50000
0006F10000
0006E00000
0005E00000
0006E00000
003AF51000
00CFFF6000
ENDCHAR
STARTCHAR uni03D5
ENCODING 981
SWIDTH 575 0
DWIDTH 8 0
BBX 8 13 0 -3
BITMAP
0003F100
0003E000
0004D000
019EFC30
0CA9B8E1
58058066
83067028
75076056
2E6987D1
04CFEA20
000A5000
000D4000
000E4000
ENDCHAR
STARTCHAR uni03D6
ENCODING 982
SWIDTH 821 0
DWIDTH 12 0
BBX 12 7 0 0
BITMAP
3CFFFFFFFFF7
949A33336A31
00B007900D00
019009900C20
00A008500E10
00B64A949C00
002DE36EC300
ENDCHAR
STARTCHAR uni03D8
ENCODING 984
SWIDTH 627 0
DWIDTH 9 0
BBX 9 10 0 0
BITMAP
019DFD7000
0CD647F900
5F40008F10
7F00004F40
6F00004F20
2F30006D00
06C314C300
0029F61000
0004F00000
004CF92000
ENDCHAR
STARTCHAR uni03D9
ENCODING 985
SWIDTH 475 0
DWIDTH 7 0
BBX 7 10 0 -3
BITMAP
03CEC200
1D648B00
66000A10
82000820
74000A00
2D76A900
05CE8000
00490000
006A0000
008A0000
ENDCHAR
STARTCHAR uni03DA
ENCODING 986
SWIDTH 578 0
DWIDTH 8 0
BBX 8 10 0 0
BITMAP
008DFFF6
0AD646E6
3F400046
7F000000
7F000000
5F400000
0DD51000
02BFFB00
0001AB00
0007EE70
ENDCHAR
STARTCHAR uni03DB
ENCODING 987
SWIDTH 490 0
DWIDTH 7 0
BBX 7 10 0 -3
BITMAP
019DFFD0
1B643330
63000000
72000000
5A100000
1DE81000
018DC000
0000A100
00359000
00DA1000
ENDCHAR
STARTCHAR uni03DC
ENCODING 988
SWIDTH 588 0
DWIDTH 8 0
BBX 8 9 0 0
BITMAP
3AFBAABE
02F20006
02F20080
02F200A0
02F98BB0
02F20030
02F20000
02F30000
3AFA4000
ENDCHAR
STARTCHAR uni03DD
ENCODING 989
SWIDTH 386 0
DWIDTH 5 0
BBX 8 11 -2 -4
BITMAP
000DFFF4
000D4330
000D1000
000C1000
000CBE60
000C1200
000B0000
00190000
21850000
4FC00000
02000000
ENDCHAR
STARTCHAR uni03DE
ENCODING 990
SWIDTH 525 0
DWIDTH 7 0
BBX 7 10 0 0
BITMAP
04FFC000
019C3000
00A20000
04700000
0B100000
7FFFFFD0
23333930
00005500
0017D200
006FFA00
ENDCHAR
STARTCHAR uni03DF
ENCODING 991
SWIDTH 434 0
DWIDTH 6 0
BBX 7 10 -1 0
BITMAP
0CD00000
34D20000
00910000
00900100
0086BD00
03FD8900
02303600
00006500
00008860
00005E60
ENDCHAR
STARTCHAR uni03E0
ENCODING 992
SWIDTH 697 0
DWIDTH 10 0
BBX 10 10 0 0
BITMAP
0009D00000
0002F50000
0000ED0000
00068F5000
000B0BD000
00661CF500
00B084BC00
0761B03F50
1C08405FD3
761C00FFFC
ENDCHAR
STARTCHAR uni03E1
ENCODING 993
SWIDTH 458 0
DWIDTH 6 0
BBX 7 14 -1 -4
BITMAP
3D600000
08FA0000
004E9000
0003E400
0015BC00
06EA1C20
02400670
00059BA0
001D71C0
000000C0
000000B0
00000190
00000440
00000100
ENDCHAR
STARTCHAR uni03F0
ENCODING 1008
SWIDTH 504 0
DWIDTH 7 0
BBX 8 7 0 0
BITMAP
6E400BC0
57906E20
00A2E400
008BB000
01DB7000
08E2B441
4F504EB0
ENDCHAR
STARTCHAR uni03F1
ENCODING 1009
SWIDTH 467 0
DWIDTH 7 0
BBX 6 10 0 -3
BITMAP
01AED4
09636C
19000A
3D214C
4BDFE5
2E2210
0BE700
018E70
013570
01D800
ENDCHAR
STARTCHAR uni03F4
ENCODING 1012
SWIDTH 737 0
DWIDTH 10 0
BBX 10 10 0 0
BITMAP
003AEEC500
03EA548F80
0CA00006F2
2F400000E7
4FFFFFFFF9
4F633333E8
2F600001F6
0CC00007F1
03EB548F70
003AEEC500
ENDCHAR
STARTCHAR uni03F5
ENCODING 1013
SWIDTH 380 0
DWIDTH 5 0
BBX 5 7 0 0
BITMAP
04DFC0
1B4450
540100
7FFF10
673200
2C4480
05DE80
ENDCHAR
STARTCHAR uni03F6
ENCODING 1014
SWIDTH 382 0
DWIDTH 5 0
BBX 5 7 0 0
BITMAP
6EE800
354850
010090
0BFFC0
0133A0
654A60
4DE900
ENDCHAR
STARTCHAR uni0400
ENCODING 1024
SWIDTH 626 0
DWIDTH 9 0
BBX 9 12 0 0
BITMAP
000BB00000
0000770000
0000000000
3AFA9ABD00
02F2000600
02F2007000
02F200A000
02F98BC000
02F2003000
02F2000350
02F2000A30
3AFA9ACF10
ENDCHAR
STARTCHAR uni0401
ENCODING 1025
SWIDTH 626 0
DWIDTH 9 0
BBX 9 12 0 0
BITMAP
0054045000
00A809A000
0000000000
3AFA9ABD00
02F2000600
02F2007000
02F200A000
02F98BC000
02F2003000
02F2000350
02F2000A30
3AFA9ACF10
ENDCHAR
STARTCHAR uni0402
ENCODING 1026
SWIDTH 731 0
DWIDTH 10 0
BBX 10 9 0 0
BITMAP
9DACEAAE50
9007D00460
0007D00000
0007E9BC70
0007D103E7
0007D0009B
0007D0008B
0007D370A8
005DD3D890
ENDCHAR
STARTCHAR uni0403
ENCODING 1027
SWIDTH 548 0
DWIDTH 8 0
BBX 8 12 0 0
BITMAP
0001D800
00095000
00000000
3AFBABF5
02F20065
02F20024
02F20000
02F20000
02F20000
02F20000
03F30000
3AFB4000
ENDCHAR
STARTCHAR uni0404
ENCODING 1028
SWIDTH 668 0
DWIDTH 9 0
BBX 9 9 0 0
BITMAP
004A9ADF70
05C1001B70
0E40000370
3FA9996020
4F30000000
3F50000000
0EA0000030
06F7001850
005BEDB400
ENDCHAR
STARTCHAR uni0405
ENCODING 1029
SWIDTH 504 0
DWIDTH 7 0
BBX 7 9 0 0
BITMAP
05AADF10
3E101D20
4F200620
0BE60000
007ED400
0002BF30
71000D80
78000D60
6FCAB800
ENDCHAR
STARTCHAR uni0406
ENCODING 1030
SWIDTH 357 0
DWIDTH 5 0
BBX 5 9 0 0
BITMAP
3BFA30
03F200
02F200
02F200
02F200
02F200
02F200
02F200
3AFA30
ENDCHAR
STARTCHAR uni0407
ENCODING 1031
SWIDTH 357 0
DWIDTH 5 0
BBX 5 12 0 0
BITMAP
540450
A808A0
000000
3BFA30
03F200
02F200
02F200
02F200
02F200
02F200
02F200
3AFA30
ENDCHAR
STARTCHAR uni0408
ENCODING 1032
SWIDTH 396 0
DWIDTH 6 0
BBX 6 9 0 0
BITMAP
05CF92
005F00
005F00
005F00
005F00
005F00
005F00
925D00
ACA500
ENDCHAR
STARTCHAR uni0409
ENCODING 1033
SWIDTH 924 0
DWIDTH 13 0
BBX 14 9 -1 0
BITMAP
0006E99DD60000
0000A00A900000
0000A00A900000
0000A00AD9A920
0001900A9009E2
0004600A9001F6
0009200A9000F6
196B000B9005E2
2ED2006FD9AB30
ENDCHAR
STARTCHAR uni040A
ENCODING 1034
SWIDTH 1013 0
DWIDTH 14 0
BBX 14 9 0 0
BITMAP
3BFB305DF81000
03F30007D00000
02F20006D00000
02F20006D00000
02FA999BEABB60
02F20006D004E7
02F20006D000BB
02F20007D001E7
3AFA304CE99B70
ENDCHAR
STARTCHAR uni040B
ENCODING 1035
SWIDTH 761 0
DWIDTH 11 0
BBX 11 9 0 0
BITMAP
9DACEAAE5000
9007D0036000
0007D0000000
0007E8AC7000
0007D104F300
0007D000E500
0007D000E600
0007D000E600
005DF808FC30
ENDCHAR
STARTCHAR uni040C
ENCODING 1036
SWIDTH 658 0
DWIDTH 9 0
BBX 10 12 0 0
BITMAP
00003E5000
0001A30000
0000000000
3AFA303DD0
02F300A580
02F2028000
02F2073000
02F9BB0000
02F22E6000
02F206E100
02F300C900
3AFA304F93
ENDCHAR
STARTCHAR uni040D
ENCODING 1037
SWIDTH 780 0
DWIDTH 11 0
BBX 11 12 0 0
BITMAP
000AC0000000
000078000000
000000000000
3AFA304BFA30
02F30006F100
02F2003BF100
02F20294F100
02F21A14F100
02F39204F100
02FA3004F100
02F60004F100
3AFA304BFA30
ENDCHAR
STARTCHAR uni040E
ENCODING 1038
SWIDTH 625 0
DWIDTH 9 0
BBX 9 13 0 0
BITMAP
007A05C000
008803E000
0017782000
0000000000
8FD4009F90
08C0004900
01E5009100
006D028000
000D791000
0005E80000
0000C20000
0666800000
09FA000000
ENDCHAR
STARTCHAR uni040F
ENCODING 1039
SWIDTH 759 0
DWIDTH 11 0
BBX 11 12 0 -3
BITMAP
3AFA305DF710
02F30008C000
02F20008C000
02F20008C000
02F20008C000
02F20008C000
02F20008C000
02F20008C000
3AFA999CF710
00001A000000
00004E000000
00004D000000
ENDCHAR
STARTCHAR uni0410
ENCODING 1040
SWIDTH 718 0
DWIDTH 10 0
BBX 10 9 0 0
BITMAP
0000870000
0001DD0000
00074E5000
000A08C000
005502F400
00A999DB00
0380004F20
0A30000E90
8F80005EF8
ENDCHAR
STARTCHAR uni0411
ENCODING 1041
SWIDTH 617 0
DWIDTH 9 0
BBX 8 9 0 0
BITMAP
3AFBAAE7
02F20027
02F20001
02FA9A60
02F202D9
02F2007E
02F2006E
03F200C9
3AFA9B81
ENDCHAR
STARTCHAR uni0412
ENCODING 1042
SWIDTH 618 0
DWIDTH 9 0
BBX 9 9 0 0
BITMAP
3AFA9BA100
02F200D800
02F200BA00
02F202C300
02FAAE8100
02F202BC00
02F2005F20
02F2008D00
3AF98AB300
ENDCHAR
STARTCHAR uni0413
ENCODING 1043
SWIDTH 548 0
DWIDTH 8 0
BBX 8 9 0 0
BITMAP
3AFBABF5
02F20065
02F20024
02F20000
02F20000
02F20000
02F20000
03F30000
3AFB4000
ENDCHAR
STARTCHAR uni0414
ENCODING 1044
SWIDTH 663 0
DWIDTH 9 0
BBX 9 12 0 -3
BITMAP
02ADAAEC50
003800D600
004700D600
006500D600
009200D600
00B000D600
038000D600
0A2000D600
BD9999ED60
F3000007A0
B0000001A0
6000000060
ENDCHAR
STARTCHAR uni0415
ENCODING 1045
SWIDTH 626 0
DWIDTH 9 0
BBX 9 9 0 0
BITMAP
3AFA9ABD00
02F2000600
02F2007000
02F200A000
02F98BC000
02F2003000
02F2000350
02F2000A30
3AFA9ACF10
ENDCHAR
STARTCHAR uni0416
ENCODING 1046
SWIDTH 937 0
DWIDTH 13 0
BBX 14 9 0 0
BITMAP
8E603AFB305EA0
56B101F300B660
004601F3046000
000A01F3091000
0007C9F9B90000
002E41F32E3000
00BA01F308C000
05E201F301E700
7E8039FB306E81
ENDCHAR
STARTCHAR uni0417
ENCODING 1047
SWIDTH 545 0
DWIDTH 8 0
BBX 8 9 0 0
BITMAP
1BA89A20
2D000BA0
27002DA0
014CFC20
00002610
000006D0
100005F2
39102CD0
03BDEA20
ENDCHAR
STARTCHAR uni0418
ENCODING 1048
SWIDTH 780 0
DWIDTH 11 0
BBX 11 9 0 0
BITMAP
3AFA304BFA30
02F30006F100
02F2003BF100
02F20294F100
02F21A14F100
02F39204F100
02FA3004F100
02F60004F100
3AFA304BFA30
ENDCHAR
STARTCHAR uni0419
ENCODING 1049
SWIDTH 780 0
DWIDTH 11 0
BBX 11 13 0 0
BITMAP
000430430000
000C607B0000
000287820000
000000000000
3AFA304BFA30
02F30006F100
02F2003BF100
02F20294F100
02F21A14F100
02F39204F100
02FA3004F100
02F60004F100
3AFA304BFA30
ENDCHAR
STARTCHAR uni041A
ENCODING 1050
SWIDTH 658 0
DWIDTH 9 0
BBX 10 9 0 0
BITMAP
3AFA303DD0
02F300A580
02F2028000
02F2073000
02F9BB0000
02F22E6000
02F206E100
02F300C900
3AFA304F93
ENDCHAR
STARTCHAR uni041B
ENCODING 1051
SWIDTH 684 0
DWIDTH 10 0
BBX 10 9 -1 0
BITMAP
0007EAADE7
0000A009B0
0000A009B0
0000A009B0
00019009B0
00046009B0
00092009B0
196B0009B0
2ED2007EE7
ENDCHAR
STARTCHAR uni041C
ENCODING 1052
SWIDTH 895 0
DWIDTH 13 0
BBX 12 9 0 0
BITMAP
4CF700001EE7
05EE00006EA0
048F5000B9A0
046AC00489A0
0463F30A19A0
0460CA2909A0
04605FA309A0
05700DB009A0
4CD507506EE7
ENDCHAR
STARTCHAR uni041D
ENCODING 1053
SWIDTH 777 0
DWIDTH 11 0
BBX 11 9 0 0
BITMAP
3BFA304CF920
03F20004F100
02F20004F000
02F20004F000
02F9888AF000
02F20004F000
02F20004F000
02F20004F000
3AFA304BF920
ENDCHAR
STARTCHAR uni041E
ENCODING 1054
SWIDTH 738 0
DWIDTH 10 0
BBX 10 9 0 0
BITMAP
003A99B700
04E3001CA0
0D800003F4
3F400000E8
4F300000D9
3F500000E7
0D800003F3
05E2000B90
004A99A600
ENDCHAR
STARTCHAR uni041F
ENCODING 1055
SWIDTH 759 0
DWIDTH 11 0
BBX 11 10 0 0
BITMAP
8FFFFFFFFF20
28F53339E400
02F20008C000
02F20008C000
02F20008C000
02F20008C000
02F20008C000
02F20008C000
27F7103CE400
8FFF70CFFF20
ENDCHAR
STARTCHAR uni0420
ENCODING 1056
SWIDTH 569 0
DWIDTH 8 0
BBX 8 9 0 0
BITMAP
2AFA9C80
02F201E7
02F200C8
02F203E3
02F99830
02F20000
02F20000
02F30000
2AFB4000
ENDCHAR
STARTCHAR uni0421
ENCODING 1057
SWIDTH 670 0
DWIDTH 9 0
BBX 9 9 0 0
BITMAP
003AAADF80
04E3000B80
0D80000380
3F40000020
4F30000000
3F40000000
0E90000000
05F7101670
004BEDC600
ENDCHAR
STARTCHAR uni0422
ENCODING 1058
SWIDTH 603 0
DWIDTH 8 0
BBX 9 9 0 0
BITMAP
ADACEABF20
A107D00830
3007D00210
0007D00000
0007D00000
0007D00000
0007D00000
0007D00000
005DF82000
ENDCHAR
STARTCHAR uni0423
ENCODING 1059
SWIDTH 625 0
DWIDTH 9 0
BBX 9 9 0 0
BITMAP
8FD4009F90
08C0004900
01E5009100
006D028000
000D791000
0005E80000
0000C20000
0666800000
09FA000000
ENDCHAR
STARTCHAR uni0424
ENCODING 1060
SWIDTH 725 0
DWIDTH 10 0
BBX 10 9 0 0
BITMAP
0006DE7000
0058BC8610
0B908A08D2
5E008A00D8
7D008A00B9
5F208A00D6
0AC28A19B0
0037CD7400
0006DE7000
ENDCHAR
STARTCHAR uni0425
ENCODING 1061
SWIDTH 664 0
DWIDTH 9 0
BBX 10 9 0 0
BITMAP
5DF9119E81
02E8009400
005F348000
000AC90000
0002F80000
000A6F3000
00850AD100
059001E900
7E9104EF91
ENDCHAR
STARTCHAR uni0426
ENCODING 1062
SWIDTH 756 0
DWIDTH 11 0
BBX 10 12 0 -3
BITMAP
3AFA306EE7
02F30009B0
02F20009A0
02F20009A0
02F20009A0
02F20009A0
02F20009A0
02F20009B0
3AFA999CE9
000000003F
000000000B
0000000006
ENDCHAR
STARTCHAR uni0427
ENCODING 1063
SWIDTH 650 0
DWIDTH 9 0
BBX 9 9 0 0
BITMAP
6FC429FB40
0D8001F400
0C7001F400
0AB002F400
03BCA8F400
000001F400
000001F400
000001F400
00003AFB40
ENDCHAR
STARTCHAR uni0428
ENCODING 1064
SWIDTH 1053 0
DWIDTH 15 0
BBX 15 9 0 0
BITMAP
3AFA23BF914CF810
02F2004F0006E000
02F2004F0005D000
02F2004F0005D000
02F2004F0005D000
02F2004F0005D000
02F2004F0005D000
02F2004F0005D000
3AFAAABFAAACF810
ENDCHAR
STARTCHAR uni0429
ENCODING 1065
SWIDTH 1044 0
DWIDTH 15 0
BBX 14 12 0 -3
BITMAP
3AFA24CF815DF7
02F2006E0008B0
02F2005E0008B0
02F2005E0008B0
02F2005E0008B0
02F2005E0008B0
02F2005E0008B0
02F2005E0008B0
3AFA99BF999CFA
0000000000003F
0000000000000B
00000000000006
ENDCHAR
STARTCHAR uni042A
ENCODING 1066
SWIDTH 723 0
DWIDTH 10 0
BBX 10 9 0 0
BITMAP
ADACF82000
9005E00000
0005E00000
0005F9AA40
0005E006F4
0005E000CA
0005E000C9
0006E003F4
004CF99B50
ENDCHAR
STARTCHAR uni042B
ENCODING 1067
SWIDTH 887 0
DWIDTH 12 0
BBX 12 9 0 0
BITMAP
3AFA30017FE6
02F200000C90
02F200000B80
02FAAA500B80
02F204F50B80
02F200BB0B80
02F200AB0B80
03F201E60B90
3AFA9B617FE6
ENDCHAR
STARTCHAR uni042C
ENCODING 1068
SWIDTH 606 0
DWIDTH 8 0
BBX 8 9 0 0
BITMAP
3AFA3000
02F20000
02F20000
02FAAB70
02F202D9
02F2007F
02F2006E
03F200C9
3AFA9B81
ENDCHAR
STARTCHAR uni042D
ENCODING 1069
SWIDTH 667 0
DWIDTH 9 0
BBX 9 9 0 0
BITMAP
2FFBAB8100
2E30008C00
2800000E50
1239999E80
0000000D90
0000000E70
2100005F30
1A3003D800
02ADDC6000
ENDCHAR
STARTCHAR uni042E
ENCODING 1070
SWIDTH 1042 0
DWIDTH 15 0
BBX 14 9 0 0
BITMAP
4CFC5029B9A910
03F202E90008D1
02F208E10000D8
02FA9DB000009C
02F20AA000008D
02F208C00000AB
02F203E10000C7
02F300970004D1
3AFB3006767810
ENDCHAR
STARTCHAR uni042F
ENCODING 1071
SWIDTH 654 0
DWIDTH 9 0
BBX 9 9 0 0
BITMAP
007B89FB30
07E100F500
09C000F400
04E500F400
003DD9F400
005F30F400
00D900F400
06F100F500
8E9029FB40
ENDCHAR
STARTCHAR uni0430
ENCODING 1072
SWIDTH 480 0
DWIDTH 7 0
BBX 7 7 0 0
BITMAP
0779A000
2F00D400
0200C600
0287D600
2D10C600
6D01D610
2DC88D40
ENDCHAR
STARTCHAR uni0431
ENCODING 1073
SWIDTH 520 0
DWIDTH 7 0
BBX 7 11 0 0
BITMAP
00000130
0015AE30
03DC8300
0C300000
4788A700
6B400D50
7F0009A0
6E0008C0
3F0008A0
0D500D40
02B99600
ENDCHAR
STARTCHAR uni0432
ENCODING 1074
SWIDTH 505 0
DWIDTH 7 0
BBX 7 7 0 0
BITMAP
4DC8A900
09900E40
09901E20
09C9D600
09901D50
09900C70
3DC8AB10
ENDCHAR
STARTCHAR uni0433
ENCODING 1075
SWIDTH 429 0
DWIDTH 6 0
BBX 6 7 0 0
BITMAP
4DC8BA
09900A
099004
099000
099000
099000
3DD500
ENDCHAR
STARTCHAR uni0434
ENCODING 1076
SWIDTH 530 0
DWIDTH 7 0
BBX 8 10 0 -3
BITMAP
05D89F60
00804E00
00804E00
00804E00
04604E00
0A104E00
9D889F80
E20002E1
A00000A0
40000040
ENDCHAR
STARTCHAR uni0435
ENCODING 1077
SWIDTH 464 0
DWIDTH 7 0
BBX 6 7 0 0
BITMAP
049AB2
2B008B
6C889B
8A0000
6E0001
1EA238
04CFB1
ENDCHAR
STARTCHAR uni0436
ENCODING 1078
SWIDTH 754 0
DWIDTH 11 0
BBX 11 7 0 0
BITMAP
9E31AF508E30
34804D028510
00814D072000
004DAE9C0000
00D54D0C6000
07C04D03E200
7F31AF50AB40
ENDCHAR
STARTCHAR uni0437
ENCODING 1079
SWIDTH 435 0
DWIDTH 6 0
BBX 6 7 0 0
BITMAP
5A7A90
5400F4
2002D1
00AD60
0001E6
4100D7
2ABC80
ENDCHAR
STARTCHAR uni0438
ENCODING 1080
SWIDTH 609 0
DWIDTH 9 0
BBX 8 7 0 0
BITMAP
3DD308F9
099005F2
099038F1
099281F1
09A901F1
09D101F1
3DD308F8
ENDCHAR
STARTCHAR uni0439
ENCODING 1081
SWIDTH 609 0
DWIDTH 9 0
BBX 8 10 0 0
BITMAP
00D40B60
00E20970
00377700
3DD308F9
099005F2
099038F1
099281F1
09A901F1
09D101F1
3DD308F8
ENDCHAR
STARTCHAR uni043A
ENCODING 1082
SWIDTH 521 0
DWIDTH 7 0
BBX 8 7 0 0
BITMAP
4DD40BD1
09905550
09909000
09CA9000
0992E300
09908C00
4DD41EA2
ENDCHAR
STARTCHAR uni043B
ENCODING 1083
SWIDTH 553 0
DWIDTH 8 0
BBX 9 7 -1 0
BITMAP
003AB8EB20
000450D500
000630D500
000810D500
000900D500
055800D500
1DC106FA20
ENDCHAR
STARTCHAR uni043C
ENCODING 1084
SWIDTH 697 0
DWIDTH 10 0
BBX 10 7 0 0
BITMAP
5ED0003FB2
0AE5008D50
0A8B018D50
0A2F372D50
0A0A990D50
0A03F50D50
5E70A05EB2
ENDCHAR
STARTCHAR uni043D
ENCODING 1085
SWIDTH 605 0
DWIDTH 8 0
BBX 8 7 0 0
BITMAP
4DD419F8
099002F1
099002F1
09C889F1
099002F1
099002F1
4DD319F8
ENDCHAR
STARTCHAR uni043E
ENCODING 1086
SWIDTH 514 0
DWIDTH 7 0
BBX 7 7 0 0
BITMAP
03A8A500
1E201E30
6D000A90
8C0009A0
6D000990
1E300D30
03B89500
ENDCHAR
STARTCHAR uni043F
ENCODING 1087
SWIDTH 591 0
DWIDTH 8 0
BBX 8 7 0 0
BITMAP
4DC88AF6
099005D0
099005D0
099005D0
099005D0
099005D0
4DD42AF6
ENDCHAR
STARTCHAR uni0440
ENCODING 1088
SWIDTH 537 0
DWIDTH 8 0
BBX 7 10 0 -3
BITMAP
5D79EC20
0AB21CA0
0A7006E0
0A7004F0
0A7005D0
0A900A60
0AD99700
0A700000
0A800000
5ED60000
ENDCHAR
STARTCHAR uni0441
ENCODING 1089
SWIDTH 446 0
DWIDTH 6 0
BBX 6 7 0 0
BITMAP
0399C4
1C009A
690001
790000
7C0001
2F8238
05DFA1
ENDCHAR
STARTCHAR uni0442
ENCODING 1090
SWIDTH 456 0
DWIDTH 6 0
BBX 7 7 0 0
BITMAP
CABD8E30
906C0540
306C0120
006C0000
006C0000
006C0000
03BE6000
ENDCHAR
STARTCHAR uni0443
ENCODING 1091
SWIDTH 483 0
DWIDTH 7 0
BBX 8 10 -1 -3
BITMAP
1BF603D8
01F400B0
009A0370
002F2810
000A8900
0004E500
0000D000
00028000
043A2000
0BE50000
ENDCHAR
STARTCHAR uni0444
ENCODING 1092
SWIDTH 710 0
DWIDTH 10 0
BBX 10 14 0 -3
BITMAP
0000440000
0005D80000
0000980000
0000980000
05C9CB8B50
1E20BA02E1
5D009800E5
7C009800D6
5D009800E4
2F20A902E0
06B8CB8B40
0000980000
0000980000
0004DD5000
ENDCHAR
STARTCHAR uni0445
ENCODING 1093
SWIDTH 479 0
DWIDTH 7 0
BBX 7 7 0 0
BITMAP
7FB18D40
07D08200
00C95000
005F3000
01A8C000
0930D700
9D21CF60
ENDCHAR
STARTCHAR uni0446
ENCODING 1094
SWIDTH 590 0
DWIDTH 8 0
BBX 8 10 0 -3
BITMAP
4DD42BE5
099006C0
099006C0
099006C0
099006C0
099006C0
4DD88CE8
0000003D
0000000A
00000004
ENDCHAR
STARTCHAR uni0447
ENCODING 1095
SWIDTH 535 0
DWIDTH 7 0
BBX 7 7 0 0
BITMAP
8F809F80
1F102F10
1F102F10
0E403F10
05B98F10
00002F10
00008F80
ENDCHAR
STARTCHAR uni0448
ENCODING 1096
SWIDTH 812 0
DWIDTH 11 0
BBX 11 7 0 0
BITMAP
4DD36FA1AF70
09800D403E00
09800D403E00
09800D403E00
09800D403E00
09800D403E00
4DC77FA7AF70
ENDCHAR
STARTCHAR uni0449
ENCODING 1097
SWIDTH 814 0
DWIDTH 11 0
BBX 12 10 0 -3
BITMAP
4DC35FA1AF60
09800E403D00
09800E403D00
09800E403D00
09800E403D00
09800E403D00
4DD89FB8BF90
0000000002E1
0000000000A0
000000000040
ENDCHAR
STARTCHAR uni044A
ENCODING 1098
SWIDTH 568 0
DWIDTH 8 0
BBX 8 7 0 0
BITMAP
CABE5000
906C0000
406C0000
006E8970
006C01D7
006C00C8
02BE8AA1
ENDCHAR
STARTCHAR uni044B
ENCODING 1099
SWIDTH 728 0
DWIDTH 10 0
BBX 10 7 0 0
BITMAP
3DD4002BE5
09900006C0
09900006C0
09C8A506C0
09902F36C0
09901F36C0
3DC8B72BE5
ENDCHAR
STARTCHAR uni044C
ENCODING 1100
SWIDTH 489 0
DWIDTH 7 0
BBX 7 7 0 0
BITMAP
4DD40000
09900000
09900000
09C8A600
09901E50
09900D60
3DC8A900
ENDCHAR
STARTCHAR uni044D
ENCODING 1101
SWIDTH 467 0
DWIDTH 7 0
BBX 6 7 0 0
BITMAP
5B7791
640089
20005E
0099BF
00005E
4200A8
08BC91
ENDCHAR
STARTCHAR uni044E
ENCODING 1102
SWIDTH 774 0
DWIDTH 11 0
BBX 11 7 0 0
BITMAP
5EE505AAB200
09903D106D00
099089001F30
09C8D8000E50
099099000E30
09903D002D00
4DD306969200
ENDCHAR
STARTCHAR uni044F
ENCODING 1103
SWIDTH 518 0
DWIDTH 7 0
BBX 7 7 0 0
BITMAP
06A7AE60
1F305C00
1E605C00
02BBAC00
01E45C00
08C05D00
7F52BE60
ENDCHAR
STARTCHAR uni0450
ENCODING 1104
SWIDTH 464 0
DWIDTH 7 0
BBX 6 10 0 0
BITMAP
01C600
001B00
000000
049AB2
2B008B
6C889B
8A0000
6E0001
1EA238
04CFB1
ENDCHAR
STARTCHAR uni0451
ENCODING 1105
SWIDTH 464 0
DWIDTH 7 0
BBX 6 10 0 0
BITMAP
095086
0B70A8
000000
049AB2
2B008B
6C889B
8A0000
6E0001
1EA238
04CFB1
ENDCHAR
STARTCHAR uni0452
ENCODING 1106
SWIDTH 563 0
DWIDTH 8 0
BBX 7 14 0 -3
BITMAP
04400000
5D900000
6CD97000
09900000
0997ED20
09D30A90
099006C0
099005D0
099004D0
099005C0
4DD405B0
00000780
00450A30
005EA600
ENDCHAR
STARTCHAR uni0453
ENCODING 1107
SWIDTH 429 0
DWIDTH 6 0
BBX 6 10 0 0
BITMAP
001E40
007500
000000
4DC8BA
09900A
099004
099000
099000
099000
3DD500
ENDCHAR
STARTCHAR uni0454
ENCODING 1108
SWIDTH 460 0
DWIDTH 6 0
BBX 6 7 0 0
BITMAP
03A9C5
1E205D
6D0001
7D8850
6D0000
1E5006
04CDC4
ENDCHAR
STARTCHAR uni0455
ENCODING 1109
SWIDTH 394 0
DWIDTH 6 0
BBX 6 7 0 0
BITMAP
198990
690090
4F7020
06ED30
301AE1
7401F1
6A8A70
ENDCHAR
STARTCHAR uni0456
ENCODING 1110
SWIDTH 285 0
DWIDTH 4 0
BBX 4 9 0 0
BITMAP
09A0
0550
4C90
0990
0990
0990
0990
0990
3DD4
ENDCHAR
STARTCHAR uni0457
ENCODING 1111
SWIDTH 285 0
DWIDTH 4 0
BBX 5 9 -1 0
BITMAP
4D17B0
270460
04C900
009900
009900
009900
009900
009900
03DD40
ENDCHAR
STARTCHAR uni0458
ENCODING 1112
SWIDTH 263 0
DWIDTH 4 0
BBX 5 12 -2 -3
BITMAP
000A90
000540
004C80
000980
000980
000980
000980
000980
000980
000970
280A40
2DB800
ENDCHAR
STARTCHAR uni0459
ENCODING 1113
SWIDTH 742 0
DWIDTH 10 0
BBX 11 7 -1 0
BITMAP
002AB8F91000
000450F30000
000630F30000
000810FA9920
000900F307D0
055800F305E0
1DC107F99B40
ENDCHAR
STARTCHAR uni045A
ENCODING 1114
SWIDTH 790 0
DWIDTH 11 0
BBX 11 7 0 0
BITMAP
4DD41AF70000
099003F00000
099003F00000
09C889F89810
099003F00BA0
099003F009B0
4DD319F89B20
ENDCHAR
STARTCHAR uni045B
ENCODING 1115
SWIDTH 579 0
DWIDTH 8 0
BBX 8 10 0 0
BITMAP
5C900000
0A900000
6CC97000
0997ED20
09D30B90
099007B0
099006C0
099006C0
099006C0
4DD43BE6
ENDCHAR
STARTCHAR uni045C
ENCODING 1116
SWIDTH 521 0
DWIDTH 7 0
BBX 8 10 0 0
BITMAP
0007C000
000A1000
00000000
4DD40BD1
09905550
09909000
09CA9000
0992E300
09908C00
4DD41EA2
ENDCHAR
STARTCHAR uni045D
ENCODING 1117
SWIDTH 609 0
DWIDTH 9 0
BBX 8 10 0 0
BITMAP
004E1000
00047000
00000000
3DD308F9
099005F2
099038F1
099281F1
09A901F1
09D101F1
3DD308F8
ENDCHAR
STARTCHAR uni045E
ENCODING 1118
SWIDTH 483 0
DWIDTH 7 0
BBX 8 13 -1 -3
BITMAP
008805D0
00276740
00000000
1BF603D9
02F400B0
00AA0370
003F2820
000B8800
0004E500
0000D100
00029000
03392000
0BE60000
ENDCHAR
STARTCHAR uni045F
ENCODING 1119
SWIDTH 587 0
DWIDTH 8 0
BBX 8 10 0 -3
BITMAP
4DD42BE5
099006C0
099006C0
099006C0
099006C0
099006C0
4DD88CE5
00047000
0008A000
0007A000
ENDCHAR
STARTCHAR uni0462
ENCODING 1122
SWIDTH 727 0
DWIDTH 10 0
BBX 10 11 0 0
BITMAP
007BB80000
000AC00000
8B9CD99BA0
A209B001B0
8009B00080
0009B00000
0009D9AA40
0009B005F4
0009B000E9
0009B002F5
006ED99B60
ENDCHAR
STARTCHAR uni0463
ENCODING 1123
SWIDTH 561 0
DWIDTH 8 0
BBX 8 10 0 0
BITMAP
02AA0000
007A0000
007A0000
CABD8E30
907A0540
307A0110
007D8A70
007A01D6
007A00C7
03CD8A90
ENDCHAR
STARTCHAR uni046A
ENCODING 1130
SWIDTH 881 0
DWIDTH 12 0
BBX 14 9 -1 0
BITMAP
000AFBBBBCC000
0001D800092000
00002E50750000
000005E6900000
00005ADE980000
0005E27C0BA000
001E807C03F400
008E107C00AC00
18F704CF603FB4
ENDCHAR
STARTCHAR uni046B
ENCODING 1131
SWIDTH 667 0
DWIDTH 9 0
BBX 11 7 -1 0
BITMAP
005FA88B7000
0009C01A0000
0000C8820000
0004AFB60000
003E2D4C7000
00B90E44E100
19F25F90CC40
ENDCHAR
STARTCHAR uni0472
ENCODING 1138
SWIDTH 737 0
DWIDTH 10 0
BBX 10 9 0 0
BITMAP
003A99B700
04D2001BA0
0D600002F4
3F6CD711E8
4F738EFAD9
3F400010E7
0E800003F3
05E2000B90
004B99A600
ENDCHAR
STARTCHAR uni0473
ENCODING 1139
SWIDTH 514 0
DWIDTH 7 0
BBX 7 7 0 0
BITMAP
03A8A500
1E201E30
6C000990
8EDDDEA0
6C000990
1E200C30
03A89500
ENDCHAR
STARTCHAR uni0474
ENCODING 1140
SWIDTH 705 0
DWIDTH 10 0
BBX 12 9 -1 0
BITMAP
19FD40003DD1
00BC0000B781
005F3002A000
000D90074000
0007E10B0000
0001E6370000
00008C820000
00002F900000
00000A400000
ENDCHAR
STARTCHAR uni0475
ENCODING 1141
SWIDTH 520 0
DWIDTH 7 0
BBX 9 7 -1 0
BITMAP
1BF6005E70
01F400A430
00A9055000
004E090000
000E580000
0008D40000
0002D00000
ENDCHAR
STARTCHAR uni0490
ENCODING 1168
SWIDTH 525 0
DWIDTH 7 0
BBX 8 12 0 0
BITMAP
00000022
00000064
000001C3
3AFBAAA2
02F20000
02F20000
02F20000
02F20000
02F20000
02F20000
03F30000
3AFB4000
ENDCHAR
STARTCHAR uni0491
ENCODING 1169
SWIDTH 404 0
DWIDTH 6 0
BBX 6 9 0 0
BITMAP
000008
000058
4DC884
099000
099000
099000
099000
099000
3DD500
ENDCHAR
STARTCHAR uni1D00
ENCODING 7424
SWIDTH 511 0
DWIDTH 7 0
BBX 9 7 -1 0
BITMAP
0001E20000
0007C80000
00085E0000
00451E5000
00977CB000
018004F200
2BA006FC20
ENDCHAR
STARTCHAR uni1D07
ENCODING 7431
SWIDTH 495 0
DWIDTH 7 0
BBX 7 7 0 0
BITMAP
3DC88D10
09900410
09903400
09C8C400
09901210
09900360
3DC89D30
ENDCHAR
STARTCHAR uni1D1C
ENCODING 7452
SWIDTH 584 0
DWIDTH 8 0
BBX 8 7 0 0
BITMAP
5EC305E8
0B7000A0
0B700090
0B700090
0A700090
08B00190
01ACBA20
ENDCHAR
STARTCHAR uni1D81
ENCODING 7553
SWIDTH 539 0
DWIDTH 8 0
BBX 8 13 0 -3
BITMAP
00007E30
00000F30
00000E30
02A9AF30
1D202F30
5C000E30
8B000E30
7D000E30
3F503F30
07ED6DB2
00000063
00003071
00008A80
ENDCHAR
STARTCHAR uni1D84
ENCODING 7556
SWIDTH 542 0
DWIDTH 8 0
BBX 8 13 0 -3
BITMAP
4C800000
09800000
09800000
09809E80
0981A200
09992000
09CE3000
0987E200
09909C10
4DD44FC4
00000018
00002327
00003D91
ENDCHAR
STARTCHAR uni1D85
ENCODING 7557
SWIDTH 283 0
DWIDTH 4 0
BBX 4 13 0 -3
BITMAP
4C80
0980
0980
0980
0980
0980
0980
0980
0990
4DD4
0009
2418
2D92
ENDCHAR
STARTCHAR uni1D8A
ENCODING 7562
SWIDTH 395 0
DWIDTH 6 0
BBX 6 10 0 -3
BITMAP
199A90
690090
4F7020
06ED30
301AE1
7401F1
6A8AB0
000090
015090
01D930
ENDCHAR
STARTCHAR uni1D8D
ENCODING 7565
SWIDTH 479 0
DWIDTH 7 0
BBX 7 10 0 -3
BITMAP
7FB18D40
07D08200
00C95000
005F3000
01A8C000
0930D700
9D21CF60
00000090
00015090
0001D930
ENDCHAR
STARTCHAR uni1D8E
ENCODING 7566
SWIDTH 458 0
DWIDTH 6 0
BBX 6 10 0 -3
BITMAP
4D99EC
5403F3
100D80
008C00
03F303
0C800A
7FA9CD
000009
000508
001C93
ENDCHAR
STARTCHAR uni1D98
ENCODING 7576
SWIDTH 368 0
DWIDTH 5 0
BBX 7 13 0 -3
BITMAP
00059D60
000E0340
002F0000
003F0000
003F0000
003F0000
003F0000
003F0000
513D0000
CCA50000
90000000
90500000
49C10000
ENDCHAR
STARTCHAR uni1D9B
ENCODING 7579
SWIDTH 462 0
DWIDTH 6 0
BBX 6 5 0 4
BITMAP
6E7BD4
0F106C
0F002E
0F104A
0CA891
ENDCHAR
STARTCHAR uni1DA3
ENCODING 7587
SWIDTH 488 0
DWIDTH 7 0
BBX 7 8 0 1
BITMAP
4F91BD30
0D306A00
0D306A00
0C507A00
05DA9A00
00006A00
00006A00
00006D40
ENDCHAR
STARTCHAR uni1E00
ENCODING 7680
SWIDTH 718 0
DWIDTH 10 0
BBX 10 13 0 -4
BITMAP
0000870000
0001DD0000
00074E5000
000A08C000
005502F400
00A999DB00
0380004F20
0A30000E90
8F80005EF8
0000000000
0004970000
000A091000
0004970000
ENDCHAR
STARTCHAR uni1E01
ENCODING 7681
SWIDTH 480 0
DWIDTH 7 0
BBX 7 11 0 -4
BITMAP
0779A000
2F00D400
0200C600
0287D600
2D10C600
6D01D610
2DC88D40
00000000
00893000
02819000
00893000
ENDCHAR
STARTCHAR uni1E02
ENCODING 7682
SWIDTH 618 0
DWIDTH 9 0
BBX 9 12 0 0
BITMAP
0003600000
0007B00000
0000000000
3AFA9BA100
02F200D800
02F200BA00
02F202C300
02FAAE8100
02F202BC00
02F2005F20
02F2008D00
3AF98AB300
ENDCHAR
STARTCHAR uni1E03
ENCODING 7683
SWIDTH 522 0
DWIDTH 7 0
BBX 7 13 0 0
BITMAP
00081000
002D3000
00000000
7D400000
0D400000
0D400000
0D5BEA10
0D912E70
0D4009B0
0D4007C0
0D400990
0D500D30
08C99500
ENDCHAR
STARTCHAR uni1E04
ENCODING 7684
SWIDTH 618 0
DWIDTH 9 0
BBX 9 12 0 -3
BITMAP
3AFA9BA100
02F200D800
02F200BA00
02F202C300
02FAAE8100
02F202BC00
02F2005F20
02F2008D00
3AF98AB300
0000000000
0006900000
0007B00000
ENDCHAR
STARTCHAR uni1E05
ENCODING 7685
SWIDTH 522 0
DWIDTH 7 0
BBX 7 13 0 -3
BITMAP
7D400000
0D400000
0D400000
0D5BEA10
0D912E70
0D4009B0
0D4007C0
0D400990
0D500D30
08C99500
00000000
001C2000
002E3000
ENDCHAR
STARTCHAR uni1E06
ENCODING 7686
SWIDTH 618 0
DWIDTH 9 0
BBX 9 11 0 -2
BITMAP
3AFA9BA100
02F200D800
02F200BA00
02F202C300
02FAAE8100
02F202BC00
02F2005F20
02F2008D00
3AF98AB300
0000000000
00ABBB2000
ENDCHAR
STARTCHAR uni1E07
ENCODING 7687
SWIDTH 522 0
DWIDTH 7 0
BBX 7 12 0 -2
BITMAP
7D400000
0D400000
0D400000
0D5BEA10
0D912E70
0D4009B0
0D4007C0
0D400990
0D500D30
08C99500
00000000
05BBB700
ENDCHAR
STARTCHAR uni1E08
ENCODING 7688
SWIDTH 670 0
DWIDTH 9 0
BBX 9 15 0 -3
BITMAP
00001D8000
0000950000
0000000000
003AAADF80
04E3000B80
0D80000380
3F40000020
4F30000000
3F40000000
0E90000000
05F7101670
004BFDC600
00007A1000
0000084000
0001890000
ENDCHAR
STARTCHAR uni1E09
ENCODING 7689
SWIDTH 446 0
DWIDTH 6 0
BBX 6 13 0 -3
BITMAP
000A90
002900
000000
03A9C4
1C109A
590001
790000
6C0001
2F7138
06DFB1
001B60
0001C0
006A60
ENDCHAR
STARTCHAR uni1E0A
ENCODING 7690
SWIDTH 730 0
DWIDTH 10 0
BBX 10 12 0 0
BITMAP
0000630000
0000C60000
0000000000
3AFA9AB500
02F2003E80
02F20006F2
02F20001F6
02F20000F7
02F20001F6
02F20004F2
02F2002D80
3AFA99A500
ENDCHAR
STARTCHAR uni1E0B
ENCODING 7691
SWIDTH 539 0
DWIDTH 8 0
BBX 8 13 0 0
BITMAP
00073000
000C6000
00000000
00007E30
00000F30
00000E30
02A9AF30
1D202F30
5C000E30
8B000E30
7D000E30
3F503F30
07ED6DA1
ENDCHAR
STARTCHAR uni1E0C
ENCODING 7692
SWIDTH 730 0
DWIDTH 10 0
BBX 10 12 0 -3
BITMAP
3AFA9AB500
02F2003E80
02F20006F2
02F20001F6
02F20000F7
02F20001F6
02F20004F2
02F2002D80
3AFA99A500
0000000000
0001C20000
0002E20000
ENDCHAR
STARTCHAR uni1E0D
ENCODING 7693
SWIDTH 539 0
DWIDTH 8 0
BBX 8 13 0 -3
BITMAP
00007E30
00000F30
00000E30
02A9AF30
1D202F30
5C000E30
8B000E30
7D000E30
3F503F30
07ED6DA1
00000000
000A4000
000C6000
ENDCHAR
STARTCHAR uni1E0E
ENCODING 7694
SWIDTH 730 0
DWIDTH 10 0
BBX 10 11 0 -2
BITMAP
3AFA9AB500
02F2003E80
02F20006F2
02F20001F6
02F20000F7
02F20001F6
02F20004F2
02F2002D80
3AFA99A500
0000000000
006BBB6000
ENDCHAR
STARTCHAR uni1E0F
ENCODING 7695
SWIDTH 539 0
DWIDTH 8 0
BBX 8 12 0 -2
BITMAP
00007E30
00000F30
00000E30
02A9AF30
1D202F30
5C000E30
8B000E30
7D000E30
3F503F30
07ED6DA1
00000000
03BBB900
ENDCHAR
STARTCHAR uni1E10
ENCODING 7696
SWIDTH 730 0
DWIDTH 10 0
BBX 10 13 0 -4
BITMAP
3AFA9AB500
02F2003E80
02F20006F2
02F20001F6
02F20000F7
02F20001F6
02F20004F2
02F2002D80
3AFA99A500
0002C30000
0003E70000
0000640000
0002400000
ENDCHAR
STARTCHAR uni1E11
ENCODING 7697
SWIDTH 539 0
DWIDTH 8 0
BBX 8 14 0 -4
BITMAP
00007E30
00000F30
00000E30
02A9AF30
1D202F30
5C000E30
8B000E30
7D000E30
3F503F30
07ED6DA1
000B5000
001EA000
00027000
00060000
ENDCHAR
STARTCHAR uni1E12
ENCODING 7698
SWIDTH 730 0
DWIDTH 10 0
BBX 10 12 0 -3
BITMAP
3AFA9AB500
02F2003E80
02F20006F2
02F20001F6
02F20000F7
02F20001F6
02F20004F2
02F2002D80
3AFA99A500
0000000000
0005E50000
0029182000
ENDCHAR
STARTCHAR uni1E13
ENCODING 7699
SWIDTH 539 0
DWIDTH 8 0
BBX 8 13 0 -3
BITMAP
00007E30
00000F30
00000E30
02A9AF30
1D202F30
5C000E30
8B000E30
7D000E30
3F503F30
07ED6DA1
00000000
002D9000
00916500
ENDCHAR
STARTCHAR uni1E14
ENCODING 7700
SWIDTH 626 0
DWIDTH 9 0
BBX 9 14 0 0
BITMAP
000BB00000
0000770000
0000000000
007CCC6000
0000000000
3AFA9ABD00
02F2000600
02F2007000
02F200A000
02F98BC000
02F2003000
02F2000350
02F2000A30
3AFA9ACF10
ENDCHAR
STARTCHAR uni1E15
ENCODING 7701
SWIDTH 464 0
DWIDTH 7 0
BBX 6 12 0 0
BITMAP
01C600
001B00
000000
07BBB5
000000
049AB2
2B008B
6C889B
8A0000
6E0001
1EA238
04CFB1
ENDCHAR
STARTCHAR uni1E16
ENCODING 7702
SWIDTH 626 0
DWIDTH 9 0
BBX 9 14 0 0
BITMAP
0000BB0000
0007700000
0000000000
007CCC6000
0000000000
3AFA9ABD00
02F2000600
02F2007000
02F200A000
02F98BC000
02F2003000
02F2000350
02F2000A30
3AFA9ACF10
ENDCHAR
STARTCHAR uni1E17
ENCODING 7703
SWIDTH 464 0
DWIDTH 7 0
BBX 6 12 0 0
BITMAP
000AA0
002A00
000000
07BBB5
000000
049AB2
2B008B
6C889B
8A0000
6E0001
1EA238
04CFB1
ENDCHAR
STARTCHAR uni1E18
ENCODING 7704
SWIDTH 626 0
DWIDTH 9 0
BBX 9 12 0 -3
BITMAP
3AFA9ABD00
02F2000600
02F2007000
02F200A000
02F98BC000
02F2003000
02F2000350
02F2000A30
3AFA9ACF10
0000000000
0005E50000
0028182000
ENDCHAR
STARTCHAR uni1E19
ENCODING 7705
SWIDTH 464 0
DWIDTH 7 0
BBX 6 10 0 -3
BITMAP
049AB2
2B008B
6C889B
8A0000
6E0001
1EA238
04CFB1
000000
007E40
038191
ENDCHAR
STARTCHAR uni1E1A
ENCODING 7706
SWIDTH 626 0
DWIDTH 9 0
BBX 9 11 0 -2
BITMAP
3AFA9ABD00
02F2000600
02F2007000
02F200A000
02F98BC000
02F2003000
02F2000350
02F2000A30
3AFA9ACF10
004C836000
00508C2000
ENDCHAR
STARTCHAR uni1E1B
ENCODING 7707
SWIDTH 464 0
DWIDTH 7 0
BBX 6 9 0 -2
BITMAP
049AB2
2B008B
6C889B
8A0000
6E0001
1EA238
04CFB1
05C735
0519B1
ENDCHAR
STARTCHAR uni1E1C
ENCODING 7708
SWIDTH 626 0
DWIDTH 9 0
BBX 9 15 0 -3
BITMAP
0073046000
001BEB1000
0000000000
3AFA9ABD00
02F2000600
02F2007000
02F200A000
02F98BC000
02F2003000
02F2000350
02F2000A30
3AFADACF10
0001B70000
00000C0000
0005950000
ENDCHAR
STARTCHAR uni1E1D
ENCODING 7709
SWIDTH 464 0
DWIDTH 7 0
BBX 6 14 0 -3
BITMAP
010001
072054
01AB80
000000
049AB2
2B008B
6C889B
8A0000
6E0001
1EA238
04DFB1
003A50
0003A0
006930
ENDCHAR
STARTCHAR uni1E1E
ENCODING 7710
SWIDTH 588 0
DWIDTH 8 0
BBX 8 12 0 0
BITMAP
00008100
0002D300
00000000
3AFBAABE
02F20006
02F20080
02F200A0
02F98BB0
02F20030
02F20000
02F30000
3AFA4000
ENDCHAR
STARTCHAR uni1E1F
ENCODING 7711
SWIDTH 307 0
DWIDTH 4 0
BBX 6 13 0 0
BITMAP
045000
08B000
000000
0089D2
059051
089000
6CD930
099000
099000
099000
099000
099000
5DE700
ENDCHAR
STARTCHAR uni1E20
ENCODING 7712
SWIDTH 720 0
DWIDTH 10 0
BBX 10 11 0 0
BITMAP
0009CCC400
0000000000
003AAADF80
04E3000B80
0D80000380
3F40000020
4F30007BB4
3F40000AA0
0E80000AA0
06E4000BA0
005BBAB820
ENDCHAR
STARTCHAR uni1E21
ENCODING 7713
SWIDTH 484 0
DWIDTH 7 0
BBX 7 12 0 -3
BITMAP
07BBB500
00000000
05AAFC70
2F10A900
4F007B00
1D40A800
08997000
4D210000
1DFFFD30
37000770
A9000840
4DECA400
ENDCHAR
STARTCHAR uni1E22
ENCODING 7714
SWIDTH 777 0
DWIDTH 11 0
BBX 11 12 0 0
BITMAP
000018100000
00003D200000
000000000000
3BFA304CF920
03F20004F100
02F20004F000
02F20004F000
02F9888AF000
02F20004F000
02F20004F000
02F20004F000
3AFA304BF920
ENDCHAR
STARTCHAR uni1E23
ENCODING 7715
SWIDTH 577 0
DWIDTH 8 0
BBX 8 13 0 0
BITMAP
00046000
0007B000
00000000
5C800000
09800000
09800000
0997EC20
09C30B90
098007B0
098006B0
098006B0
099006B0
4DD43CE5
ENDCHAR
STARTCHAR uni1E24
ENCODING 7716
SWIDTH 777 0
DWIDTH 11 0
BBX 11 12 0 -3
BITMAP
3BFA304CF920
03F20004F100
02F20004F000
02F20004F000
02F9888AF000
02F20004F000
02F20004F000
02F20004F000
3AFA304BF920
000000000000
00002C100000
00003E200000
ENDCHAR
STARTCHAR uni1E25
ENCODING 7717
SWIDTH 577 0
DWIDTH 8 0
BBX 8 13 0 -3
BITMAP
5C800000
09800000
09800000
0997EC20
09C30B90
098007B0
098006B0
098006B0
099006B0
4DD43CE5
00000000
00069000
0007B000
ENDCHAR
STARTCHAR uni1E26
ENCODING 7718
SWIDTH 777 0
DWIDTH 11 0
BBX 11 12 0 0
BITMAP
000540440000
000A80990000
000000000000
3BFA304CF920
03F20004F100
02F20004F000
02F20004F000
02F9888AF000
02F20004F000
02F20004F000
02F20004F000
3AFA304BF920
ENDCHAR
STARTCHAR uni1E27
ENCODING 7719
SWIDTH 577 0
DWIDTH 8 0
BBX 8 13 0 0
BITMAP
00710720
02D31D40
00000000
5C800000
09800000
09800000
0997EC20
09C30B90
098007B0
098006B0
098006B0
099006B0
4DD43CE5
ENDCHAR
STARTCHAR uni1E28
ENCODING 7720
SWIDTH 777 0
DWIDTH 11 0
BBX 11 12 0 -3
BITMAP
3BFA304CF920
03F20004F100
02F20004F000
02F20004F000
02F9888AF000
02F20004F000
02F20004F000
02F20004F000
3AFA304BF920
01A600000000
001C00000000
059400000000
ENDCHAR
STARTCHAR uni1E29
ENCODING 7721
SWIDTH 577 0
DWIDTH 8 0
BBX 8 13 0 -3
BITMAP
5C800000
09800000
09800000
0997EC20
09C30B90
098007B0
098006B0
098006B0
099006B0
4FD43CE5
07A10000
00940000
28900000
ENDCHAR
STARTCHAR uni1E2A
ENCODING 7722
SWIDTH 777 0
DWIDTH 11 0
BBX 11 12 0 -3
BITMAP
3BFA304CF920
03F20004F100
02F20004F000
02F20004F000
02F9888AF000
02F20004F000
02F20004F000
02F20004F000
3AFA304BF920
000100010000
000720450000
0001AB900000
ENDCHAR
STARTCHAR uni1E2B
ENCODING 7723
SWIDTH 577 0
DWIDTH 8 0
BBX 8 13 0 -3
BITMAP
5C800000
09800000
09800000
0997EC20
09C30B90
098007B0
098006B0
098006B0
099006B0
4DD43CE5
00100100
00900910
004BB500
ENDCHAR
STARTCHAR uni1E2C
ENCODING 7724
SWIDTH 357 0
DWIDTH 5 0
BBX 5 11 0 -2
BITMAP
3BFA30
03F200
02F200
02F200
02F200
02F200
02F200
02F200
3AFA30
3C8360
508C20
ENDCHAR
STARTCHAR uni1E2D
ENCODING 7725
SWIDTH 285 0
DWIDTH 4 0
BBX 6 11 -1 -2
BITMAP
009A00
005500
04C900
009900
009900
009900
009900
009900
03DD40
08B561
233C80
ENDCHAR
STARTCHAR uni1E2E
ENCODING 7726
SWIDTH 357 0
DWIDTH 5 0
BBX 5 14 0 0
BITMAP
00BB00
077000
540450
A908A0
000000
3BFA30
03F200
02F200
02F200
02F200
02F200
02F200
02F200
3AFA30
ENDCHAR
STARTCHAR uni1E2F
ENCODING 7727
SWIDTH 285 0
DWIDTH 4 0
BBX 5 12 -1 0
BITMAP
004D20
00A200
000000
4D17B0
270460
04C900
009900
009900
009900
009900
009900
03DD40
ENDCHAR
STARTCHAR uni1E30
ENCODING 7728
SWIDTH 702 0
DWIDTH 10 0
BBX 10 12 0 0
BITMAP
00005E4000
0002B20000
0000000000
3BFA32CF81
03F201B300
02F21A2000
02F3A20000
02FCA00000
02F4DA0000
02F21CB000
02F201DB10
3AFA32BFC5
ENDCHAR
STARTCHAR uni1E31
ENCODING 7729
SWIDTH 542 0
DWIDTH 8 0
BBX 8 13 0 0
BITMAP
0006D200
003A1000
00000000
4C800000
09800000
09800000
09809E80
0981A200
09992000
09CE3000
0987E200
09909C10
4DD44FC4
ENDCHAR
STARTCHAR uni1E32
ENCODING 7730
SWIDTH 702 0
DWIDTH 10 0
BBX 10 12 0 -3
BITMAP
3BFA32CF81
03F201B300
02F21A2000
02F3A20000
02FCA00000
02F4DA0000
02F21CB000
02F201DB10
3AFA32BFC5
0000000000
0000870000
0000A80000
ENDCHAR
STARTCHAR uni1E33
ENCODING 7731
SWIDTH 542 0
DWIDTH 8 0
BBX 8 13 0 -3
BITMAP
4C800000
09800000
09800000
09809E80
0981A200
09992000
09CE3000
0987E200
09909C10
4DD44FC4
00000000
000A5000
000C7000
ENDCHAR
STARTCHAR uni1E34
ENCODING 7732
SWIDTH 702 0
DWIDTH 10 0
BBX 10 11 0 -2
BITMAP
3BFA32CF81
03F201B300
02F21A2000
02F3A20000
02FCA00000
02F4DA0000
02F21CB000
02F201DB10
3AFA32BFC5
0000000000
001BBBB000
ENDCHAR
STARTCHAR uni1E35
ENCODING 7733
SWIDTH 542 0
DWIDTH 8 0
BBX 8 12 0 -2
BITMAP
4C800000
09800000
09800000
09809E80
0981A200
09992000
09CE3000
0987E200
09909C10
4DD44FC4
00000000
02BBBA00
ENDCHAR
STARTCHAR uni1E36
ENCODING 7734
SWIDTH 585 0
DWIDTH 8 0
BBX 8 12 0 -3
BITMAP
3AFB4000
03F30000
02F20000
02F20000
02F20000
02F20000
02F20006
03F2001B
3AFB9AE9
00000000
00068000
0008A000
ENDCHAR
STARTCHAR uni1E37
ENCODING 7735
SWIDTH 283 0
DWIDTH 4 0
BBX 4 13 0 -3
BITMAP
4C80
0980
0980
0980
0980
0980
0980
0980
0990
4DD4
0000
0870
0A90
ENDCHAR
STARTCHAR uni1E38
ENCODING 7736
SWIDTH 585 0
DWIDTH 8 0
BBX 8 14 0 -3
BITMAP
6CCC7000
00000000
3AFB4000
03F30000
02F20000
02F20000
02F20000
02F20000
02F20006
03F2001B
3AFB9AE9
00000000
00068000
0008A000
ENDCHAR
STARTCHAR uni1E39
ENCODING 7737
SWIDTH 283 0
DWIDTH 4 0
BBX 5 15 -1 -3
BITMAP
1CCCC0
000000
04C800
009800
009800
009800
009800
009800
009800
009800
009900
04DD40
000000
008700
00A900
ENDCHAR
STARTCHAR uni1E3A
ENCODING 7738
SWIDTH 585 0
DWIDTH 8 0
BBX 8 11 0 -2
BITMAP
3AFB4000
03F30000
02F20000
02F20000
02F20000
02F20000
02F20006
03F2001B
3AFB9AE9
00000000
00BBBB10
ENDCHAR
STARTCHAR uni1E3B
ENCODING 7739
SWIDTH 283 0
DWIDTH 4 0
BBX 5 12 -1 -2
BITMAP
04C800
009800
009800
009800
009800
009800
009800
009800
009900
04DD40
000000
1BBBB0
ENDCHAR
STARTCHAR uni1E3C
ENCODING 7740
SWIDTH 585 0
DWIDTH 8 0
BBX 8 12 0 -3
BITMAP
3AFB4000
03F30000
02F20000
02F20000
02F20000
02F20000
02F20006
03F2001B
3AFB9AE9
00000000
000BC100
00743800
ENDCHAR
STARTCHAR uni1E3D
ENCODING 7741
SWIDTH 283 0
DWIDTH 4 0
BBX 4 13 0 -3
BITMAP
4C80
0980
0980
0980
0980
0980
0980
0980
0990
4DD4
0000
1CB0
8347
ENDCHAR
STARTCHAR uni1E3E
ENCODING 7742
SWIDTH 895 0
DWIDTH 13 0
BBX 12 12 0 0
BITMAP
000003E50000
00001A300000
000000000000
4CF700001EE7
05EE00006EA0
048F5000B9A0
046AC00489A0
0463F30A19A0
0460CA2909A0
04605FA309A0
05700DB009A0
4CD507506EE7
ENDCHAR
STARTCHAR uni1E3F
ENCODING 7743
SWIDTH 852 0
DWIDTH 12 0
BBX 12 10 0 0
BITMAP
000001E40000
000007500000
000000000000
4C86CD28CC20
09C20BC20B70
099008900990
099008900890
099008900890
099008A00990
4DD44DE54DD4
ENDCHAR
STARTCHAR uni1E40
ENCODING 7744
SWIDTH 895 0
DWIDTH 13 0
BBX 12 12 0 0
BITMAP
000004600000
000007B00000
000000000000
4CF700001EE7
05EE00006EA0
048F5000B9A0
046AC00489A0
0463F30A19A0
0460CA2909A0
04605FA309A0
05700DB009A0
4CD507506EE7
ENDCHAR
STARTCHAR uni1E41
ENCODING 7745
SWIDTH 852 0
DWIDTH 12 0
BBX 12 10 0 0
BITMAP
000007800000
000009A00000
000000000000
4C86CD28CC20
09C20BC20B70
099008900990
099008900890
099008900890
099008A00990
4DD44DE54DD4
ENDCHAR
STARTCHAR uni1E42
ENCODING 7746
SWIDTH 895 0
DWIDTH 13 0
BBX 12 12 0 -3
BITMAP
4CF700001EE7
05EE00006EA0
048F5000B9A0
046AC00489A0
0463F30A19A0
0460CA2909A0
04605FA309A0
05700DB009A0
4CD507506EE7
000000000000
000008700000
00000A800000
ENDCHAR
STARTCHAR uni1E43
ENCODING 7747
SWIDTH 852 0
DWIDTH 12 0
BBX 12 10 0 -3
BITMAP
4C86CD28CC20
09C20BC20B70
099008900990
099008900890
099008900890
099008A00990
4DD44DE54DD4
000000000000
000007800000
000009A00000
ENDCHAR
STARTCHAR uni1E44
ENCODING 7748
SWIDTH 742 0
DWIDTH 10 0
BBX 10 12 0 0
BITMAP
0000270000
00005D0000
0000000000
4DF3002AF8
04FD1000C0
048DB000B0
0463F800B0
04605F50B0
046008E2B0
046000BDB0
0570001DB0
4CD50003A0
ENDCHAR
STARTCHAR uni1E45
ENCODING 7749
SWIDTH 576 0
DWIDTH 8 0
BBX 8 10 0 0
BITMAP
0005A000
0006C000
00000000
4C87DD20
09C20B90
099007B0
099006B0
099006B0
099006B0
3DD43CE5
ENDCHAR
STARTCHAR uni1E46
ENCODING 7750
SWIDTH 742 0
DWIDTH 10 0
BBX 10 12 0 -3
BITMAP
4DF3002AF8
04FD1000C0
048DB000B0
0463F800B0
04605F50B0
046008E2B0
046000BDB0
0570001DB0
4CD50003A0
0000000000
0000770000
0000990000
ENDCHAR
STARTCHAR uni1E47
ENCODING 7751
SWIDTH 576 0
DWIDTH 8 0
BBX 8 10 0 -3
BITMAP
4C87DD20
09C20B90
099007B0
099006B0
099006B0
099006B0
3DD43CE5
00000000
00068000
0008A000
ENDCHAR
STARTCHAR uni1E48
ENCODING 7752
SWIDTH 742 0
DWIDTH 10 0
BBX 10 11 0 -2
BITMAP
4DF3002AF8
04FD1000C0
048DB000B0
0463F800B0
04605F50B0
046008E2B0
046000BDB0
0570001DB0
4CD50003A0
0000000000
000BBBB000
ENDCHAR
STARTCHAR uni1E49
ENCODING 7753
SWIDTH 576 0
DWIDTH 8 0
BBX 8 9 0 -2
BITMAP
4C87DD20
09C20B90
099007B0
099006B0
099006B0
099006B0
3DD43CE5
00000000
00BBBB10
ENDCHAR
STARTCHAR uni1E4A
ENCODING 7754
SWIDTH 742 0
DWIDTH 10 0
BBX 10 12 0 -3
BITMAP
4DF3002AF8
04FD1000C0
048DB000B0
0463F800B0
04605F50B0
046008E2B0
046000BDB0
0570001DB0
4CD50003A0
0000000000
0000CB0000
0008338000
ENDCHAR
STARTCHAR uni1E4B
ENCODING 7755
SWIDTH 576 0
DWIDTH 8 0
BBX 8 10 0 -3
BITMAP
4C87DD20
09C20B90
099007B0
099006B0
099006B0
099006B0
3DD43CE5
00000000
000BC100
00743800
ENDCHAR
STARTCHAR uni1E4C
ENCODING 7756
SWIDTH 738 0
DWIDTH 10 0
BBX 10 14 0 0
BITMAP
00002E6000
0000A40000
0006D72500
00062BC100
0000000000
003A99B700
04E3001CA0
0D800003F4
3F400000E8
4F300000D9
3F500000E7
0D800003F3
05E2000B90
004A99A600
ENDCHAR
STARTCHAR uni1E4D
ENCODING 7757
SWIDTH 514 0
DWIDTH 7 0
BBX 7 12 0 0
BITMAP
0006D100
000A1000
01AA3700
0515C500
00000000
03A8A500
1E201E30
6D000A90
8C0009A0
6D000990
1E300D30
03B89500
ENDCHAR
STARTCHAR uni1E4E
ENCODING 7758
SWIDTH 738 0
DWIDTH 10 0
BBX 10 14 0 0
BITMAP
0007107200
001D40D500
0006D72500
00062BC100
0000000000
003A99B700
04E3001CA0
0D800003F4
3F400000E8
4F300000D9
3F500000E7
0D800003F3
05E2000B90
004A99A600
ENDCHAR
STARTCHAR uni1E4F
ENCODING 7759
SWIDTH 514 0
DWIDTH 7 0
BBX 7 12 0 0
BITMAP
06905A00
07B06C00
01AA3700
0515C500
00000000
03A8A500
1E201E30
6D000A90
8C0009A0
6D000990
1E300D30
03B89500
ENDCHAR
STARTCHAR uni1E50
ENCODING 7760
SWIDTH 738 0
DWIDTH 10 0
BBX 10 14 0 0
BITMAP
0002D60000
00001A3000
0000000000
000ACCC300
0000000000
003A99B700
04E3001CA0
0D800003F4
3F400000E8
4F300000D9
3F500000E7
0D800003F3
05E2000B90
004A99A600
ENDCHAR
STARTCHAR uni1E51
ENCODING 7761
SWIDTH 514 0
DWIDTH 7 0
BBX 7 12 0 0
BITMAP
009A0000
00093000
00000000
04BBB800
00000000
03A8A500
1E201E30
6D000A90
8C0009A0
6D000990
1E300D30
03B89500
ENDCHAR
STARTCHAR uni1E52
ENCODING 7762
SWIDTH 738 0
DWIDTH 10 0
BBX 10 14 0 0
BITMAP
00002E6000
0000A40000
0000000000
000ACCC300
0000000000
003A99B700
04E3001CA0
0D800003F4
3F400000E8
4F300000D9
3F500000E7
0D800003F3
05E2000B90
004A99A600
ENDCHAR
STARTCHAR uni1E53
ENCODING 7763
SWIDTH 514 0
DWIDTH 7 0
BBX 7 12 0 0
BITMAP
0006D100
000A1000
00000000
04BBB800
00000000
03A8A500
1E201E30
6D000A90
8C0009A0
6D000990
1E300D30
03B89500
ENDCHAR
STARTCHAR uni1E54
ENCODING 7764
SWIDTH 569 0
DWIDTH 8 0
BBX 8 12 0 0
BITMAP
0003E500
001B3000
00000000
2AFA9C80
02F201E7
02F200C8
02F203E3
02F99830
02F20000
02F20000
02F30000
2AFB4000
ENDCHAR
STARTCHAR uni1E55
ENCODING 7765
SWIDTH 537 0
DWIDTH 8 0
BBX 7 13 0 -3
BITMAP
0004E200
00092000
00000000
5D79EC20
0AB21CA0
0A7006E0
0A7004F0
0A7005D0
0A900A60
0AD99700
0A700000
0A800000
5ED60000
ENDCHAR
STARTCHAR uni1E56
ENCODING 7766
SWIDTH 569 0
DWIDTH 8 0
BBX 8 12 0 0
BITMAP
00045000
0008B000
00000000
2AFA9C80
02F201E7
02F200C8
02F203E3
02F99830
02F20000
02F20000
02F30000
2AFB4000
ENDCHAR
STARTCHAR uni1E57
ENCODING 7767
SWIDTH 537 0
DWIDTH 8 0
BBX 7 13 0 -3
BITMAP
000A5000
000C6000
00000000
5D79EC20
0AB21CA0
0A7006E0
0A7004F0
0A7005D0
0A900A60
0AD99700
0A700000
0A800000
5ED60000
ENDCHAR
STARTCHAR uni1E58
ENCODING 7768
SWIDTH 659 0
DWIDTH 9 0
BBX 10 12 0 0
BITMAP
0002700000
0004D10000
0000000000
3AFA8B8100
03F201E800
02F200C900
02F204E300
02FADA1000
02F25E3000
02F20AD100
03F301E900
2AFA305F92
ENDCHAR
STARTCHAR uni1E59
ENCODING 7769
SWIDTH 380 0
DWIDTH 5 0
BBX 6 10 0 0
BITMAP
00B400
00D500
000000
4C88E2
09C471
099000
099000
099000
099000
4DD600
ENDCHAR
STARTCHAR uni1E5A
ENCODING 7770
SWIDTH 659 0
DWIDTH 9 0
BBX 10 12 0 -3
BITMAP
3AFA8B8100
03F201E800
02F200C900
02F204E300
02FADA1000
02F25E3000
02F20AD100
03F301E900
2AFA305F92
0000000000
0000B30000
0001E40000
ENDCHAR
STARTCHAR uni1E5B
ENCODING 7771
SWIDTH 380 0
DWIDTH 5 0
BBX 6 10 0 -3
BITMAP
4C88E2
09C471
099000
099000
099000
099000
4DD600
000000
069000
07B000
ENDCHAR
STARTCHAR uni1E5C
ENCODING 7772
SWIDTH 659 0
DWIDTH 9 0
BBX 10 14 0 -3
BITMAP
008CCC5000
0000000000
3AFA8B8100
03F201E800
02F200C900
02F204E300
02FADA1000
02F25E3000
02F20AD100
03F301E900
2AFA305F92
0000000000
0000B30000
0001E40000
ENDCHAR
STARTCHAR uni1E5D
ENCODING 7773
SWIDTH 380 0
DWIDTH 5 0
BBX 6 12 0 -3
BITMAP
4BBB80
000000
4C88E2
09C471
099000
099000
099000
099000
4DD600
000000
069000
07B000
ENDCHAR
STARTCHAR uni1E5E
ENCODING 7774
SWIDTH 659 0
DWIDTH 9 0
BBX 10 11 0 -2
BITMAP
3AFA8B8100
03F201E800
02F200C900
02F204E300
02FADA1000
02F25E3000
02F20AD100
03F301E900
2AFA305F92
0000000000
004BBB8000
ENDCHAR
STARTCHAR uni1E5F
ENCODING 7775
SWIDTH 380 0
DWIDTH 5 0
BBX 6 9 0 -2
BITMAP
4C88E2
09C471
099000
099000
099000
099000
4DD600
000000
ABBB20
ENDCHAR
STARTCHAR uni1E60
ENCODING 7776
SWIDTH 504 0
DWIDTH 7 0
BBX 7 12 0 0
BITMAP
00081000
001D3000
00000000
05AADF10
3E101D20
4F200620
0BE60000
007ED400
0002BF30
71000D80
78000D60
6FCAB800
ENDCHAR
STARTCHAR uni1E61
ENCODING 7777
SWIDTH 394 0
DWIDTH 6 0
BBX 6 10 0 0
BITMAP
00A500
00C600
000000
198990
690090
4F7020
06ED30
301AE1
7401F1
6A8A70
ENDCHAR
STARTCHAR uni1E62
ENCODING 7778
SWIDTH 504 0
DWIDTH 7 0
BBX 7 12 0 -3
BITMAP
05AADF10
3E101D20
4F200620
0BE60000
007ED400
0002BF30
71000D80
78000D60
6FCAB800
00000000
002C1000
003E1000
ENDCHAR
STARTCHAR uni1E63
ENCODING 7779
SWIDTH 394 0
DWIDTH 6 0
BBX 6 10 0 -3
BITMAP
198990
690090
4F7020
06ED30
301AE1
7401F1
6A8A70
000000
00B400
00D500
ENDCHAR
STARTCHAR uni1E64
ENCODING 7780
SWIDTH 504 0
DWIDTH 7 0
BBX 7 13 0 0
BITMAP
00500000
02E3E700
000A4000
00000000
05AADF10
3E101D20
4F200620
0BE60000
007ED400
0002BF30
71000D80
78000D60
6FCAB800
ENDCHAR
STARTCHAR uni1E65
ENCODING 7781
SWIDTH 394 0
DWIDTH 6 0
BBX 6 11 0 0
BITMAP
032000
0C9E40
039500
000000
198990
690090
4F7020
06ED30
301AE1
7401F1
6A8A70
ENDCHAR
STARTCHAR uni1E66
ENCODING 7782
SWIDTH 504 0
DWIDTH 7 0
BBX 7 13 0 0
BITMAP
001B2000
02AA9400
005E7000
00000000
05AADF10
3E101D20
4F200620
0BE60000
007ED400
0002BF30
71000D80
78000D60
6FCAB800
ENDCHAR
STARTCHAR uni1E67
ENCODING 7783
SWIDTH 394 0
DWIDTH 6 0
BBX 6 12 0 0
BITMAP
003100
00D700
095750
02D900
000000
198990
690090
4F7020
06ED30
301AE1
7401F1
6A8A70
ENDCHAR
STARTCHAR uni1E68
ENCODING 7784
SWIDTH 504 0
DWIDTH 7 0
BBX 7 15 0 -3
BITMAP
00081000
001D3000
00000000
05AADF10
3E101D20
4F200620
0BE60000
007ED400
0002BF30
71000D80
78000D60
6FCAB800
00000000
002C1000
003E1000
ENDCHAR
STARTCHAR uni1E69
ENCODING 7785
SWIDTH 394 0
DWIDTH 6 0
BBX 6 13 0 -3
BITMAP
00A500
00C600
000000
198990
690090
4F7020
06ED30
301AE1
7401F1
6A8A70
000000
00B400
00D500
ENDCHAR
STARTCHAR uni1E6A
ENCODING 7786
SWIDTH 603 0
DWIDTH 8 0
BBX 9 12 0 0
BITMAP
0003700000
0006C00000
0000000000
ADACEABF20
A107D00830
3007D00210
0007D00000
0007D00000
0007D00000
0007D00000
0007D00000
005DF82000
ENDCHAR
STARTCHAR uni1E6B
ENCODING 7787
SWIDTH 315 0
DWIDTH 4 0
BBX 5 11 0 0
BITMAP
04A000
05D000
027000
0B7000
4DC900
0B7000
0B7000
0B7000
0B7000
0A8120
05EA00
ENDCHAR
STARTCHAR uni1E6C
ENCODING 7788
SWIDTH 603 0
DWIDTH 8 0
BBX 9 12 0 -3
BITMAP
ADACEABF20
A107D00830
3007D00210
0007D00000
0007D00000
0007D00000
0007D00000
0007D00000
005DF82000
0000000000
0004A00000
0006D00000
ENDCHAR
STARTCHAR uni1E6D
ENCODING 7789
SWIDTH 315 0
DWIDTH 4 0
BBX 5 12 0 -3
BITMAP
027000
0B7000
4DC900
0B7000
0B7000
0B7000
0B7000
0A8120
05EA00
000000
01B300
01E300
ENDCHAR
STARTCHAR uni1E6E
ENCODING 7790
SWIDTH 603 0
DWIDTH 8 0
BBX 9 11 0 -2
BITMAP
ADACEABF20
A107D00830
3007D00210
0007D00000
0007D00000
0007D00000
0007D00000
0007D00000
005DF82000
0000000000
009BBB3000
ENDCHAR
STARTCHAR uni1E6F
ENCODING 7791
SWIDTH 315 0
DWIDTH 4 0
BBX 5 11 0 -2
BITMAP
027000
0B7000
4DC900
0B7000
0B7000
0B7000
0B7000
0A8120
05EA00
000000
5BBB70
ENDCHAR
STARTCHAR uni1E70
ENCODING 7792
SWIDTH 603 0
DWIDTH 8 0
BBX 9 12 0 -3
BITMAP
ADACEABF20
A107D00830
3007D00210
0007D00000
0007D00000
0007D00000
0007D00000
0007D00000
005DF82000
0000000000
0009D20000
0056190000
ENDCHAR
STARTCHAR uni1E71
ENCODING 7793
SWIDTH 315 0
DWIDTH 4 0
BBX 5 12 0 -3
BITMAP
027000
0B7000
4DC900
0B7000
0B7000
0B7000
0B7000
0A8120
05EA00
000000
04E700
191830
ENDCHAR
STARTCHAR uni1E72
ENCODING 7794
SWIDTH 752 0
DWIDTH 11 0
BBX 11 12 0 -3
BITMAP
5CF92018F920
05E00000D000
05E00000C000
05E00000C000
05E00000C000
05E00000C000
04F10000B000
00EA10196000
003BEED70000
000000000000
000A40950000
000C60B70000
ENDCHAR
STARTCHAR uni1E73
ENCODING 7795
SWIDTH 570 0
DWIDTH 8 0
BBX 8 10 0 -3
BITMAP
5D705D90
0B700990
0B700990
0B700990
0B700990
09A01C90
03DC88C4
00000000
03B03B00
05D04E10
ENDCHAR
STARTCHAR uni1E74
ENCODING 7796
SWIDTH 752 0
DWIDTH 11 0
BBX 11 11 0 -2
BITMAP
5CF92018F920
05E00000D000
05E00000C000
05E00000C000
05E00000C000
05E00000C000
04F10000B000
00EA10196000
003BEED70000
0005C7450000
00051AB10000
ENDCHAR
STARTCHAR uni1E75
ENCODING 7797
SWIDTH 570 0
DWIDTH 8 0
BBX 8 9 0 -2
BITMAP
5D705D90
0B700990
0B700990
0B700990
0B700990
09A01C90
03DC88C4
01AA4700
0515C600
ENDCHAR
STARTCHAR uni1E76
ENCODING 7798
SWIDTH 752 0
DWIDTH 11 0
BBX 11 12 0 -3
BITMAP
5CF92018F920
05E00000D000
05E00000C000
05E00000C000
05E00000C000
05E00000C000
04F10000B000
00EA10196000
003BEED70000
000000000000
00008D300000
000471910000
ENDCHAR
STARTCHAR uni1E77
ENCODING 7799
SWIDTH 570 0
DWIDTH 8 0
BBX 8 10 0 -3
BITMAP
5D705D90
0B700990
0B700990
0B700990
0B700990
09A01C90
03DC88C4
00000000
001DA000
00925600
ENDCHAR
STARTCHAR uni1E78
ENCODING 7800
SWIDTH 752 0
DWIDTH 11 0
BBX 11 14 0 0
BITMAP
00000AC10000
000068000000
0002DB270000
000617D50000
000000000000
5CF92018F920
05E00000D000
05E00000C000
05E00000C000
05E00000C000
05E00000C000
04F10000B000
00EA10196000
003BEED70000
ENDCHAR
STARTCHAR uni1E79
ENCODING 7801
SWIDTH 570 0
DWIDTH 8 0
BBX 8 12 0 0
BITMAP
0003E200
00093000
009B4710
0324C700
00000000
5D705D90
0B700990
0B700990
0B700990
0B700990
09A01C90
03DC88C4
ENDCHAR
STARTCHAR uni1E7A
ENCODING 7802
SWIDTH 752 0
DWIDTH 11 0
BBX 11 13 0 0
BITMAP
000450350000
0008A07B0000
0005CCC80000
000000000000
5CF92018F920
05E00000D000
05E00000C000
05E00000C000
05E00000C000
05E00000C000
04F10000B000
00EA10196000
003BEED70000
ENDCHAR
STARTCHAR uni1E7B
ENCODING 7803
SWIDTH 570 0
DWIDTH 8 0
BBX 8 12 0 0
BITMAP
03B03B00
05D04E10
00000000
02BBBA00
00000000
5D705D90
0B700990
0B700990
0B700990
0B700990
09A01C90
03DC88C4
ENDCHAR
STARTCHAR uni1E7C
ENCODING 7804
SWIDTH 680 0
DWIDTH 10 0
BBX 11 12 -1 0
BITMAP
0000BC361000
000425D80000
000000000000
19FD4002BE50
00BC00008500
005F3000B000
000D90056000
0007E10A1000
0001E7290000
00008D820000
00002FA00000
00000A500000
ENDCHAR
STARTCHAR uni1E7D
ENCODING 7805
SWIDTH 481 0
DWIDTH 7 0
BBX 8 10 -1 0
BITMAP
002B9360
00507C40
00000000
1BF603D9
01F400B0
00A90370
004E0820
000E5900
0008D400
0002D000
ENDCHAR
STARTCHAR uni1E7E
ENCODING 7806
SWIDTH 680 0
DWIDTH 10 0
BBX 11 12 -1 -3
BITMAP
19FD4002BE50
00BC00008500
005F3000B000
000D90056000
0007E10A1000
0001E7290000
00008D820000
00002FA00000
00000A500000
000000000000
00000A500000
00000C600000
ENDCHAR
STARTCHAR uni1E7F
ENCODING 7807
SWIDTH 481 0
DWIDTH 7 0
BBX 8 10 -1 -3
BITMAP
1BF603D9
01F400B0
00A90370
004E0820
000E5900
0008D400
0002D000
00000000
0003B000
0004E100
ENDCHAR
STARTCHAR Wgrave
ENCODING 7808
SWIDTH 944 0
DWIDTH 13 0
BBX 15 12 -1 0
BITMAP
000000BA00000000
0000000860000000
0000000000000000
1AFC33BFA205EB10
00CB001F5000C100
005F200AB0029000
000E800CF2074000
0008E037D80B0000
0002F5917E380000
0000BB901FC30000
00005F400AD00000
00000B0004700000
ENDCHAR
STARTCHAR wgrave
ENCODING 7809
SWIDTH 749 0
DWIDTH 10 0
BBX 12 10 -1 0
BITMAP
00002D400000
000002A00000
000000000000
2BF62BF506E5
01F402F20290
00A902E70730
004E186C0900
000D681E4700
0008D40AD200
0002D005B000
ENDCHAR
STARTCHAR Wacute
ENCODING 7810
SWIDTH 944 0
DWIDTH 13 0
BBX 15 12 -1 0
BITMAP
0000000CA0000000
0000008600000000
0000000000000000
1AFC33BFA205EB10
00CB001F5000C100
005F200AB0029000
000E800CF2074000
0008E037D80B0000
0002F5917E380000
0000BB901FC30000
00005F400AD00000
00000B0004700000
ENDCHAR
STARTCHAR wacute
ENCODING 7811
SWIDTH 749 0
DWIDTH 10 0
BBX 12 10 -1 0
BITMAP
000000C70000
000004800000
000000000000
2BF62BF506E5
01F402F20290
00A902E70730
004E186C0900
000D681E4700
0008D40AD200
0002D005B000
ENDCHAR
STARTCHAR Wdieresis
ENCODING 7812
SWIDTH 944 0
DWIDTH 13 0
BBX 15 12 -1 0
BITMAP
0000053054000000
00000B8099000000
0000000000000000
1AFC33BFA205EB10
00CB001F5000C100
005F200AB0029000
000E800CF2074000
0008E037D80B0000
0002F5917E380000
0000BB901FC30000
00005F400AD00000
00000B0004700000
ENDCHAR
STARTCHAR wdieresis
ENCODING 7813
SWIDTH 749 0
DWIDTH 10 0
BBX 12 10 -1 0
BITMAP
0000B30A4000
0000D50D6000
000000000000
2BF62BF506E5
01F402F20290
00A902E70730
004E186C0900
000D681E4700
0008D40AD200
0002D005B000
ENDCHAR
STARTCHAR uni1E86
ENCODING 7814
SWIDTH 944 0
DWIDTH 13 0
BBX 15 12 -1 0
BITMAP
0000001800000000
0000003D20000000
0000000000000000
1AFC33BFA205EB10
00CB001F5000C100
005F200AB0029000
000E800CF2074000
0008E037D80B0000
0002F5917E380000
0000BB901FC30000
00005F400AD00000
00000B0004700000
ENDCHAR
STARTCHAR uni1E87
ENCODING 7815
SWIDTH 749 0
DWIDTH 10 0
BBX 12 10 -1 0
BITMAP
000004A00000
000006D00000
000000000000
2BF62BF506E5
01F402F20290
00A902E70730
004E186C0900
000D681E4700
0008D40AD200
0002D005B000
ENDCHAR
STARTCHAR uni1E88
ENCODING 7816
SWIDTH 944 0
DWIDTH 13 0
BBX 15 12 -1 -3
BITMAP
1AFC33BFA205EB10
00CB001F5000C100
005F200AB0029000
000E800CF2074000
0008E037D80B0000
0002F5917E380000
0000BB901FC30000
00005F400AD00000
00000B0004700000
0000000000000000
0000000B40000000
0000000D50000000
ENDCHAR
STARTCHAR uni1E89
ENCODING 7817
SWIDTH 749 0
DWIDTH 10 0
BBX 12 10 -1 -3
BITMAP
2BF62BF506E5
01F402F20290
00A902E70730
004E186C0900
000D681E4700
0008D40AD200
0002D005B000
000000000000
000004A00000
000006D00000
ENDCHAR
STARTCHAR uni1E8A
ENCODING 7818
SWIDTH 664 0
DWIDTH 9 0
BBX 10 12 0 0
BITMAP
0000630000
0000C60000
0000000000
5DF9119E81
02E8009400
005F348000
000AC90000
0002F80000
000A6F3000
00850AD100
059001E900
7E9104EF91
ENDCHAR
STARTCHAR uni1E8B
ENCODING 7819
SWIDTH 479 0
DWIDTH 7 0
BBX 7 10 0 0
BITMAP
002C1000
003E1000
00000000
7FB18D40
07D08200
00C95000
005F3000
01A8C000
0930D700
9D21CF60
ENDCHAR
STARTCHAR uni1E8C
ENCODING 7820
SWIDTH 664 0
DWIDTH 9 0
BBX 10 12 0 0
BITMAP
0026027000
006D04D100
0000000000
5DF9119E81
02E8009400
005F348000
000AC90000
0002F80000
000A6F3000
00850AD100
059001E900
7E9104EF91
ENDCHAR
STARTCHAR uni1E8D
ENCODING 7821
SWIDTH 479 0
DWIDTH 7 0
BBX 7 10 0 0
BITMAP
09608700
0B70A800
00000000
7FB18D40
07D08200
00C95000
005F3000
01A8C000
0930D700
9D21CF60
ENDCHAR
STARTCHAR uni1E8E
ENCODING 7822
SWIDTH 647 0
DWIDTH 9 0
BBX 10 12 0 0
BITMAP
0000730000
0000C60000
0000000000
9FE5007F91
08F2005700
00CB00A000
003F573000
0008D90000
0001F30000
0001F30000
0001F30000
003AFB4000
ENDCHAR
STARTCHAR uni1E8F
ENCODING 7823
SWIDTH 483 0
DWIDTH 7 0
BBX 8 13 -1 -3
BITMAP
0001C200
0001E300
00000000
1BF603D8
01F400B0
009A0370
002F2810
000A8900
0004E500
0000D000
00028000
043A2000
0BE50000
ENDCHAR
STARTCHAR uni1E90
ENCODING 7824
SWIDTH 594 0
DWIDTH 8 0
BBX 8 12 0 0
BITMAP
0007E400
00481920
00000000
0FCAAAFB
190007E2
12003F50
0001D900
000AD100
006F3000
02E70004
0CB0001A
7FCAABE9
ENDCHAR
STARTCHAR uni1E91
ENCODING 7825
SWIDTH 458 0
DWIDTH 6 0
BBX 6 10 0 0
BITMAP
007D30
047191
000000
4D99EC
5403F3
100D80
008C00
03F303
0C800A
7FA9CD
ENDCHAR
STARTCHAR uni1E92
ENCODING 7826
SWIDTH 594 0
DWIDTH 8 0
BBX 8 12 0 -3
BITMAP
0FCAAAFB
190007E2
12003F50
0001D900
000AD100
006F3000
02E70004
0CB0001A
7FCAABE9
00000000
00078000
0008A000
ENDCHAR
STARTCHAR uni1E93
ENCODING 7827
SWIDTH 458 0
DWIDTH 6 0
BBX 6 10 0 -3
BITMAP
4D99EC
5403F3
100D80
008C00
03F303
0C800A
7FA9CD
000000
005A00
006C00
ENDCHAR
STARTCHAR uni1E94
ENCODING 7828
SWIDTH 594 0
DWIDTH 8 0
BBX 8 11 0 -2
BITMAP
0FCAAAFB
190007E2
12003F50
0001D900
000AD100
006F3000
02E70004
0CB0001A
7FCAABE9
00000000
00BBBB10
ENDCHAR
STARTCHAR uni1E95
ENCODING 7829
SWIDTH 458 0
DWIDTH 6 0
BBX 6 9 0 -2
BITMAP
4D99EC
5403F3
100D80
008C00
03F303
0C800A
7FA9CD
000000
09BBB3
ENDCHAR
STARTCHAR uni1E96
ENCODING 7830
SWIDTH 577 0
DWIDTH 8 0
BBX 8 12 0 -2
BITMAP
5C800000
09800000
09800000
0997EC20
09C30B90
098007B0
098006B0
098006B0
099006B0
4DD43CE5
00000000
00ABBB20
ENDCHAR
STARTCHAR uni1E97
ENCODING 7831
SWIDTH 315 0
DWIDTH 4 0
BBX 5 11 0 0
BITMAP
B40A50
D50C60
027000
0B7000
4DC900
0B7000
0B7000
0B7000
0B7000
0A8120
05EA00
ENDCHAR
STARTCHAR uni1E98
ENCODING 7832
SWIDTH 749 0
DWIDTH 10 0
BBX 12 10 -1 0
BITMAP
000008930000
000028190000
000008930000
2BF62BF506E5
01F402F20290
00A902E70730
004E186C0900
000D681E4700
0008D40AD200
0002D005B000
ENDCHAR
STARTCHAR uni1E99
ENCODING 7833
SWIDTH 483 0
DWIDTH 7 0
BBX 8 13 -1 -3
BITMAP
00059600
000A0A00
00059600
1BF603D8
01F400B0
009A0370
002F2810
000A8900
0004E500
0000D000
00028000
043A2000
0BE50000
ENDCHAR
STARTCHAR uni1E9A
ENCODING 7834
SWIDTH 480 0
DWIDTH 7 0
BBX 7 11 0 0
BITMAP
00580000
00063000
00580000
00000000
0779A000
2F00D400
0200C600
0287D600
2D10C600
6D01D610
2DC88D40
ENDCHAR
STARTCHAR uni1E9B
ENCODING 7835
SWIDTH 285 0
DWIDTH 4 0
BBX 6 13 0 0
BITMAP
045000
08B000
000000
008AD2
05A051
089000
6C9000
099000
099000
099000
099000
099000
5DE700
ENDCHAR
STARTCHAR uni1E9C
ENCODING 7836
SWIDTH 300 0
DWIDTH 4 0
BBX 6 10 0 0
BITMAP
0089D4
03C042
06B000
4CB300
07E700
1BB000
68B000
07B000
07B000
4CF710
ENDCHAR
STARTCHAR uni1E9D
ENCODING 7837
SWIDTH 285 0
DWIDTH 4 0
BBX 6 10 0 0
BITMAP
007AD2
03A092
6CD800
6C9000
099000
099000
099000
099000
099000
5DE700
ENDCHAR
STARTCHAR uni1E9E
ENCODING 7838
SWIDTH 684 0
DWIDTH 10 0
BBX 9 9 0 0
BITMAP
0029B9AC40
00D8006E10
03F202E500
05E00BA000
05E018BA20
05E0000BB0
05E00006E0
05E27007C0
4BE2C86920
ENDCHAR
STARTCHAR uni1E9F
ENCODING 7839
SWIDTH 517 0
DWIDTH 7 0
BBX 7 11 0 0
BITMAP
0078A700
06A01E10
06D20000
00BE3000
005DF500
09908F20
4F100D90
8D0009B0
7D000990
1E301D30
04B9A500
ENDCHAR
STARTCHAR uni1EA0
ENCODING 7840
SWIDTH 718 0
DWIDTH 10 0
BBX 10 12 0 -3
BITMAP
0000870000
0001DD0000
00074E5000
000A08C000
005502F400
00A999DB00
0380004F20
0A30000E90
8F80005EF8
0000000000
0000B40000
0000D50000
ENDCHAR
STARTCHAR uni1EA1
ENCODING 7841
SWIDTH 480 0
DWIDTH 7 0
BBX 7 10 0 -3
BITMAP
0779A000
2F00D400
0200C600
0287D600
2D10C600
6D01D610
2DC88D40
00000000
004A0000
006D0000
ENDCHAR
STARTCHAR uni1EA2
ENCODING 7842
SWIDTH 718 0
DWIDTH 10 0
BBX 10 13 0 0
BITMAP
0001881000
0000294000
0000550000
0000000000
0000870000
0001DD0000
00074E5000
000A08C000
005502F400
00A999DB00
0380004F20
0A30000E90
8F80005EF8
ENDCHAR
STARTCHAR uni1EA3
ENCODING 7843
SWIDTH 480 0
DWIDTH 7 0
BBX 7 10 0 0
BITMAP
00674000
00249000
00181000
0779A000
2F00D400
0200C600
0287D600
2D10C600
6D01D610
2DC88D40
ENDCHAR
STARTCHAR uni1EA4
ENCODING 7844
SWIDTH 718 0
DWIDTH 10 0
BBX 10 13 0 0
BITMAP
0000000460
0001DC4910
0009348000
0000000000
0000870000
0001DD0000
00074E5000
000A08C000
005502F400
00A999DB00
0380004F20
0A30000E90
8F80005EF8
ENDCHAR
STARTCHAR uni1EA5
ENCODING 7845
SWIDTH 480 0
DWIDTH 7 0
BBX 7 11 0 0
BITMAP
00000540
00000D20
009D6400
05629000
0779A000
2F00D400
0200C600
0287D600
2D10C600
6D01D610
2DC88D40
ENDCHAR
STARTCHAR uni1EA6
ENCODING 7846
SWIDTH 718 0
DWIDTH 10 0
BBX 10 13 0 0
BITMAP
000003A200
0001BB4A00
0009348000
0000000000
0000870000
0001DD0000
00074E5000
000A08C000
005502F400
00A999DB00
0380004F20
0A30000E90
8F80005EF8
ENDCHAR
STARTCHAR uni1EA7
ENCODING 7847
SWIDTH 480 0
DWIDTH 7 0
BBX 7 11 0 0
BITMAP
00025000
0001C200
009D4600
05629000
0779A000
2F00D400
0200C600
0287D600
2D10C600
6D01D610
2DC88D40
ENDCHAR
STARTCHAR uni1EA8
ENCODING 7848
SWIDTH 718 0
DWIDTH 10 0
BBX 10 14 0 0
BITMAP
0000028800
0000011B10
0001CC8200
0008237000
0000000000
0000870000
0001DD0000
00074E5000
000A08C000
005502F400
00A999DB00
0380004F20
0A30000E90
8F80005EF8
ENDCHAR
STARTCHAR uni1EA9
ENCODING 7849
SWIDTH 480 0
DWIDTH 7 0
BBX 7 11 0 0
BITMAP
00016610
00001940
009D6300
04829000
0979C100
2F00D400
0200C600
0287D600
2D10C600
6D01D610
2DC88D40
ENDCHAR
STARTCHAR uni1EAA
ENCODING 7850
SWIDTH 718 0
DWIDTH 10 0
BBX 10 14 0 0
BITMAP
0009C34200
00144C9000
0000990000
0008557000
0000000000
0000870000
0001DD0000
00074E5000
000A08C000
005502F400
00A999DB00
0380004F20
0A30000E90
8F80005EF8
ENDCHAR
STARTCHAR uni1EAB
ENCODING 7851
SWIDTH 480 0
DWIDTH 7 0
BBX 7 11 0 0
BITMAP
05E61500
061AB100
009D2000
05629000
0779A000
2F00D400
0200C600
0287D600
2D10C600
6D01D610
2DC88D40
ENDCHAR
STARTCHAR uni1EAC
ENCODING 7852
SWIDTH 718 0
DWIDTH 10 0
BBX 10 15 0 -3
BITMAP
0001DC1000
0009348000
0000000000
0000870000
0001DD0000
00074E5000
000A08C000
005502F400
00A999DB00
0380004F20
0A30000E90
8F80005EF8
0000000000
0000B40000
0000D50000
ENDCHAR
STARTCHAR uni1EAD
ENCODING 7853
SWIDTH 480 0
DWIDTH 7 0
BBX 7 13 0 -3
BITMAP
009D2000
05619000
00000000
0779A000
2F00D400
0200C600
0287D600
2D10C600
6D01D610
2DC88D40
00000000
004A0000
006D0000
ENDCHAR
STARTCHAR uni1EAE
ENCODING 7854
SWIDTH 718 0
DWIDTH 10 0
BBX 10 13 0 0
BITMAP
00003D4000
0019519000
0006DD5000
0000000000
0000870000
0001DD0000
00074E5000
000A08C000
005502F400
00A999DB00
0380004F20
0A30000E90
8F80005EF8
ENDCHAR
STARTCHAR uni1EAF
ENCODING 7855
SWIDTH 480 0
DWIDTH 7 0
BBX 7 11 0 0
BITMAP
00045000
000C2000
08337200
03CD8000
0779A000
2F00D400
0200C600
0287D600
2D10C600
6D01D610
2DC88D40
ENDCHAR
STARTCHAR uni1EB0
ENCODING 7856
SWIDTH 718 0
DWIDTH 10 0
BBX 10 13 0 0
BITMAP
0005C20000
0019259000
0006DD5000
0000000000
0000870000
0001DD0000
00074E5000
000A08C000
005502F400
00A999DB00
0380004F20
0A30000E90
8F80005EF8
ENDCHAR
STARTCHAR uni1EB1
ENCODING 7857
SWIDTH 480 0
DWIDTH 7 0
BBX 7 11 0 0
BITMAP
01700000
00960000
08157200
03CD8000
0779A000
2F00D400
0200C600
0287D600
2D10C600
6D01D610
2DC88D40
ENDCHAR
STARTCHAR uni1EB2
ENCODING 7858
SWIDTH 718 0
DWIDTH 10 0
BBX 10 14 0 0
BITMAP
0001881000
0001294000
0019659000
0006DD5000
0000000000
0000870000
0001DD0000
00074E5000
000A08C000
005502F400
00A999DB00
0380004F20
0A30000E90
8F80005EF8
ENDCHAR
STARTCHAR uni1EB3
ENCODING 7859
SWIDTH 480 0
DWIDTH 7 0
BBX 7 11 0 0
BITMAP
00643000
00076000
08457200
03CD8000
0779A000
2F00D400
0200C600
0287D600
2D10C600
6D01D610
2DC88D40
ENDCHAR
STARTCHAR uni1EB4
ENCODING 7860
SWIDTH 718 0
DWIDTH 10 0
BBX 10 14 0 0
BITMAP
0009D34100
00143A6000
0019019000
0006DD5000
0000000000
0000870000
0001DD0000
00074E5000
000A08C000
005502F400
00A999DB00
0380004F20
0A30000E90
8F80005EF8
ENDCHAR
STARTCHAR uni1EB5
ENCODING 7861
SWIDTH 480 0
DWIDTH 7 0
BBX 7 11 0 0
BITMAP
05D61500
061AB100
08107200
03CD8000
0779A000
2F00D400
0200C600
0287D600
2D10C600
6D01D610
2DC88D40
ENDCHAR
STARTCHAR uni1EB6
ENCODING 7862
SWIDTH 718 0
DWIDTH 10 0
BBX 10 15 0 -3
BITMAP
0019019000
0006DD5000
0000000000
0000870000
0001DD0000
00074E5000
000A08C000
005502F400
00A999DB00
0380004F20
0A30000E90
8F80005EF8
0000000000
0000B40000
0000D50000
ENDCHAR
STARTCHAR uni1EB7
ENCODING 7863
SWIDTH 480 0
DWIDTH 7 0
BBX 7 14 0 -3
BITMAP
01000000
08107200
03BB7000
00000000
0779A000
2F00D400
0200C600
0287D600
2D10C600
6D01D610
2DC88D40
00000000
004A0000
006D0000
ENDCHAR
STARTCHAR uni1EB8
ENCODING 7864
SWIDTH 626 0
DWIDTH 9 0
BBX 9 12 0 -3
BITMAP
3AFA9ABD00
02F2000600
02F2007000
02F200A000
02F98BC000
02F2003000
02F2000350
02F2000A30
3AFA9ACF10
0000000000
0002C10000
0002E20000
ENDCHAR
STARTCHAR uni1EB9
ENCODING 7865
SWIDTH 464 0
DWIDTH 7 0
BBX 6 10 0 -3
BITMAP
049AB2
2B008B
6C889B
8A0000
6E0001
1EA238
04CFB1
000000
003B10
003E10
ENDCHAR
STARTCHAR uni1EBA
ENCODING 7866
SWIDTH 626 0
DWIDTH 9 0
BBX 9 13 0 0
BITMAP
0004760000
00021C0000
0000910000
0000000000
3AFA9ABD00
02F2000600
02F2007000
02F200A000
02F98BC000
02F2003000
02F2000350
02F2000A30
3AFA9ACF10
ENDCHAR
STARTCHAR uni1EBB
ENCODING 7867
SWIDTH 464 0
DWIDTH 7 0
BBX 6 10 0 0
BITMAP
005660
0022B0
000910
049AB2
2B008B
6C889B
8A0000
6E0001
1EA238
04CFB1
ENDCHAR
STARTCHAR uni1EBC
ENCODING 7868
SWIDTH 626 0
DWIDTH 9 0
BBX 9 12 0 0
BITMAP
003DA26000
00618D4000
0000000000
3AFA9ABD00
02F2000600
02F2007000
02F200A000
02F98BC000
02F2003000
02F2000350
02F2000A30
3AFA9ACF10
ENDCHAR
STARTCHAR uni1EBD
ENCODING 7869
SWIDTH 464 0
DWIDTH 7 0
BBX 6 10 0 0
BITMAP
03C836
0508C2
000000
049AB2
2B008B
6C889B
8A0000
6E0001
1EA238
04CFB1
ENDCHAR
STARTCHAR uni1EBE
ENCODING 7870
SWIDTH 626 0
DWIDTH 9 0
BBX 9 13 0 0
BITMAP
0000000720
0006E68500
0039193000
0000000000
3AFA9ABD00
02F2000600
02F2007000
02F200A000
02F98BC000
02F2003000
02F2000350
02F2000A30
3AFA9ACF10
ENDCHAR
STARTCHAR uni1EBF
ENCODING 7871
SWIDTH 464 0
DWIDTH 7 0
BBX 7 11 0 0
BITMAP
00000460
00000C30
007E5500
03819100
049AB200
2B008B00
6C889B00
8A000000
6E000100
1EA23800
04CFB100
ENDCHAR
STARTCHAR uni1EC0
ENCODING 7872
SWIDTH 626 0
DWIDTH 9 0
BBX 9 13 0 0
BITMAP
0000077000
0005D58500
0039193000
0000000000
3AFA9ABD00
02F2000600
02F2007000
02F200A000
02F98BC000
02F2003000
02F2000350
02F2000A30
3AFA9ACF10
ENDCHAR
STARTCHAR uni1EC1
ENCODING 7873
SWIDTH 464 0
DWIDTH 7 0
BBX 6 11 0 0
BITMAP
000150
0000B5
007E47
038191
049AB2
2B008B
6C889B
8A0000
6E0001
1EA238
04CFB1
ENDCHAR
STARTCHAR uni1EC2
ENCODING 7874
SWIDTH 626 0
DWIDTH 9 0
BBX 9 14 0 0
BITMAP
0000068400
0000024900
0006E78000
0037073000
0000000000
3AFA9ABD00
02F2000600
02F2007000
02F200A000
02F98BC000
02F2003000
02F2000350
02F2000A30
3AFA9ACF10
ENDCHAR
STARTCHAR uni1EC3
ENCODING 7875
SWIDTH 464 0
DWIDTH 7 0
BBX 7 11 0 0
BITMAP
00007630
00001760
006E6500
02A2A000
069AC300
2B008B00
6C889B00
8A000000
6E000100
1EA23800
04CFB100
ENDCHAR
STARTCHAR uni1EC4
ENCODING 7876
SWIDTH 626 0
DWIDTH 9 0
BBX 9 14 0 0
BITMAP
002D906000
00518C3000
0004B40000
0039392000
0000000000
3AFA9ABD00
02F2000600
02F2007000
02F200A000
02F98BC000
02F2003000
02F2000350
02F2000A30
3AFA9ACF10
ENDCHAR
STARTCHAR uni1EC5
ENCODING 7877
SWIDTH 464 0
DWIDTH 7 0
BBX 6 11 0 0
BITMAP
03E806
0608C2
007E30
038191
049AB2
2B008B
6C889B
8A0000
6E0001
1EA238
04CFB1
ENDCHAR
STARTCHAR uni1EC6
ENCODING 7878
SWIDTH 626 0
DWIDTH 9 0
BBX 9 15 0 -3
BITMAP
0006E60000
0039193000
0000000000
3AFA9ABD00
02F2000600
02F2007000
02F200A000
02F98BC000
02F2003000
02F2000350
02F2000A30
3AFA9ACF10
0000000000
0002C10000
0002E20000
ENDCHAR
STARTCHAR uni1EC7
ENCODING 7879
SWIDTH 464 0
DWIDTH 7 0
BBX 6 13 0 -3
BITMAP
007D40
038191
000000
049AB2
2B008B
6C889B
8A0000
6E0001
1EA238
04CFB1
000000
003B10
003E10
ENDCHAR
STARTCHAR uni1EC8
ENCODING 7880
SWIDTH 357 0
DWIDTH 5 0
BBX 5 13 0 0
BITMAP
047600
021C00
009100
000000
3BFA30
03F200
02F200
02F200
02F200
02F200
02F200
02F200
3AFA30
ENDCHAR
STARTCHAR uni1EC9
ENCODING 7881
SWIDTH 285 0
DWIDTH 4 0
BBX 4 10 0 0
BITMAP
2780
11B2
0730
4C90
0990
0990
0990
0990
0990
3DD4
ENDCHAR
STARTCHAR uni1ECA
ENCODING 7882
SWIDTH 357 0
DWIDTH 5 0
BBX 5 12 0 -3
BITMAP
3BFA30
03F200
02F200
02F200
02F200
02F200
02F200
02F200
3AFA30
000000
01C200
02E200
ENDCHAR
STARTCHAR uni1ECB
ENCODING 7883
SWIDTH 285 0
DWIDTH 4 0
BBX 4 12 0 -3
BITMAP
09A0
0550
4C90
0990
0990
0990
0990
0990
3DD4
0000
0780
09A0
ENDCHAR
STARTCHAR uni1ECC
ENCODING 7884
SWIDTH 738 0
DWIDTH 10 0
BBX 10 12 0 -3
BITMAP
003A99B700
04E3001CA0
0D800003F4
3F400000E8
4F300000D9
3F500000E7
0D800003F3
05E2000B90
004A99A600
0000000000
00005A0000
00007C0000
ENDCHAR
STARTCHAR uni1ECD
ENCODING 7885
SWIDTH 514 0
DWIDTH 7 0
BBX 7 10 0 -3
BITMAP
03A8A500
1E201E30
6D000A90
8C0009A0
6D000990
1E300D30
03B89500
00000000
000B3000
001E4000
ENDCHAR
STARTCHAR uni1ECE
ENCODING 7886
SWIDTH 738 0
DWIDTH 10 0
BBX 10 13 0 0
BITMAP
0000773000
0000258000
0000280000
0000000000
003A99B700
04E3001CA0
0D800003F4
3F400000E8
4F300000D9
3F500000E7
0D800003F3
05E2000B90
004A99A600
ENDCHAR
STARTCHAR uni1ECF
ENCODING 7887
SWIDTH 514 0
DWIDTH 7 0
BBX 7 10 0 0
BITMAP
00377000
0011C100
00072000
03A8A500
1E201E30
6D000A90
8C0009A0
6D000990
1E300D30
03B89500
ENDCHAR
STARTCHAR uni1ED0
ENCODING 7888
SWIDTH 738 0
DWIDTH 10 0
BBX 10 13 0 0
BITMAP
0000000270
0000AE4920
000752A100
0000000000
003A99B700
04E3001CA0
0D800003F4
3F400000E8
4F300000D9
3F500000E7
0D800003F3
05E2000B90
004A99A600
ENDCHAR
STARTCHAR uni1ED1
ENCODING 7889
SWIDTH 514 0
DWIDTH 7 0
BBX 7 11 0 0
BITMAP
00000270
00000870
003E7700
01917400
03A8A500
1E201E30
6D000A90
8C0009A0
6D000990
1E300D30
03B89500
ENDCHAR
STARTCHAR uni1ED2
ENCODING 7890
SWIDTH 738 0
DWIDTH 10 0
BBX 10 13 0 0
BITMAP
000001A400
00009C3A20
0007529000
0000000000
003A99B700
04E3001CA0
0D800003F4
3F400000E8
4F300000D9
3F500000E7
0D800003F3
05E2000B90
004A99A600
ENDCHAR
STARTCHAR uni1ED3
ENCODING 7891
SWIDTH 514 0
DWIDTH 7 0
BBX 7 11 0 0
BITMAP
00005100
00007900
003E7700
01917400
03A8A500
1E201E30
6D000A90
8C0009A0
6D000990
1E300D30
03B89500
ENDCHAR
STARTCHAR uni1ED4
ENCODING 7892
SWIDTH 738 0
DWIDTH 10 0
BBX 10 14 0 0
BITMAP
0000018810
0000002840
0000BD7500
0006418000
0000000000
003A99B700
04E3001CA0
0D800003F4
3F400000E8
4F300000D9
3F500000E7
0D800003F3
05E2000B90
004A99A600
ENDCHAR
STARTCHAR uni1ED5
ENCODING 7893
SWIDTH 514 0
DWIDTH 7 0
BBX 7 11 0 0
BITMAP
00006450
000013A0
003E7800
00A29200
04C8B700
1E201E30
6D000A90
8C0009A0
6D000990
1E300D30
03B89500
ENDCHAR
STARTCHAR uni1ED6
ENCODING 7894
SWIDTH 738 0
DWIDTH 10 0
BBX 10 14 0 0
BITMAP
0006D61400
00062BB000
00007A1000
0006749000
0000000000
003A99B700
04E3001CA0
0D800003F4
3F400000E8
4F300000D9
3F500000E7
0D800003F3
05E2000B90
004A99A600
ENDCHAR
STARTCHAR uni1ED7
ENCODING 7895
SWIDTH 514 0
DWIDTH 7 0
BBX 7 11 0 0
BITMAP
01CB1600
0516C500
003E7000
01918400
03A8A500
1E201E30
6D000A90
8C0009A0
6D000990
1E300D30
03B89500
ENDCHAR
STARTCHAR uni1ED8
ENCODING 7896
SWIDTH 738 0
DWIDTH 10 0
BBX 10 15 0 -3
BITMAP
0000AE2000
000752A100
0000000000
003A99B700
04E3001CA0
0D800003F4
3F400000E8
4F300000D9
3F500000E7
0D800003F3
05E2000B90
004A99A600
0000000000
00005A0000
00007C0000
ENDCHAR
STARTCHAR uni1ED9
ENCODING 7897
SWIDTH 514 0
DWIDTH 7 0
BBX 7 13 0 -3
BITMAP
003D7000
01917400
00000000
03A8A500
1E201E30
6D000A90
8C0009A0
6D000990
1E300D30
03B89500
00000000
000B3000
001E4000
ENDCHAR
STARTCHAR uni1EDA
ENCODING 7898
SWIDTH 737 0
DWIDTH 10 0
BBX 10 12 0 0
BITMAP
00002E6025
0000A3005E
000000003B
003A99EE61
04E2001CB0
0D800003F4
3F400000E8
4F300000D9
3F400000F7
0E800003F2
05E2001B80
004A99A600
ENDCHAR
STARTCHAR uni1EDB
ENCODING 7899
SWIDTH 516 0
DWIDTH 7 0
BBX 7 10 0 0
BITMAP
0006D100
000A11D0
000001C0
03A9DD40
1E201E30
6D000A90
8C0009A0
6D000990
1E300D30
03B89500
ENDCHAR
STARTCHAR uni1EDC
ENCODING 7900
SWIDTH 737 0
DWIDTH 10 0
BBX 10 12 0 0
BITMAP
0002D60025
00001A305E
000000003B
003A99EE61
04E2001CB0
0D800003F4
3F400000E8
4F300000D9
3F400000F7
0E800003F2
05E2001B80
004A99A600
ENDCHAR
STARTCHAR uni1EDD
ENCODING 7901
SWIDTH 516 0
DWIDTH 7 0
BBX 7 10 0 0
BITMAP
009A0000
000931D0
000001C0
03A9DD40
1E201E30
6D000A90
8C0009A0
6D000990
1E300D30
03B89500
ENDCHAR
STARTCHAR uni1EDE
ENCODING 7902
SWIDTH 737 0
DWIDTH 10 0
BBX 10 13 0 0
BITMAP
0000773000
0000267025
000027005E
000000003B
003A99EE61
04E2001CB0
0D800003F4
3F400000E8
4F300000D9
3F400000F7
0E800003F2
05E2001B80
004A99A600
ENDCHAR
STARTCHAR uni1EDF
ENCODING 7903
SWIDTH 516 0
DWIDTH 7 0
BBX 7 10 0 0
BITMAP
00377000
0011C2D0
000721C0
03A9DD40
1E201E30
6D000A90
8C0009A0
6D000990
1E300D30
03B89500
ENDCHAR
STARTCHAR uni1EE0
ENCODING 7904
SWIDTH 737 0
DWIDTH 10 0
BBX 10 12 0 0
BITMAP
0007D72525
00062BC15E
000000003B
003A99EE61
04E2001CB0
0D800003F4
3F400000E8
4F300000D9
3F400000F7
0E800003F2
05E2001B80
004A99A600
ENDCHAR
STARTCHAR uni1EE1
ENCODING 7905
SWIDTH 516 0
DWIDTH 7 0
BBX 7 9 0 0
BITMAP
05DED7D0
000000C0
03A9DD40
1E201E30
6D000A90
8C0009A0
6D000990
1E300D30
03B89500
ENDCHAR
STARTCHAR uni1EE2
ENCODING 7906
SWIDTH 737 0
DWIDTH 10 0
BBX 10 15 0 -3
BITMAP
0000000025
000000005E
000000003B
003A99EE61
04E2001CB0
0D800003F4
3F400000E8
4F300000D9
3F400000F7
0E800003F2
05E2001B80
004A99A600
0000000000
0000590000
00007B0000
ENDCHAR
STARTCHAR uni1EE3
ENCODING 7907
SWIDTH 516 0
DWIDTH 7 0
BBX 7 12 0 -3
BITMAP
000001D0
000001C0
03A9DD40
1E201E30
6D000A90
8C0009A0
6D000990
1E300D30
03B89500
00000000
000B3000
001E4000
ENDCHAR
STARTCHAR uni1EE4
ENCODING 7908
SWIDTH 752 0
DWIDTH 11 0
BBX 11 12 0 -3
BITMAP
5CF92018F920
05E00000D000
05E00000C000
05E00000C000
05E00000C000
05E00000C000
04F10000B000
00EA10196000
003BEED70000
000000000000
00004B000000
00005D000000
ENDCHAR
STARTCHAR uni1EE5
ENCODING 7909
SWIDTH 570 0
DWIDTH 8 0
BBX 8 10 0 -3
BITMAP
5D705D90
0B700990
0B700990
0B700990
0B700990
09A01C90
03DC88C4
00000000
00095000
000B7000
ENDCHAR
STARTCHAR uni1EE6
ENCODING 7910
SWIDTH 752 0
DWIDTH 11 0
BBX 11 13 0 0
BITMAP
000037700000
000021D00000
000008200000
000000000000
5CF92018F920
05E00000D000
05E00000C000
05E00000C000
05E00000C000
05E00000C000
04F10000B000
00EA10196000
003BEED70000
ENDCHAR
STARTCHAR uni1EE7
ENCODING 7911
SWIDTH 570 0
DWIDTH 8 0
BBX 8 10 0 0
BITMAP
00178100
0001A300
00054000
5D705D90
0B700990
0B700990
0B700990
0B700990
09A01C90
03DC88C4
ENDCHAR
STARTCHAR uni1EE8
ENCODING 7912
SWIDTH 762 0
DWIDTH 11 0
BBX 12 12 0 0
BITMAP
00000AC100C5
0000680000B6
000000000041
5CF92018F200
05E00000D000
05E00000C000
05E00000C000
05E00000C000
05E00000B000
04F10000B000
00EA10195000
003BEED70000
ENDCHAR
STARTCHAR uni1EE9
ENCODING 7913
SWIDTH 574 0
DWIDTH 8 0
BBX 9 10 0 0
BITMAP
0004D20000
000A201D10
0000000B10
5D705DB200
0B70099000
0B70099000
0B70099000
0B70099000
09A01C9000
03DC88C400
ENDCHAR
STARTCHAR uni1EEA
ENCODING 7914
SWIDTH 762 0
DWIDTH 11 0
BBX 12 12 0 0
BITMAP
00009C0000C5
0000068000B6
000000000041
5CF92018F200
05E00000D000
05E00000C000
05E00000C000
05E00000C000
05E00000B000
04F10000B000
00EA10195000
003BEED70000
ENDCHAR
STARTCHAR uni1EEB
ENCODING 7915
SWIDTH 574 0
DWIDTH 8 0
BBX 9 10 0 0
BITMAP
007C000000
0008401D10
0000000B10
5D705DB200
0B70099000
0B70099000
0B70099000
0B70099000
09A01C9000
03DC88C400
ENDCHAR
STARTCHAR uni1EEC
ENCODING 7916
SWIDTH 762 0
DWIDTH 11 0
BBX 12 13 0 0
BITMAP
000037700000
000021D000C5
0000082000B6
000000000041
5CF92018F200
05E00000D000
05E00000C000
05E00000C000
05E00000C000
05E00000B000
04F10000B000
00EA10195000
003BEED70000
ENDCHAR
STARTCHAR uni1EED
ENCODING 7917
SWIDTH 574 0
DWIDTH 8 0
BBX 9 10 0 0
BITMAP
0027800000
0011B21D10
0006300B10
5D705DB200
0B70099000
0B70099000
0B70099000
0B70099000
09A01C9000
03DC88C400
ENDCHAR
STARTCHAR uni1EEE
ENCODING 7918
SWIDTH 762 0
DWIDTH 11 0
BBX 12 12 0 0
BITMAP
0002DB2700C5
000617D500B6
000000000041
5CF92018F200
05E00000D000
05E00000C000
05E00000C000
05E00000C000
05E00000B000
04F10000B000
00EA10195000
003BEED70000
ENDCHAR
STARTCHAR uni1EEF
ENCODING 7919
SWIDTH 574 0
DWIDTH 8 0
BBX 9 10 0 0
BITMAP
00AB470000
0414C61D10
0000000B10
5D705DB200
0B70099000
0B70099000
0B70099000
0B70099000
09A01C9000
03DC88C400
ENDCHAR
STARTCHAR uni1EF0
ENCODING 7920
SWIDTH 762 0
DWIDTH 11 0
BBX 12 15 0 -3
BITMAP
0000000000C5
0000000000B6
000000000041
5CF92018F200
05E00000D000
05E00000C000
05E00000C000
05E00000C000
05E00000B000
04F10000B000
00EA10195000
003BEED70000
000000000000
00004B000000
00005D000000
ENDCHAR
STARTCHAR uni1EF1
ENCODING 7921
SWIDTH 574 0
DWIDTH 8 0
BBX 9 12 0 -3
BITMAP
0000001D10
0000000B10
5D705DB200
0B70099000
0B70099000
0B70099000
0B70099000
09A01C9000
03DC88C400
0000000000
000A400000
000C600000
ENDCHAR
STARTCHAR Ygrave
ENCODING 7922
SWIDTH 647 0
DWIDTH 9 0
BBX 10 12 0 0
BITMAP
0007E20000
00004A0000
0000000000
9FE5007F91
08F2005700
00CB00A000
003F573000
0008D90000
0001F30000
0001F30000
0001F30000
003AFB4000
ENDCHAR
STARTCHAR ygrave
ENCODING 7923
SWIDTH 483 0
DWIDTH 7 0
BBX 8 13 -1 -3
BITMAP
0009A000
00009300
00000000
1BF603D8
01F400B0
009A0370
002F2810
000A8900
0004E500
0000D000
00028000
043A2000
0BE50000
ENDCHAR
STARTCHAR uni1EF4
ENCODING 7924
SWIDTH 647 0
DWIDTH 9 0
BBX 10 12 0 -3
BITMAP
9FE5007F91
08F2005700
00CB00A000
003F573000
0008D90000
0001F30000
0001F30000
0001F30000
003AFB4000
0000000000
0001C20000
0001E30000
ENDCHAR
STARTCHAR uni1EF5
ENCODING 7925
SWIDTH 483 0
DWIDTH 7 0
BBX 8 10 -1 -3
BITMAP
1BF603D8
01F400B0
009A0370
002F2810
000A8900
0004E500
0000D000
00028000
043A2B40
0BE50D50
ENDCHAR
STARTCHAR uni1EF6
ENCODING 7926
SWIDTH 647 0
DWIDTH 9 0
BBX 10 13 0 0
BITMAP
0002780000
00011B2000
0000730000
0000000000
9FE5007F91
08F2005700
00CB00A000
003F573000
0008D90000
0001F30000
0001F30000
0001F30000
003AFB4000
ENDCHAR
STARTCHAR uni1EF7
ENCODING 7927
SWIDTH 483 0
DWIDTH 7 0
BBX 8 13 -1 -3
BITMAP
00037700
00011D00
00008200
1BF603D8
01F400B0
009A0370
002F2810
000A8900
0004E500
0000D000
00028000
043A2000
0BE50000
ENDCHAR
STARTCHAR uni1EF8
ENCODING 7928
SWIDTH 647 0
DWIDTH 9 0
BBX 10 12 0 0
BITMAP
000BC37000
00525D7000
0000000000
9FE5007F91
08F2005700
00CB00A000
003F573000
0008D90000
0001F30000
0001F30000
0001F30000
003AFB4000
ENDCHAR
STARTCHAR uni1EF9
ENCODING 7929
SWIDTH 483 0
DWIDTH 7 0
BBX 8 13 -1 -3
BITMAP
001BA370
00506C40
00000000
1BF603D8
01F400B0
009A0370
002F2810
000A8900
0004E500
0000D000
00028000
043A2000
0BE50000
ENDCHAR
STARTCHAR uni2000
ENCODING 8192
SWIDTH 500 0
DWIDTH 7 0
BBX 1 1 0 0
BITMAP
00
ENDCHAR
STARTCHAR uni2001
ENCODING 8193
SWIDTH 1000 0
DWIDTH 14 0
BBX 1 1 0 0
BITMAP
00
ENDCHAR
STARTCHAR uni2002
ENCODING 8194
SWIDTH 500 0
DWIDTH 7 0
BBX 1 1 0 0
BITMAP
00
ENDCHAR
STARTCHAR uni2003
ENCODING 8195
SWIDTH 1000 0
DWIDTH 14 0
BBX 1 1 0 0
BITMAP
00
ENDCHAR
STARTCHAR uni2004
ENCODING 8196
SWIDTH 334 0
DWIDTH 5 0
BBX 1 1 0 0
BITMAP
00
ENDCHAR
STARTCHAR uni2005
ENCODING 8197
SWIDTH 250 0
DWIDTH 4 0
BBX 1 1 0 0
BITMAP
00
ENDCHAR
STARTCHAR uni2006
ENCODING 8198
SWIDTH 167 0
DWIDTH 2 0
BBX 1 1 0 0
BITMAP
00
ENDCHAR
STARTCHAR uni2007
ENCODING 8199
SWIDTH 560 0
DWIDTH 8 0
BBX 1 1 0 0
BITMAP
00
ENDCHAR
STARTCHAR uni2008
ENCODING 8200
SWIDTH 297 0
DWIDTH 4 0
BBX 1 1 0 0
BITMAP
00
ENDCHAR
STARTCHAR uni2009
ENCODING 8201
SWIDTH 125 0
DWIDTH 2 0
BBX 1 1 0 0
BITMAP
00
ENDCHAR
STARTCHAR uni200A
ENCODING 8202
SWIDTH 63 0
DWIDTH 1 0
BBX 1 1 0 0
BITMAP
00
ENDCHAR
STARTCHAR uni200B
ENCODING 8203
SWIDTH 0 0
DWIDTH 0 0
BBX 1 1 0 0
BITMAP
00
ENDCHAR
STARTCHAR uni200C
ENCODING 8204
SWIDTH 0 0
DWIDTH 0 0
BBX 2 15 -1 -4
BITMAP
33
33
33
33
33
33
33
33
33
33
33
33
33
33
33
ENDCHAR
STARTCHAR uni200D
ENCODING 8205
SWIDTH 0 0
DWIDTH 0 0
BBX 4 17 -2 -4
BITMAP
3003
2772
2772
4334
0330
0330
0330
0330
0330
0330
0330
0330
0330
0330
0330
0330
0330
ENDCHAR
STARTCHAR uni2010
ENCODING 8208
SWIDTH 315 0
DWIDTH 4 0
BBX 4 1 0 3
BITMAP
5EEB
ENDCHAR
STARTCHAR uni2011
ENCODING 8209
SWIDTH 315 0
DWIDTH 4 0
BBX 4 1 0 3
BITMAP
5EEB
ENDCHAR
STARTCHAR figuredash
ENCODING 8210
SWIDTH 495 0
DWIDTH 7 0
BBX 7 1 0 3
BITMAP
7CCCCC60
ENDCHAR
STARTCHAR endash
ENCODING 8211
SWIDTH 500 0
DWIDTH 7 0
BBX 7 1 0 3
BITMAP
7CCCCC70
ENDCHAR
STARTCHAR emdash
ENCODING 8212
SWIDTH 1000 0
DWIDTH 14 0
BBX 14 1 0 3
BITMAP
7CCCCCCCCCCCC7
ENDCHAR
STARTCHAR uni2015
ENCODING 8213
SWIDTH 940 0
DWIDTH 13 0
BBX 14 1 0 3
BITMAP
CCCCCCCCCCCCC2
ENDCHAR
STARTCHAR uni2016
ENCODING 8214
SWIDTH 427 0
DWIDTH 6 0
BBX 4 13 1 -3
BITMAP
8448
8448
8448
8448
8448
8448
8448
8448
8448
8448
8448
8448
8448
ENDCHAR
STARTCHAR underscoredbl
ENCODING 8215
SWIDTH 512 0
DWIDTH 7 0
BBX 8 3 0 -4
BITMAP
BBBBBBB2
00000000
BBBBBBB2
ENDCHAR
STARTCHAR quoteleft
ENCODING 8216
SWIDTH 245 0
DWIDTH 3 0
BBX 3 4 0 7
BITMAP
0030
0910
2D50
1D80
ENDCHAR
STARTCHAR quoteright
ENCODING 8217
SWIDTH 245 0
DWIDTH 3 0
BBX 3 4 0 6
BITMAP
3E60
1A80
0730
1300
ENDCHAR
STARTCHAR quotesinglbase
ENCODING 8218
SWIDTH 243 0
DWIDTH 3 0
BBX 3 4 0 -2
BITMAP
1830
3E90
0460
1600
ENDCHAR
STARTCHAR quotereversed
ENCODING 8219
SWIDTH 243 0
DWIDTH 3 0
BBX 3 4 0 6
BITMAP
1D80
2D50
0910
0140
ENDCHAR
STARTCHAR quotedblleft
ENCODING 8220
SWIDTH 435 0
DWIDTH 6 0
BBX 6 4 0 7
BITMAP
003022
091280
2D57A2
1D85E4
ENDCHAR
STARTCHAR quotedblright
ENCODING 8221
SWIDTH 434 0
DWIDTH 6 0
BBX 6 4 0 6
BITMAP
3E67E1
1A84C3
073090
130310
ENDCHAR
STARTCHAR quotedblbase
ENCODING 8222
SWIDTH 433 0
DWIDTH 6 0
BBX 6 4 0 -2
BITMAP
183480
3E98F3
046091
160440
ENDCHAR
STARTCHAR uni201F
ENCODING 8223
SWIDTH 434 0
DWIDTH 6 0
BBX 6 4 0 6
BITMAP
1D84E4
2D57A2
091280
014022
ENDCHAR
STARTCHAR dagger
ENCODING 8224
SWIDTH 512 0
DWIDTH 7 0
BBX 7 13 0 -3
BITMAP
000D2000
000C1000
00060000
1ECABF30
03060300
000A0000
001F3000
000E1000
00090000
00060000
00050000
00050000
00010000
ENDCHAR
STARTCHAR daggerdbl
ENCODING 8225
SWIDTH 512 0
DWIDTH 7 0
BBX 7 12 0 -2
BITMAP
000D2000
000C1000
00060000
1ECABF30
03060300
000C1000
000D2000
00060000
1FA99F30
03060300
000D1000
000A1000
ENDCHAR
STARTCHAR bullet
ENCODING 8226
SWIDTH 457 0
DWIDTH 6 0
BBX 4 4 1 2
BITMAP
0792
5FFB
6FFC
1CE5
ENDCHAR
STARTCHAR twodotenleader
ENCODING 8229
SWIDTH 500 0
DWIDTH 7 0
BBX 7 2 0 0
BITMAP
29101920
4E202E40
ENDCHAR
STARTCHAR ellipsis
ENCODING 8230
SWIDTH 887 0
DWIDTH 12 0
BBX 10 2 1 0
BITMAP
4900490058
6D007D007C
ENDCHAR
STARTCHAR uni202F
ENCODING 8239
SWIDTH 125 0
DWIDTH 2 0
BBX 1 1 0 0
BITMAP
00
ENDCHAR
STARTCHAR perthousand
ENCODING 8240
SWIDTH 1017 0
DWIDTH 14 0
BBX 14 9 0 0
BITMAP
0598867C000000
2D0170C4000000
5A025690000000
4A061D10000000
07628567401861
0002B5A070C307
000A2B5083D008
00470B3083C044
00A005A820A770
ENDCHAR
STARTCHAR uni2031
ENCODING 8241
SWIDTH 1342 0
DWIDTH 19 0
BBX 19 9 0 0
BITMAP
0598867C000000000000
2D0170C4000000000000
5A025690000000000000
4A061D10000000000000
07628567401861057500
0002B5A070C3074B0610
000A2B5083D008960620
00470B3083C044950900
00A005A820A7704A7300
ENDCHAR
STARTCHAR minute
ENCODING 8242
SWIDTH 296 0
DWIDTH 4 0
BBX 3 5 1 5
BITMAP
1D20
5D00
9500
B000
2000
ENDCHAR
STARTCHAR second
ENCODING 8243
SWIDTH 436 0
DWIDTH 6 0
BBX 5 5 1 5
BITMAP
1D3D10
5D6C00
95A500
B0B000
202000
ENDCHAR
STARTCHAR uni2034
ENCODING 8244
SWIDTH 576 0
DWIDTH 8 0
BBX 7 5 1 5
BITMAP
1D3D2D10
5D6C6C00
95A5A400
B0B0B000
20202000
ENDCHAR
STARTCHAR uni2035
ENCODING 8245
SWIDTH 296 0
DWIDTH 4 0
BBX 3 5 1 5
BITMAP
D200
B600
3B00
0A10
0210
ENDCHAR
STARTCHAR uni2036
ENCODING 8246
SWIDTH 436 0
DWIDTH 6 0
BBX 5 5 1 5
BITMAP
D2D200
B7B600
3B4B00
0A1B00
021210
ENDCHAR
STARTCHAR uni2037
ENCODING 8247
SWIDTH 576 0
DWIDTH 8 0
BBX 6 5 1 5
BITMAP
D2D3D1
B7B6C6
3B4B4A
0A1A0B
021212
ENDCHAR
STARTCHAR uni2038
ENCODING 8248
SWIDTH 523 0
DWIDTH 7 0
BBX 7 4 0 -2
BITMAP
000B3000
0094A100
06502900
17000450
ENDCHAR
STARTCHAR guilsinglleft
ENCODING 8249
SWIDTH 307 0
DWIDTH 4 0
BBX 4 7 0 0
BITMAP
0001
0074
0770
6C00
1C40
01A2
0013
ENDCHAR
STARTCHAR guilsinglright
ENCODING 8250
SWIDTH 307 0
DWIDTH 4 0
BBX 4 6 0 0
BITMAP
1900
03B1
008A
01C3
0A30
1200
ENDCHAR
STARTCHAR uni203B
ENCODING 8251
SWIDTH 701 0
DWIDTH 10 0
BBX 9 10 0 -1
BITMAP
0100000010
1C30B804A0
02C2753B10
003C13C100
0754CC2750
0B82DB1B80
002C35B100
02C3755B10
1C30B805A0
0100000010
ENDCHAR
STARTCHAR exclamdbl
ENCODING 8252
SWIDTH 565 0
DWIDTH 8 0
BBX 6 9 1 0
BITMAP
9800A8
BA00CA
A900A8
880097
760086
650064
220032
660075
A900B9
ENDCHAR
STARTCHAR uni203E
ENCODING 8254
SWIDTH 512 0
DWIDTH 7 0
BBX 8 1 0 11
BITMAP
BBBBBBB2
ENDCHAR
STARTCHAR uni2040
ENCODING 8256
SWIDTH 810 0
DWIDTH 11 0
BBX 10 3 1 7
BITMAP
018CEDA400
3B51013980
6000000042
ENDCHAR
STARTCHAR uni2043
ENCODING 8259
SWIDTH 352 0
DWIDTH 5 0
BBX 5 3 0 3
BITMAP
255510
4FFF40
4FFF40
ENDCHAR
STARTCHAR fraction
ENCODING 8260
SWIDTH 205 0
DWIDTH 3 0
BBX 7 10 -2 0
BITMAP
00000370
00000A00
00006500
0001A000
00092000
00380000
00A10000
06500000
1A000000
92000000
ENDCHAR
STARTCHAR uni2047
ENCODING 8263
SWIDTH 822 0
DWIDTH 12 0
BBX 12 9 0 0
BITMAP
198A80398B50
7900E4B503F1
4700E47403F1
0003D0000790
000B30002C10
004600008300
003100005000
006400008200
00B70001E400
ENDCHAR
STARTCHAR uni204B
ENCODING 8267
SWIDTH 605 0
DWIDTH 8 0
BBX 8 12 0 -3
BITMAP
19F9E880
00E2C0A6
00D2C07A
00D2C089
00D2C0C4
00D2E840
00D2C000
00D2C000
00D2C000
00D2C000
01F2E100
17818710
ENDCHAR
STARTCHAR uni204C
ENCODING 8268
SWIDTH 479 0
DWIDTH 7 0
BBX 5 4 1 2
BITMAP
297860
BF6600
AF6600
297860
ENDCHAR
STARTCHAR uni204D
ENCODING 8269
SWIDTH 479 0
DWIDTH 7 0
BBX 6 4 0 2
BITMAP
268981
007AF6
007AF6
268980
ENDCHAR
STARTCHAR uni204E
ENCODING 8270
SWIDTH 410 0
DWIDTH 6 0
BBX 6 6 0 -2
BITMAP
002100
119520
5D87D1
04CA20
5A75D1
008400
ENDCHAR
STARTCHAR uni204F
ENCODING 8271
SWIDTH 245 0
DWIDTH 3 0
BBX 3 9 0 -2
BITMAP
0D60
0940
0000
0000
0000
0830
4F70
2800
0540
ENDCHAR
STARTCHAR uni2050
ENCODING 8272
SWIDTH 809 0
DWIDTH 11 0
BBX 10 10 1 0
BITMAP
029CCDA400
3C40003B70
C2000000B3
3000000021
0000000000
0000000000
2000000011
C1000000B3
4B30002A80
029BCCA400
ENDCHAR
STARTCHAR uni2051
ENCODING 8273
SWIDTH 410 0
DWIDTH 6 0
BBX 6 12 0 -1
BITMAP
002100
009500
5B75D1
04CA30
4C87D1
118420
002100
119520
4D97D1
04CA20
5A75D1
008400
ENDCHAR
STARTCHAR uni2052
ENCODING 8274
SWIDTH 482 0
DWIDTH 7 0
BBX 6 14 0 -3
BITMAP
000007
0D505A
072095
0000E1
0004B0
000860
000D20
003C00
008700
00C300
02D000
078000
0B4099
1E0055
ENDCHAR
STARTCHAR uni2057
ENCODING 8279
SWIDTH 727 0
DWIDTH 10 0
BBX 9 5 1 5
BITMAP
1D3D2D1D20
5D6C6C4D00
95A5A49600
B0B0B0B000
2020202000
ENDCHAR
STARTCHAR uni205F
ENCODING 8287
SWIDTH 222 0
DWIDTH 3 0
BBX 1 1 0 0
BITMAP
00
ENDCHAR
STARTCHAR uni2061
ENCODING 8289
SWIDTH 0 0
DWIDTH 0 0
BBX 1 1 0 0
BITMAP
00
ENDCHAR
STARTCHAR uni2062
ENCODING 8290
SWIDTH 0 0
DWIDTH 0 0
BBX 1 1 0 0
BITMAP
00
ENDCHAR
STARTCHAR uni2063
ENCODING 8291
SWIDTH 0 0
DWIDTH 0 0
BBX 1 1 0 0
BITMAP
00
ENDCHAR
STARTCHAR uni2064
ENCODING 8292
SWIDTH 0 0
DWIDTH 0 0
BBX 1 1 0 0
BITMAP
00
ENDCHAR
STARTCHAR zerosuperior
ENCODING 8304
SWIDTH 412 0
DWIDTH 6 0
BBX 6 6 0 4
BITMAP
077950
4B00D2
8800B5
8800B5
4B00D1
088950
ENDCHAR
STARTCHAR uni2071
ENCODING 8305
SWIDTH 245 0
DWIDTH 3 0
BBX 3 7 0 4
BITMAP
0C40
0310
3D40
0C40
0C40
0C40
3E90
ENDCHAR
STARTCHAR foursuperior
ENCODING 8308
SWIDTH 403 0
DWIDTH 6 0
BBX 6 6 0 4
BITMAP
002D50
027B50
370B50
ADDEE6
000B50
000B50
ENDCHAR
STARTCHAR fivesuperior
ENCODING 8309
SWIDTH 358 0
DWIDTH 5 0
BBX 5 6 0 4
BITMAP
0CEE30
2ED800
002C50
000570
000740
8C7600
ENDCHAR
STARTCHAR sixsuperior
ENCODING 8310
SWIDTH 390 0
DWIDTH 5 0
BBX 6 6 0 4
BITMAP
015420
1B9B30
6A04D0
8800F1
5A01D0
097940
ENDCHAR
STARTCHAR sevensuperior
ENCODING 8311
SWIDTH 364 0
DWIDTH 5 0
BBX 5 6 0 4
BITMAP
6EEEB0
500560
000B10
004800
00B200
03A000
ENDCHAR
STARTCHAR eightsuperior
ENCODING 8312
SWIDTH 374 0
DWIDTH 5 0
BBX 5 6 0 4
BITMAP
296930
680580
1C9810
151A50
8503C0
3A6950
ENDCHAR
STARTCHAR ninesuperior
ENCODING 8313
SWIDTH 390 0
DWIDTH 5 0
BBX 5 6 0 4
BITMAP
1A7930
8702C0
8903F0
19A9D0
000B60
169500
ENDCHAR
STARTCHAR uni207A
ENCODING 8314
SWIDTH 536 0
DWIDTH 8 0
BBX 7 6 0 4
BITMAP
000A2000
000A2000
3CCECC90
000A2000
000A2000
000A2000
ENDCHAR
STARTCHAR uni207B
ENCODING 8315
SWIDTH 536 0
DWIDTH 8 0
BBX 7 1 0 6
BITMAP
3CCCCC90
ENDCHAR
STARTCHAR uni207C
ENCODING 8316
SWIDTH 534 0
DWIDTH 7 0
BBX 7 3 0 5
BITMAP
3CCCCC90
00000000
3CCCCC90
ENDCHAR
STARTCHAR parenleftsuperior
ENCODING 8317
SWIDTH 268 0
DWIDTH 4 0
BBX 4 10 0 2
BITMAP
0023
0480
1B00
6800
9600
9500
7600
3A00
0930
0083
ENDCHAR
STARTCHAR parenrightsuperior
ENCODING 8318
SWIDTH 268 0
DWIDTH 4 0
BBX 4 10 0 2
BITMAP
4100
1910
02A0
00B2
0095
0095
00A4
00C0
0650
5600
ENDCHAR
STARTCHAR nsuperior
ENCODING 8319
SWIDTH 491 0
DWIDTH 7 0
BBX 7 5 0 4
BITMAP
4E7AD300
0C507900
0C305A00
0C305A00
4E91AD30
ENDCHAR
STARTCHAR zeroinferior
ENCODING 8320
SWIDTH 412 0
DWIDTH 6 0
BBX 6 6 0 -3
BITMAP
077950
4B00D2
8800B5
8800B5
4B00D1
088950
ENDCHAR
STARTCHAR oneinferior
ENCODING 8321
SWIDTH 333 0
DWIDTH 5 0
BBX 5 6 0 -3
BITMAP
28E000
01E000
01E000
01E000
01E000
28F710
ENDCHAR
STARTCHAR twoinferior
ENCODING 8322
SWIDTH 373 0
DWIDTH 5 0
BBX 5 6 0 -3
BITMAP
2ACC20
300990
000A50
005600
074050
8EDDB0
ENDCHAR
STARTCHAR threeinferior
ENCODING 8323
SWIDTH 374 0
DWIDTH 5 0
BBX 5 6 0 -3
BITMAP
2ACC10
200B20
04C910
000990
000690
6C7810
ENDCHAR
STARTCHAR fourinferior
ENCODING 8324
SWIDTH 403 0
DWIDTH 6 0
BBX 6 6 0 -3
BITMAP
002D50
027B50
370B50
ADDEE6
000B50
000B50
ENDCHAR
STARTCHAR fiveinferior
ENCODING 8325
SWIDTH 358 0
DWIDTH 5 0
BBX 5 6 0 -3
BITMAP
0CEE30
2ED800
002C50
000570
000740
8C7600
ENDCHAR
STARTCHAR sixinferior
ENCODING 8326
SWIDTH 390 0
DWIDTH 5 0
BBX 6 6 0 -3
BITMAP
015420
1B9B30
6A04D0
8800F1
5A01D0
097940
ENDCHAR
STARTCHAR seveninferior
ENCODING 8327
SWIDTH 364 0
DWIDTH 5 0
BBX 5 6 0 -3
BITMAP
6EEEB0
500560
000B10
004800
00B200
03A000
ENDCHAR
STARTCHAR eightinferior
ENCODING 8328
SWIDTH 374 0
DWIDTH 5 0
BBX 5 6 0 -3
BITMAP
296930
680580
1C9810
151A50
8503C0
3A6950
ENDCHAR
STARTCHAR nineinferior
ENCODING 8329
SWIDTH 390 0
DWIDTH 5 0
BBX 5 6 0 -3
BITMAP
1A7930
8702C0
8903F0
19A9D0
000B60
169500
ENDCHAR
STARTCHAR uni208A
ENCODING 8330
SWIDTH 536 0
DWIDTH 8 0
BBX 7 6 0 -3
BITMAP
000A2000
000A2000
3CCECC90
000A2000
000A2000
000A2000
ENDCHAR
STARTCHAR uni208B
ENCODING 8331
SWIDTH 536 0
DWIDTH 8 0
BBX 7 1 0 -1
BITMAP
3CCCCC90
ENDCHAR
STARTCHAR uni208C
ENCODING 8332
SWIDTH 534 0
DWIDTH 7 0
BBX 7 3 0 -2
BITMAP
3CCCCC90
00000000
3CCCCC90
ENDCHAR
STARTCHAR parenleftinferior
ENCODING 8333
SWIDTH 268 0
DWIDTH 4 0
BBX 4 10 0 -5
BITMAP
0023
0480
1B00
6800
9600
9500
7600
3A00
0930
0083
ENDCHAR
STARTCHAR parenrightinferior
ENCODING 8334
SWIDTH 268 0
DWIDTH 4 0
BBX 4 10 0 -5
BITMAP
4100
1910
02A0
00B2
0095
0095
00A4
00C0
0650
5600
ENDCHAR
STARTCHAR uni20A3
ENCODING 8355
SWIDTH 495 0
DWIDTH 7 0
BBX 7 9 0 0
BITMAP
4BC99C70
07C00290
07C00020
6CE99400
07C00000
6CE99400
07C00000
07C00000
4CF81000
ENDCHAR
STARTCHAR uni20A4
ENCODING 8356
SWIDTH 495 0
DWIDTH 7 0
BBX 7 9 0 0
BITMAP
0029BC20
00C20840
01F10000
3AFB9200
39FB9200
00C50000
00B40000
58D40350
877BEB10
ENDCHAR
STARTCHAR uni20A7
ENCODING 8359
SWIDTH 1193 0
DWIDTH 17 0
BBX 17 9 0 0
BITMAP
17C558400300000000
03F104F25900000000
03F101F5CC81698C00
03F106D18900E00900
03F897108900DB2100
03F1000089003DE600
03F100008900208F30
03F100008A02900C50
2AFA30003EA1D87900
ENDCHAR
STARTCHAR uni20AB
ENCODING 8363
SWIDTH 495 0
DWIDTH 7 0
BBX 7 9 0 0
BITMAP
0003B700
0059DC40
04A8D800
1D00A800
5B009800
6C009800
3F31B800
08EBAB30
09999800
ENDCHAR
STARTCHAR Euro
ENCODING 8364
SWIDTH 495 0
DWIDTH 7 0
BBX 7 9 0 0
BITMAP
00799A80
06B00580
0C500170
7FBA9000
9FBA8000
0E500000
0B900010
04F40470
007EE900
ENDCHAR
STARTCHAR uni20B9
ENCODING 8377
SWIDTH 495 0
DWIDTH 7 0
BBX 7 9 0 0
BITMAP
39ACA920
0005E200
3999FB20
0006D100
39D91000
007D1000
000CB000
0002E700
00006A70
ENDCHAR
STARTCHAR uni20BA
ENCODING 8378
SWIDTH 495 0
DWIDTH 7 0
BBX 7 9 0 0
BITMAP
5AB70000
08C00000
08B01000
1AD95000
5AC55000
6CD40330
08B009A0
08B01D50
5DD9B700
ENDCHAR
STARTCHAR uni20BD
ENCODING 8381
SWIDTH 495 0
DWIDTH 7 0
BBX 7 9 0 0
BITMAP
4BB9A600
07C02E60
07C00C80
07C02E40
5CE99400
07C00000
5CE99200
07C00000
4CF71000
ENDCHAR
STARTCHAR uni20D0
ENCODING 8400
SWIDTH 0 0
DWIDTH 0 0
BBX 7 3 -7 9
BITMAP
00200000
05500000
3CAAAA70
ENDCHAR
STARTCHAR uni20D1
ENCODING 8401
SWIDTH 0 0
DWIDTH 0 0
BBX 7 3 -7 9
BITMAP
00001100
00000910
2AAAACA0
ENDCHAR
STARTCHAR uni20D2
ENCODING 8402
SWIDTH 0 0
DWIDTH 0 0
BBX 2 12 -4 -2
BITMAP
92
92
92
92
92
92
92
92
92
92
92
92
ENDCHAR
STARTCHAR uni20D3
ENCODING 8403
SWIDTH 0 0
DWIDTH 0 0
BBX 2 10 -4 -2
BITMAP
41
92
92
92
92
92
92
92
92
92
ENDCHAR
STARTCHAR uni20D4
ENCODING 8404
SWIDTH 0 0
DWIDTH 0 0
BBX 8 5 -8 7
BITMAP
00068930
30740094
3670000A
0DA40006
01000000
ENDCHAR
STARTCHAR uni20D5
ENCODING 8405
SWIDTH 0 0
DWIDTH 0 0
BBX 8 4 -7 8
BITMAP
00798300
09300823
28000197
330016D6
ENDCHAR
STARTCHAR uni20D6
ENCODING 8406
SWIDTH 0 0
DWIDTH 0 0
BBX 7 5 -7 7
BITMAP
00200000
06400000
3FAAAA70
06400000
00200000
ENDCHAR
STARTCHAR uni20D7
ENCODING 8407
SWIDTH 0 0
DWIDTH 0 0
BBX 7 5 -7 7
BITMAP
00001100
00000820
1AAAADB0
00000810
00001100
ENDCHAR
STARTCHAR uni20D8
ENCODING 8408
SWIDTH 0 0
DWIDTH 0 0
BBX 5 5 -6 2
BITMAP
05BB10
2B03A0
5700C0
2B03A0
06CA10
ENDCHAR
STARTCHAR uni20D9
ENCODING 8409
SWIDTH 0 0
DWIDTH 0 0
BBX 6 5 -6 2
BITMAP
05BB10
2B08D5
5702D0
2B03A0
05BA10
ENDCHAR
STARTCHAR uni20DA
ENCODING 8410
SWIDTH 0 0
DWIDTH 0 0
BBX 6 5 -6 2
BITMAP
06BA10
2B03A0
5702D0
2B08E5
05BB10
ENDCHAR
STARTCHAR uni20DB
ENCODING 8411
SWIDTH 0 0
DWIDTH 0 0
BBX 8 3 -7 7
BITMAP
00010010
A80D50E3
21031030
ENDCHAR
STARTCHAR uni20DC
ENCODING 8412
SWIDTH 0 0
DWIDTH 0 0
BBX 11 3 -9 7
BITMAP
010010000000
2F14E06C08A0
030030120120
ENDCHAR
STARTCHAR uni20DD
ENCODING 8413
SWIDTH 0 0
DWIDTH 0 0
BBX 14 14 -10 -3
BITMAP
00028DEEB50000
006D72014BC200
06C20000006D10
2E200000000890
870000000000D2
D2000000000096
E0000000000068
E0000000000068
C2000000000096
870000000000D1
1D200000000890
05C20000006D10
005D72014BC100
00028CEEB50000
ENDCHAR
STARTCHAR uni20DE
ENCODING 8414
SWIDTH 0 0
DWIDTH 0 0
BBX 15 14 -11 -3
BITMAP
2FEEEEEEEEEEEEA0
2D000000000004A0
2D000000000004A0
2D000000000004A0
2D000000000004A0
2D000000000004A0
2D000000000004A0
2D000000000004A0
2D000000000004A0
2D000000000004A0
2D000000000004A0
2D000000000004A0
2D000000000004A0
2FEEEEEEEEEEEEA0
ENDCHAR
STARTCHAR uni20DF
ENCODING 8415
SWIDTH 0 0
DWIDTH 0 0
BBX 18 17 -12 -5
BITMAP
00000001B600000000
0000001B8D60000000
000001B802D6000000
00001B80002D600000
0001B8000002D60000
001B800000002D6000
01B80000000002D600
1B8000000000002D60
7D00000000000005E1
09A000000000003D30
009A0000000003D300
0009A00000003D3000
00009B000003D30000
000009B0003D300000
0000009B03D3000000
00000009BD30000000
000000008400000000
ENDCHAR
STARTCHAR uni20E1
ENCODING 8417
SWIDTH 0 0
DWIDTH 0 0
BBX 8 5 -7 7
BITMAP
00200200
08200640
7EAAABE1
08200640
00200200
ENDCHAR
STARTCHAR uni20E4
ENCODING 8420
SWIDTH 0 0
DWIDTH 0 0
BBX 22 17 -14 -2
BITMAP
0000000000710000000000
0000000003F80000000000
000000000CAE3000000000
000000006D08C000000000
00000001E401D600000000
0000000AA0004E10000000
0000004E10000AA0000000
000000D6000001E4000000
000007C00000006D100000
00002E300000000B800000
0000B90000000002E30000
0005E100000000007C0000
001D5000000000000D7000
008B00000000000004E200
03E2000000000000009A00
0C80000000000000001E50
6FEEEEEEEEEEEEEEEEEED1
ENDCHAR
STARTCHAR uni20E5
ENCODING 8421
SWIDTH 0 0
DWIDTH 0 0
BBX 6 12 -6 -2
BITMAP
600000
930000
390000
0B1000
057000
00C000
008400
002A00
000A20
000480
0000B0
000066
ENDCHAR
STARTCHAR uni20E6
ENCODING 8422
SWIDTH 0 0
DWIDTH 0 0
BBX 4 12 -5 -2
BITMAP
5023
B047
B047
B047
B047
B047
B047
B047
B047
B047
B047
B047
ENDCHAR
STARTCHAR uni20E7
ENCODING 8423
SWIDTH 0 0
DWIDTH 0 0
BBX 12 13 -9 -3
BITMAP
BEEEEEEEEEED
00000000001E
00000000001E
00000000001E
00000000001E
00000000001E
00000000001E
00000000001E
00000000001E
00000000001E
00000000001E
00000000001E
00000000001D
ENDCHAR
ENDFONT
